<?xml version="1.0" encoding="UTF-8" standalone="no"?>
<svg
   viewBox="0 0 131.07001 770.17995"
   fill="#ffffff"
   version="1.1"
   id="svg134"
   width="131.07001"
   height="770.17999"
   sodipodi:docname="logo-maxvi.svg"
   inkscape:version="1.2.2 (b0a84865, 2022-12-01)"
   xmlns:inkscape="http://www.inkscape.org/namespaces/inkscape"
   xmlns:sodipodi="http://sodipodi.sourceforge.net/DTD/sodipodi-0.dtd"
   xmlns="http://www.w3.org/2000/svg"
   xmlns:svg="http://www.w3.org/2000/svg">
  <sodipodi:namedview
     id="namedview135"
     pagecolor="#ffffff"
     bordercolor="#000000"
     borderopacity="0.25"
     inkscape:showpageshadow="2"
     inkscape:pageopacity="0.0"
     inkscape:pagecheckerboard="0"
     inkscape:deskcolor="#d1d1d1"
     showgrid="false"
     inkscape:zoom="0.30642188"
     inkscape:cx="-1090.0005"
     inkscape:cy="399.77563"
     inkscape:window-width="1755"
     inkscape:window-height="853"
     inkscape:window-x="0"
     inkscape:window-y="25"
     inkscape:window-maximized="0"
     inkscape:current-layer="svg134" />
  <defs
     id="defs138" />
  <path
     d="M 128,770.18 10.19,741.11 A 14.25,14.25 0 0 1 0.31,727.18 c 0.06,-8.48 8.94,-13.17 13.17,-15.4 l 68.07,-34.77 28.82,14.66 -62.85,33.29 80.48,16.52 z M 118.7,683.72 10.25,628.01 c 0,0 -10.25,-6.15 -10.25,-13.23 0,-9.19 7.27,-13.54 12.61,-15.16 6.15,2.48 111.3,57.27 111.3,57.27 0,0 6.09,4.6 6.09,11.8 0,7.2 -7.33,13.91 -11.3,15.03 z m -93.92,-91.18 33.54,17.39 69.94,-14.78 v -27.58 z m 14.3,-122.22 91,56.12 v 32.6 L 10.7,486.81 c 0,0 -10.61,-7.41 -10.61,-17.26 0,-9.85 8.31,-15 10.61,-16.49 2.3,-1.49 119.39,-72.09 119.39,-72.09 V 415.1 L 95.2,436.45 95.32,491.18 68.73,474.82 V 452.07 Z M 0.09,381.28 v -36.55 l 40.4,-39.63 19.04,18.28 z M 0.22,251.2 129.86,376.7 130.09,338.85 85.74,295.38 130.09,252.43 V 214.47 L 65.27,277.7 0.22,214.47 Z M 1.07,212.95 109.85,145.18 84.24,129.37 1.07,179.32 Z M 1.07,66.3 V 33.42 l 123,77 c 0,0 7,4.29 7,11.1 a 11.74,11.74 0 0 1 -3.36,7.82 c -2.73,2.56 -8.7,7.48 -8.7,7.48 z M 0.12,26.46 V 0.17 L 130.12,0 v 26.46 z"
     id="path132"
     style="fill:#000000" />
</svg>
