<svg version="1.1" id="Capa_1" x="0" y="0" xml:space="preserve" width="607.11" height="202.83" xmlns="http://www.w3.org/2000/svg"><style type="text/css" id="style740">.st5{fill:#7f4d2e}</style><g id="g860" transform="translate(-891.95 -840.08)"><g id="g842"><g id="g744"><path class="st5" id="polygon742" d="M956.68 971.69v18.2h28.44v21.61h28.44v28.01h376.57v-32.56h40.96v-17.06h26.16v-19.34h38.39V934.5H895.36v37.19z"/></g><g id="g748"><path id="polygon746" style="fill:#945835" d="M1414.29 964.08V934.5h-12.84v24.91h-16.33v9.33h-21v-9.33h-31.51v14h-30.33V934.5h-5.84v22.58h-36.17v24.5h-44.33v-18.67h-29.17V952.4h-9.34v36.18h-32.66v-23.34h-16.34v17.5h-29.17v-19.83h-26.84v-16.34h-10.5v12.84h-9.33v18.67h-19.84v-18.67h-25.66v23.33h-19.84V952.4h-37.33v12.84h-31.51v6.45h38.27v18.2h28.44v13.86h27.8v7.75h.64v10.91h16.86v-17.5h33.84v21.01h25.67v-15.17h22.17v4.66h32.67v-11.66h57.17v-7h71.17v25.66h10.5v-14h57.17v31.1h22.17v-50.93h23.34v24.5h3.84v-6.13h13.66v-11.37h27.3v-5.69h26.16v-19.34h25.88v-25.14h-32.67v18.67z"/></g><g id="g752"><path d="M1473.53 954.33h5.77v-.27c-1.92.07-3.84.15-5.77.27z" id="path750" style="fill:#a37458"/></g><g id="g756"><path class="st5" id="rect754" d="M1420.12 920.5h18.67v15.17h-18.67z"/></g><g id="g760"><path class="st5" id="rect758" d="M1234.61 920.5h18.67v15.17h-18.67z"/></g><g id="g764"><path class="st5" id="rect762" d="M1136.6 920.5h18.67v15.17h-18.67z"/></g><g id="g768"><path class="st5" id="rect766" d="M1061.34 979.42h15.46v15.17h-15.46z"/></g><g id="g772"><path class="st5" id="rect770" d="M1096.05 991.28h15.46v15.17h-15.46z"/></g><g id="g776"><path class="st5" id="rect774" d="M1190.37 970.28h15.46v15.17h-15.46z"/></g><g id="g780"><path class="st5" id="rect778" d="M1175.1 992.64h15.46v15.17h-15.46z"/></g><g id="g784"><path class="st5" id="rect782" d="M1232.86 975.14h15.46v15.16h-15.46z"/></g><g id="g788"><path class="st5" id="rect786" d="M1279.53 979.42h15.46v15.17h-15.46z"/></g><g id="g792"><path class="st5" id="rect790" d="M1305.78 987h15.46v15.17h-15.46z"/></g><g id="g796"><path class="st5" id="rect794" d="M1342.24 967.56h15.46v15.17h-15.46z"/></g><g id="g800"><path class="st5" id="rect798" d="M1382.35 972.81h15.46v15.17h-15.46z"/></g><g id="g804"><path class="st5" id="polygon802" d="M1460.04 967.56h-15.46v15.16h12.67v-12.17h2.79z"/></g><g id="g808"><path class="st5" id="polygon806" d="M1435.58 987h-15.46v15.17h10.97v-12.28h4.49z"/></g><g id="g812"><path class="st5" id="rect810" d="M1353.2 1011.7h15.46v15.17h-15.46z"/></g><g id="g816"><path class="st5" id="rect814" d="M1030.42 994.59h15.46v15.17h-15.46z"/></g><g id="g820"><path class="st5" id="rect818" d="M985.12 995.68h7.09v15.17h-7.09z"/></g><g id="g824"><path class="st5" id="polygon822" d="M956.68 971.69v7.73h8.31v-15.17h-15.47v7.44z"/></g><g id="g828"><path class="st5" id="rect826" d="M1056.09 920.5h18.67v15.17h-18.67z"/></g><g id="g832"><path class="st5" id="rect830" d="M1290.61 927.32h18.67v15.17h-18.67z"/></g><g id="g836"><path class="st5" id="rect834" d="M1351.6 926.92h18.67v15.16h-18.67z"/></g><g id="g840"><path class="st5" id="rect838" d="M966.25 926.92h18.67v15.16h-18.67z"/></g></g><g id="g846"><path d="M1393.55 1042.91h-383.4v-28h-28.44V993.3h-28.44v-18.2h-61.31v-44.01h607.1v42.87h-38.38v19.34h-26.17v17.06h-40.95v32.55zm-376.57-6.82h369.74v-32.55h40.96v-17.07h26.17v-19.34h38.38v-29.22H898.78v30.36h61.31v18.2h28.44v21.61h28.44v28.01z" id="path844"/></g><g id="g850"><path id="rect848" style="fill:#a3c254" d="M895.36 843.5h600.27v91H895.36z"/></g><g id="g854"><path id="polygon852" style="fill:#8ba748" d="M1478.46 881.23h-11.67v14.01h-26.83v11.66h-25.67v-19.83h-11.67v-5.84h-23.33v-7h-21.01v17.51h-10.5v25.67h-11.66v-25.67h-18.67V868.4h-12.84v32.67h-42v-31.5h-38.51v23.33h-21v11.67h-26.83V889.4h-9.34v7h-26.83v-37.33h-24.51v18.66h-36.17v12.84h-52.5v32.67h-23.33v-45.51h-30.34v16.34h-39.67v23.34h-38.22v17.09h30.05v7.58h18.67v-7.58h54.26v11.96h18.67V934.5h20.41v8.75h18.67v-8.75h36.75v7.99h18.67v-7.99h54.26v11.96h18.66V934.5h19.26v7.99h18.66v-7.99h49.59v11.96h18.67V934.5h32.96v11.96h18.67V934.5h38.5v11.96h18.67V934.5h50.18v2.92h18.66v-2.92h27.39v-67.27h-17.18z"/></g><g id="g858"><path d="M1402.83 949.87h-25.5v-11.96h-31.68v11.96h-25.49v-11.96h-26.14v11.96h-25.49v-11.96h-42.76v7.99h-25.49v-7.99h-12.43v11.96h-25.49v-11.96h-47.43v7.99h-25.5v-7.99h-29.93v8.75h-25.49v-8.75h-13.59v11.96h-25.49v-11.96H947.5v7.59H922v-7.59h-30.05v-97.83h607.1v97.83h-27.38v2.92h-25.49v-2.92h-43.35zm-18.67-6.82H1396v-11.96h57V934h11.84v-2.92h27.38V846.9H898.78v84.18h30.05v7.59h11.84v-7.59h61.08v11.96h11.84v-11.96h27.24v8.75h11.84v-8.75h43.58v7.99h11.84v-7.99h61.08v11.96h11.84v-11.96h26.08v7.99h11.84v-7.99h56.41v11.96h11.84v-11.96h39.79v11.96h11.84v-11.96h45.33v11.97z" id="path856"/></g></g></svg>