<svg version="1.1" id="Capa_1" x="0" y="0" xml:space="preserve" width="528.92" height="270.28" xmlns="http://www.w3.org/2000/svg"><style type="text/css" id="style132"></style><g id="g138" transform="translate(-931.04 -806.36)"><path id="polygon134" style="fill:#c1e5f5" d="M1407.07 1049.61v-9.01h-10.58v-18.02h-10.57v-63.06h-10.58v9h-10.58v9.02h-63.47v-9.02h-10.58v-9h-10.58v-9.01h-10.58v9.01h-10.58v18.02h-10.58v9h-10.58v9.01h-10.58v9.01h-21.15v9.01h-84.63v-9.01h-21.16v-9.01h-10.58v-9.01h-10.58v-9h-21.15v9h-10.58v9.01h-63.47v-9.01h-10.58v-9h-10.58v-18.02h-10.58v-36.04h-10.57v27.03h-10.58v54.05h10.58v27.03h10.57v18.02h10.58v9.01h10.58v9.01h21.16v9.01H1417.65v-9.01h10.58v-9.01h-10.58v-9.01z"/><path id="polygon136" style="fill:#fff" d="M1449.38 959.52h-10.58v-9.01h-10.57v-9.01h-10.58v-9.01h-31.73v-27.03h-10.58v-27.02h-10.58v-9.02h-10.58v-9h-10.58v-9.01h-10.58v-9.01h-84.63v9.01h-10.58v-18.02h-10.58v-9.01h-21.15v-9.01h-10.58v-9.01h-63.48v9.01h-21.15v9.01h-10.58v9.01h-10.58v9.01h-10.58v9.01h-10.57V878.44h-74.05v9h-21.16v9.02h-10.58v9h-10.58V959.52h10.58v18.02h10.58v9h10.58v9.01H1047.4v-9.01h10.58v-9h21.15v9h10.58v9.01h10.58v9.01h21.16v9.01h84.63v-9.01h21.15v-9.01h10.58v-9.01h10.58v-9h10.58v-18.02h10.58v-9.01h10.58v9.01h10.58v9h10.58v9.02H1364.76v-9.02h10.58v-9h10.58V1022.58h10.57v18.02h10.58v9.01h10.58v9.01h10.58v9.01h10.57v-18.02h10.58v-9.01h10.58V977.54h-10.58v-9.02z"/></g></svg>