<svg version="1.1" id="Capa_1" x="0" y="0" xml:space="preserve" width="601" height="221.72" xmlns="http://www.w3.org/2000/svg"><style type="text/css" id="style132">.st5{fill:#7f4d2e}.st9{fill:#8ba748}</style><g id="g168" transform="translate(-895 -830.64)"><g id="g142"><path id="rect134" style="fill:#a3c254" d="M895 830.64h600.99v102.94H895z"/><path class="st9" id="polygon136" d="M1450.59 869.37h-91.25v14.51h-132.45v36.96h-58.87v-51.47h-76.52v18.47H991.41v26.4H895v19.34h601v-85.33h-45.41z"/><path class="st5" id="rect138" d="M895 933.58h600.99v118.78H895z"/><path id="polygon140" style="fill:#945835" d="M1482.97 968.36v19.79h-73.59v-22.43h-67.7v-18.48h-26.49v14.52h-23.55v21.11h-50.03v-21.11h-64.76v26.39h-50.04v-34.31h-94.18v14.52h-79.48v23.75H895v23.76h69.93v36.49h38.26v-48.37h55.92v23.76h41.21v-15.84h91.25v21.12h44.15v-19.8h85.36v23.76h64.76v-17.16h55.92v5.28H1496v-56.75z"/></g><path class="st5" id="rect144" d="M1313.72 984.39h39v17.15h-39z"/><path class="st5" id="rect146" d="M1401.29 997.81h39v17.16h-39z"/><path class="st5" id="rect148" d="M1235.72 1001.55h39v17.16h-39z"/><path class="st5" id="rect150" d="M1100.32 1002.78h39v17.16h-39z"/><path class="st5" id="rect152" d="M1031.64 967.23h39.01v17.16h-39.01z"/><path class="st5" id="rect154" d="M929.6 991.65h39v17.16h-39z"/><path class="st5" id="rect156" d="M1300.47 917.74h47.1v17.16h-47.1z"/><path class="st5" id="rect158" d="M1073.83 925h47.09v17.16h-47.09z"/><path class="st9" id="rect160" d="M1253.38 926.32h47.09v17.16h-47.09z"/><path class="st9" id="rect162" d="M1393.19 925.46h47.09v17.16h-47.09z"/><path class="st9" id="rect164" d="M1154.78 929.95h47.09v17.16h-47.09z"/><path class="st9" id="rect166" d="M970.82 925h47.09v17.16h-47.09z"/></g></svg>