<svg id="Слой_1" data-name="Слой 1" xmlns="http://www.w3.org/2000/svg" xmlns:xlink="http://www.w3.org/1999/xlink" viewBox="0 0 488.6 798.8"><defs><style>.cls-1{fill:url(#Безымянный_градиент);}.cls-2{fill:none;}.cls-3{fill:#e0b700;}.cls-4{fill:url(#Безымянный_градиент_2);}.cls-5{fill:url(#Безымянный_градиент_3);}.cls-6{fill:url(#Безымянный_градиент_4);}.cls-7{fill:url(#Безымянный_градиент_5);}.cls-8{fill:url(#Безымянный_градиент_6);}.cls-9{fill:url(#Безымянный_градиент_7);}.cls-10{fill:url(#Безымянный_градиент_8);}.cls-11{fill:url(#Безымянный_градиент_9);}</style><linearGradient id="Безымянный_градиент" x1="-109.23" y1="1158.98" x2="160.64" y2="160.57" gradientTransform="translate(967.92 438.15) rotate(90)" gradientUnits="userSpaceOnUse"><stop offset="0.12" stop-color="#eaeaea"/><stop offset="0.37" stop-color="#e7e7e7"/><stop offset="0.56" stop-color="#dededd"/><stop offset="0.72" stop-color="#cececd"/><stop offset="0.88" stop-color="#b7b7b7"/><stop offset="1" stop-color="#a0a09f"/></linearGradient><linearGradient id="Безымянный_градиент_2" x1="110.53" y1="1019.54" x2="280.9" y2="446.96" gradientTransform="translate(967.92 438.15) rotate(90)" gradientUnits="userSpaceOnUse"><stop offset="0" stop-color="#685402"/><stop offset="0.53" stop-color="#e0b700"/><stop offset="0.6" stop-color="#dbb300"/><stop offset="0.69" stop-color="#cca600"/><stop offset="0.79" stop-color="#b39201"/><stop offset="0.9" stop-color="#907501"/><stop offset="1" stop-color="#685402"/></linearGradient><linearGradient id="Безымянный_градиент_3" x1="151.76" y1="1031.81" x2="322.13" y2="459.23" gradientTransform="translate(907.34 392.52) rotate(90)" xlink:href="#Безымянный_градиент_2"/><linearGradient id="Безымянный_градиент_4" x1="173.16" y1="1038.18" x2="343.53" y2="465.6" gradientTransform="translate(907.34 392.52) rotate(90)" xlink:href="#Безымянный_градиент_2"/><linearGradient id="Безымянный_градиент_5" x1="-107.21" y1="954.75" x2="63.16" y2="382.17" gradientTransform="translate(907.34 392.52) rotate(90)" xlink:href="#Безымянный_градиент_2"/><linearGradient id="Безымянный_градиент_6" x1="-85.81" y1="961.12" x2="84.56" y2="388.54" gradientTransform="translate(907.34 392.52) rotate(90)" xlink:href="#Безымянный_градиент_2"/><linearGradient id="Безымянный_градиент_7" x1="-64.36" y1="967.5" x2="106.01" y2="394.92" xlink:href="#Безымянный_градиент_2"/><linearGradient id="Безымянный_градиент_8" x1="-125.62" y1="949.27" x2="44.75" y2="376.69" xlink:href="#Безымянный_градиент_2"/><linearGradient id="Безымянный_градиент_9" x1="130.31" y1="1025.43" x2="300.68" y2="452.85" xlink:href="#Безымянный_градиент_2"/></defs><path class="cls-1" d="M60.58,791.54v-693a52.81,52.81,0,0,1,52.8-52.8h255.4a15.68,15.68,0,0,1,11.2,4.6l164.6,164.5a16.11,16.11,0,0,1,4.6,11.2v565.6a52.81,52.81,0,0,1-52.8,52.8h-383A52.91,52.91,0,0,1,60.58,791.54Z" transform="translate(-60.58 -45.64)"/><line class="cls-2" x1="314.7" x2="488.6" y2="173.9"/><path class="cls-3" d="M175.88,781.74l-17.4-17.5a5.28,5.28,0,0,1-1.6-3.7V532.74h296v62.7H216.38v187.9h-36.8A5.28,5.28,0,0,1,175.88,781.74Z" transform="translate(-60.58 -45.64)"/><rect class="cls-3" x="252.9" y="593.6" width="61.1" height="144.1"/><rect class="cls-3" x="174.6" y="593.6" width="61.1" height="144.1"/><rect class="cls-3" x="252.9" y="311.7" width="61.1" height="144.1"/><rect class="cls-3" x="174.6" y="311.7" width="61.1" height="144.1"/><path class="cls-3" d="M156.88,379.64a5.64,5.64,0,0,1,1.6-3.7l17-17a5.56,5.56,0,0,1,3.7-1.5H218v144h-61.1Z" transform="translate(-60.58 -45.64)"/><path class="cls-3" d="M452.78,379.64a5.12,5.12,0,0,0-1.5-3.7l-17-17a5.52,5.52,0,0,0-3.7-1.5h-38.8v144h61.1Z" transform="translate(-60.58 -45.64)"/><path class="cls-3" d="M452.78,761a5.14,5.14,0,0,1-1.5,3.7l-17,17a5.57,5.57,0,0,1-3.7,1.5h-38.8v-144h61.1Z" transform="translate(-60.58 -45.64)"/><path class="cls-4" d="M175.88,781.74l-17.4-17.5a5.28,5.28,0,0,1-1.6-3.7V532.74h296v62.7H216.38v187.9h-36.8A5.28,5.28,0,0,1,175.88,781.74Z" transform="translate(-60.58 -45.64)"/><rect class="cls-5" x="252.9" y="593.6" width="61.1" height="144.1"/><rect class="cls-6" x="174.6" y="593.6" width="61.1" height="144.1"/><rect class="cls-7" x="252.9" y="311.7" width="61.1" height="144.1"/><rect class="cls-8" x="174.6" y="311.7" width="61.1" height="144.1"/><path class="cls-9" d="M156.88,379.64a5.64,5.64,0,0,1,1.6-3.7l17-17a5.56,5.56,0,0,1,3.7-1.5H218v144h-61.1Z" transform="translate(-60.58 -45.64)"/><path class="cls-10" d="M452.78,379.64a5.12,5.12,0,0,0-1.5-3.7l-17-17a5.52,5.52,0,0,0-3.7-1.5h-38.8v144h61.1Z" transform="translate(-60.58 -45.64)"/><path class="cls-11" d="M452.78,761a5.14,5.14,0,0,1-1.5,3.7l-17,17a5.57,5.57,0,0,1-3.7,1.5h-38.8v-144h61.1Z" transform="translate(-60.58 -45.64)"/></svg>