<svg id="Слой_1" data-name="Слой 1" xmlns="http://www.w3.org/2000/svg" xmlns:xlink="http://www.w3.org/1999/xlink" viewBox="0 0 488.6 798.8"><defs><style>.cls-1{fill:url(#Безымянный_градиент);}.cls-2{fill:none;}.cls-3{fill:#e0b700;}.cls-4{fill:url(#Безымянный_градиент_2);}.cls-5{fill:url(#Безымянный_градиент_3);}.cls-6{fill:url(#Безымянный_градиент_4);}.cls-7{fill:url(#Безымянный_градиент_5);}.cls-8{fill:url(#Безымянный_градиент_6);}.cls-9{fill:url(#Безымянный_градиент_7);}.cls-10{fill:url(#Безымянный_градиент_8);}.cls-11{fill:url(#Безымянный_градиент_9);}</style><linearGradient id="Безымянный_градиент" x1="188.77" y1="-46.84" x2="458.64" y2="951.57" gradientTransform="matrix(0, 1, 1, 0, -144.22, 144.22)" gradientUnits="userSpaceOnUse"><stop offset="0.27" stop-color="#dcdcdc"/><stop offset="0.75" stop-color="#dededd"/></linearGradient><linearGradient id="Безымянный_градиент_2" x1="408.53" y1="92.6" x2="578.9" y2="665.18" gradientTransform="matrix(0, 1, 1, 0, -144.22, 144.22)" gradientUnits="userSpaceOnUse"><stop offset="0" stop-color="#685402"/><stop offset="0.53" stop-color="#e0b700"/><stop offset="0.6" stop-color="#dbb300"/><stop offset="0.69" stop-color="#cca600"/><stop offset="0.79" stop-color="#b39201"/><stop offset="0.9" stop-color="#907501"/><stop offset="1" stop-color="#685402"/></linearGradient><linearGradient id="Безымянный_градиент_3" x1="449.76" y1="80.34" x2="620.13" y2="652.92" gradientTransform="matrix(0, 1, 1, 0, -204.8, 94.52)" xlink:href="#Безымянный_градиент_2"/><linearGradient id="Безымянный_градиент_4" x1="471.16" y1="73.97" x2="641.53" y2="646.55" gradientTransform="matrix(0, 1, 1, 0, -204.8, 94.52)" xlink:href="#Безымянный_градиент_2"/><linearGradient id="Безымянный_градиент_5" x1="190.79" y1="157.39" x2="361.16" y2="729.97" gradientTransform="matrix(0, 1, 1, 0, -204.8, 94.52)" xlink:href="#Безымянный_градиент_2"/><linearGradient id="Безымянный_градиент_6" x1="212.19" y1="151.03" x2="382.56" y2="723.61" gradientTransform="matrix(0, 1, 1, 0, -204.8, 94.52)" xlink:href="#Безымянный_градиент_2"/><linearGradient id="Безымянный_градиент_7" x1="233.64" y1="144.65" x2="404.01" y2="717.23" xlink:href="#Безымянный_градиент_2"/><linearGradient id="Безымянный_градиент_8" x1="172.38" y1="162.88" x2="342.75" y2="735.46" xlink:href="#Безымянный_градиент_2"/><linearGradient id="Безымянный_градиент_9" x1="428.31" y1="86.72" x2="598.68" y2="659.3" gradientTransform="matrix(0, 1, 1, 0, -144.22, 144.22)" gradientUnits="userSpaceOnUse"><stop offset="0.41" stop-color="#685402"/><stop offset="0.53" stop-color="#7c6402"/><stop offset="0.76" stop-color="#af8e01"/><stop offset="0.89" stop-color="#cca600"/></linearGradient></defs><path class="cls-1" d="M60.58,795.6v-693a52.83,52.83,0,0,1,52.8-52.8h255.4A15.76,15.76,0,0,1,380,54.4l164.6,164.5a16.15,16.15,0,0,1,4.6,11.2V795.7a52.8,52.8,0,0,1-52.8,52.8h-383A52.9,52.9,0,0,1,60.58,795.6Z" transform="translate(-60.58 -49.7)"/><line class="cls-2" x1="314.7" x2="488.6" y2="173.9"/><path class="cls-3" d="M175.88,785.8l-17.4-17.5a5.24,5.24,0,0,1-1.6-3.7V536.8h296v62.7H216.38V787.4h-36.8A5.2,5.2,0,0,1,175.88,785.8Z" transform="translate(-60.58 -49.7)"/><rect class="cls-3" x="252.9" y="593.6" width="61.1" height="144.1"/><rect class="cls-3" x="174.6" y="593.6" width="61.1" height="144.1"/><rect class="cls-3" x="252.9" y="311.7" width="61.1" height="144.1"/><rect class="cls-3" x="174.6" y="311.7" width="61.1" height="144.1"/><path class="cls-3" d="M156.88,383.7a5.68,5.68,0,0,1,1.6-3.7l17-17a5.66,5.66,0,0,1,3.7-1.5H218v144h-61.1Z" transform="translate(-60.58 -49.7)"/><path class="cls-3" d="M452.78,383.7a5.14,5.14,0,0,0-1.5-3.7l-17-17a5.62,5.62,0,0,0-3.7-1.5h-38.8v144h61.1Z" transform="translate(-60.58 -49.7)"/><path class="cls-3" d="M452.78,765.1a5.1,5.1,0,0,1-1.5,3.7l-17,17a5.52,5.52,0,0,1-3.7,1.5h-38.8v-144h61.1Z" transform="translate(-60.58 -49.7)"/><path class="cls-4" d="M175.88,785.8l-17.4-17.5a5.24,5.24,0,0,1-1.6-3.7V536.8h296v62.7H216.38V787.4h-36.8A5.2,5.2,0,0,1,175.88,785.8Z" transform="translate(-60.58 -49.7)"/><rect class="cls-5" x="252.9" y="593.6" width="61.1" height="144.1"/><rect class="cls-6" x="174.6" y="593.6" width="61.1" height="144.1"/><rect class="cls-7" x="252.9" y="311.7" width="61.1" height="144.1"/><rect class="cls-8" x="174.6" y="311.7" width="61.1" height="144.1"/><path class="cls-9" d="M156.88,383.7a5.68,5.68,0,0,1,1.6-3.7l17-17a5.66,5.66,0,0,1,3.7-1.5H218v144h-61.1Z" transform="translate(-60.58 -49.7)"/><path class="cls-10" d="M452.78,383.7a5.14,5.14,0,0,0-1.5-3.7l-17-17a5.62,5.62,0,0,0-3.7-1.5h-38.8v144h61.1Z" transform="translate(-60.58 -49.7)"/><path class="cls-11" d="M452.78,765.1a5.1,5.1,0,0,1-1.5,3.7l-17,17a5.52,5.52,0,0,1-3.7,1.5h-38.8v-144h61.1Z" transform="translate(-60.58 -49.7)"/></svg>