<svg id="Слой_1" data-name="Слой 1" xmlns="http://www.w3.org/2000/svg" xmlns:xlink="http://www.w3.org/1999/xlink" viewBox="0 0 624 852.15"><defs><style>.cls-1{fill:none;}.cls-2{fill:#e0b700;}.cls-3{fill:#4667bb;}.cls-4{clip-path:url(#clip-path);}.cls-5{fill:#fff;}</style><clipPath id="clip-path" transform="translate(-90.06 45.88)"><path class="cls-1" d="M255.52,55.37H650.24a46.11,46.11,0,0,1,46.09,46.09h0V542.27H209.43V101.46A46.11,46.11,0,0,1,255.52,55.37Z"/></clipPath></defs><path class="cls-2" d="M255.52,55.37H650.24a46.11,46.11,0,0,1,46.09,46.09h0V542.27H209.43V101.46A46.11,46.11,0,0,1,255.52,55.37Z" transform="translate(-90.06 45.88)"/><path class="cls-3" d="M696.33,560H209.43a17.73,17.73,0,0,1-17.7-17.73V101.46a63.89,63.89,0,0,1,63.82-63.82H650.24a63.89,63.89,0,0,1,63.82,63.82V542.27A17.73,17.73,0,0,1,696.33,560ZM227.16,524.54H678.61V101.46a28.41,28.41,0,0,0-28.37-28.37H255.52a28.4,28.4,0,0,0-28.36,28.37Z" transform="translate(-90.06 45.88)"/><g class="cls-4"><path class="cls-3" d="M348.88-28.15V788.09a17.73,17.73,0,1,1-35.46,0V-28.15a17.73,17.73,0,0,1,17.73-17.73h0A17.73,17.73,0,0,1,348.88-28.15Z" transform="translate(-90.06 45.88)"/><path class="cls-3" d="M470.61-28.15V788.09a17.73,17.73,0,1,1-35.45.89h0V-28.15a17.73,17.73,0,0,1,17.72-17.73,17.71,17.71,0,0,1,17.73,17.71Z" transform="translate(-90.06 45.88)"/><path class="cls-3" d="M592.34-28.15V788.09a17.73,17.73,0,0,1-35.46,0h0V-28.15a17.73,17.73,0,0,1,17.73-17.73,17.73,17.73,0,0,1,17.73,17.73Z" transform="translate(-90.06 45.88)"/></g><path class="cls-3" d="M696.33,204.27V680.54a46.11,46.11,0,0,1-46.09,46.09H153.88a46.08,46.08,0,0,1-46.09-46.07h0V500.12L173,469.71v-44l-65.2-30.4v-87l101.64-104Z" transform="translate(-90.06 45.88)"/><path class="cls-3" d="M650.24,744.36H153.88a63.89,63.89,0,0,1-63.82-63.82V500.12a17.72,17.72,0,0,1,10.24-16.07l55-25.63V437l-55-25.63A17.72,17.72,0,0,1,90.06,395.3v-87a17.71,17.71,0,0,1,5-12.39l101.62-104a17.76,17.76,0,0,1,12.68-5.34H696.33a17.73,17.73,0,0,1,17.73,17.73V680.54A63.89,63.89,0,0,1,650.24,744.36ZM125.52,511.41V680.54a28.4,28.4,0,0,0,28.36,28.37H650.24a28.4,28.4,0,0,0,28.36-28.37V222H216.89l-91.37,93.51V384l55,25.63a17.71,17.71,0,0,1,10.21,16.1v44a17.72,17.72,0,0,1-10.24,16.07Z" transform="translate(-90.06 45.88)"/><path class="cls-5" d="M242,400.49l.71,8.42a21.33,21.33,0,0,1,7.68-7.09,22.08,22.08,0,0,1,10.69-2.5,19.42,19.42,0,0,1,10.47,2.7,16.71,16.71,0,0,1,6.59,8.19,22,22,0,0,1,7.66-8,20.78,20.78,0,0,1,11.06-2.88q9.42,0,14.86,6.68t5.45,20.39v37.79H300V426.33q0-7.65-2.35-10.65t-7-3a11.47,11.47,0,0,0-10.59,6.12c0,.64,0,1.27.06,1.91a14.62,14.62,0,0,1,.06,1.62v41.85H263.06V426.33q0-7.47-2.36-10.56c-1.57-2.06-3.93-3.09-7.06-3.09a13.38,13.38,0,0,0-6.09,1.32,11.75,11.75,0,0,0-4.33,3.74v46.44H226.09V400.49Z" transform="translate(-90.06 45.88)"/><path class="cls-5" d="M348.46,385.25H331.28V372.36h17.18Zm0,78.93H331.28V400.49h17.18Z" transform="translate(-90.06 45.88)"/><path class="cls-5" d="M389.19,452.23a9.57,9.57,0,0,0,7.13-2.68A9.71,9.71,0,0,0,399,442.4h15.66l.12.36a20,20,0,0,1-7.18,16.15q-7.43,6.51-18.37,6.51-14.12,0-21.83-9t-7.71-23.1v-1.77q0-14,7.68-23.1t21.75-9.09q11.66,0,18.77,6.71t6.88,17.61l-.12.36H399a12.71,12.71,0,0,0-2.61-8.21,8.8,8.8,0,0,0-7.27-3.27q-6.66,0-9.45,5.33t-2.8,13.62v1.77q0,8.48,2.8,13.71T389.19,452.23Z" transform="translate(-90.06 45.88)"/><path class="cls-5" d="M458.24,415.27l-6.3-.18a11.42,11.42,0,0,0-6.3,1.59,10.13,10.13,0,0,0-3.77,4.47v43H424.73V400.49h16l.76,9.42a20.23,20.23,0,0,1,5.8-7.8,12.91,12.91,0,0,1,8.21-2.79,13.49,13.49,0,0,1,2.38.2c.73.14,1.47.31,2.21.5Z" transform="translate(-90.06 45.88)"/><path class="cls-5" d="M463.36,431.75q0-14.25,7.94-23.34t22-9.09q14.11,0,22.13,9.06t8,23.37V433q0,14.37-8,23.4t-22,9q-14.13,0-22.11-9t-8-23.4ZM480.49,433q0,8.72,3.06,14t9.89,5.27q6.65,0,9.74-5.3t3.09-14v-1.23q0-8.48-3.12-13.83t-9.83-5.36q-6.66,0-9.74,5.39t-3.09,13.8Z" transform="translate(-90.06 45.88)"/><path class="cls-5" d="M581.56,441.16A10.31,10.31,0,0,0,578,433q-3.56-3.09-12.45-5.82-15.27-4.61-23.18-10.85t-7.91-17q0-10.85,8.91-17.72t22.72-6.88q14.67,0,23.6,7.39t8.64,19.39l-.12.36H581.08q0-6.6-4-10.15t-11.21-3.54q-6.54,0-10.12,3.15a10.27,10.27,0,0,0-3.57,8.06,8.81,8.81,0,0,0,3.87,7.36q3.88,2.88,13.4,6.09,14.53,4.13,22.17,10.75T599.26,441q0,11.34-8.85,17.88T567,465.42q-14.24,0-24.45-7.09t-9.9-21.14l.12-.37h17.15q0,7.81,4.6,11.52T567,452q7.1,0,10.82-3A9.67,9.67,0,0,0,581.56,441.16Z" transform="translate(-90.06 45.88)"/><path class="cls-5" d="M612.28,464.18V376h30.78q16.19,0,26.66,10.33t10.49,26.51v14.6q0,16.24-10.49,26.51t-26.66,10.27ZM630,389.59v61h13.08a17.28,17.28,0,0,0,14.06-6.51q5.32-6.52,5.33-16.7v-14.7q0-10.12-5.33-16.6a17.29,17.29,0,0,0-14.06-6.49Z" transform="translate(-90.06 45.88)"/></svg>