<?xml version="1.0" encoding="UTF-8" standalone="no"?>
<svg
   id="Слой_1"
   data-name="Слой 1"
   viewBox="0 0 499.45337 388.48001"
   version="1.1"
   sodipodi:docname="BS101-wireless-icon-wifi.svg"
   width="499.45337"
   height="388.48001"
   inkscape:version="1.2.2 (b0a84865, 2022-12-01)"
   xmlns:inkscape="http://www.inkscape.org/namespaces/inkscape"
   xmlns:sodipodi="http://sodipodi.sourceforge.net/DTD/sodipodi-0.dtd"
   xmlns="http://www.w3.org/2000/svg"
   xmlns:svg="http://www.w3.org/2000/svg">
  <defs
     id="defs435" />
  <sodipodi:namedview
     id="namedview433"
     pagecolor="#ffffff"
     bordercolor="#000000"
     borderopacity="0.25"
     inkscape:showpageshadow="2"
     inkscape:pageopacity="0.0"
     inkscape:pagecheckerboard="0"
     inkscape:deskcolor="#d1d1d1"
     showgrid="false"
     showguides="true"
     inkscape:zoom="0.236"
     inkscape:cx="-86.864407"
     inkscape:cy="33.898305"
     inkscape:window-width="1534"
     inkscape:window-height="456"
     inkscape:window-x="0"
     inkscape:window-y="25"
     inkscape:window-maximized="0"
     inkscape:current-layer="Слой_1" />
  <path
     d="m 359.32126,250.68 a 12.38,12.38 0 0 1 -8.72,-3.59 143.45,143.45 0 0 0 -202,0 12.39,12.39 0 1 1 -17.43,-17.6 168.23,168.23 0 0 1 236.84,0 12.39,12.39 0 0 1 -8.72,21.19 z"
     id="path424" />
  <path
     d="m 423.21126,186.8 a 12.41,12.41 0 0 1 -8.73,-3.6 233.83,233.83 0 0 0 -329.710004,0 12.381458,12.381458 0 1 1 -17.48,-17.54 258.6,258.6 0 0 1 364.650004,0 12.39,12.39 0 0 1 -8.73,21.18 z"
     id="path426" />
  <path
     d="m 487.09126,122.91 a 12.34,12.34 0 0 1 -8.74,-3.61 A 324.15,324.15 0 0 0 20.871256,119.21 12.39,12.39 0 0 1 3.4112558,101.64 C 69.361256,36.1 156.80126,0 249.62126,0 c 92.82,0 180.3,36.14 246.18,101.75 a 12.38,12.38 0 0 1 -8.74,21.16 z"
     id="path428" />
  <path
     d="m 249.62126,388.48 a 58.82,58.82 0 1 1 58.81,-58.82 58.88,58.88 0 0 1 -58.81,58.82 z m 0,-92.85 a 34,34 0 1 0 34,34 34.08,34.08 0 0 0 -34,-34 z"
     id="path430" />
</svg>
