<svg version="1.1" id="Capa_1" x="0" y="0" xml:space="preserve" width="2339.1" height="179.5" xmlns="http://www.w3.org/2000/svg"><style type="text/css" id="style6572">.st0{fill:#8ad1f0}</style><path class="st0" id="polygon6574" style="fill:#2d2d3d;fill-opacity:1" transform="translate(-55.4 -932.7)" d="M2386.1 932.7v40.2h-15.8v-40.2h-25.4V959h-41.2v40.2h-36.3v-66.5h-29.1v38.8h-40v-38.8h-27.8v36h-34v-36h-39.9v16.6h-55.8v-16.6h-33.9v48.5h-32.7v-48.5h-25.4V959h-47.3v31.9h-44.8v-44.3h-30.3v23.5h-26.6v-27.7h-37.6v33.3h-55.7v-43h-44.8v20.8h-37.6v-20.8h-33.9v19.4h-50.8v34.6h-32.8v-54h-29v29.1h-41.2v-29.1h-20.6v18h-63v44.4h-29.1v-62.4h-43.6v25h-55.2v92.2h1169.6V932.7z"/><path class="st0" id="polygon6576" style="fill:#2d2d3d;fill-opacity:1" transform="translate(-55.4 -932.7)" d="M1169.7 957.7v-25h-43.6v62.4h-29v-44.4h-63v-18h-20.6v29.1h-41.2v-29.1h-29.1v54h-32.7v-34.6h-50.9v-19.4h-33.9v20.8h-37.5v-20.8h-44.9v43h-55.7v-33.3h-37.5v27.7h-26.7v-23.5h-30.3v44.3h-44.8V959h-47.2v-26.3h-25.5v48.5h-32.7v-48.5H409v16.6h-55.7v-16.6h-40v36h-33.9v-36h-27.8v38.8h-40v-38.8h-29.1v66.5h-36.3V959H105v-26.3H79.5v40.2H63.8v-40.2h-8.4v117.2h1169.5v-92.2z"/><g id="g6582" style="fill:#2d2d3d;fill-opacity:1" transform="translate(-55.4 -932.7)"><path class="st0" id="polygon6578" style="fill:#2d2d3d;fill-opacity:1" d="M110.6 1087.2v25h43.6v-62.4h29v44.4h63v18h20.6v-29.1H308v29.1h29.1v-54h32.7v34.6h50.8v19.4h34v-20.8h37.5v20.8h44.8v-43h55.8v33.3h37.5v-27.7h26.7v23.5h30.2V1054H732v31.9h47.2v26.3h25.4v-48.5h32.7v48.5h34v-16.6H927v16.6h40v-36h33.9v36h27.8v-38.8h40v38.8h29.1v-66.5h36.3v40.2h41.2v26.3h25.4V1072h15.8v40.2h8.4v-107.3H55.4v82.3z"/><path class="st0" id="polygon6580" style="fill:#2d2d3d;fill-opacity:1" d="M1233.4 1112.2V1072h15.7v40.2h25.5v-26.3h41.1v-40.2h36.4v66.5h29.1v-38.8h39.9v38.8h27.9v-36h33.9v36h40v-16.6h55.7v16.6h33.9v-48.5h32.7v48.5h25.5v-26.3h47.2V1054h44.8v44.3h30.3v-23.5h26.7v27.7h37.5v-33.3h55.7v43h44.8v-20.8h37.6v20.8h33.9v-19.4h50.9v-34.6h32.7v54h29.1v-29.1h41.2v29.1h20.5v-18h63v-44.4h29.1v62.4h43.6v-25h55.2v-82.3H1224.9v107.3z"/></g></svg>