<svg id="Слой_1" data-name="Слой 1" xmlns="http://www.w3.org/2000/svg" xmlns:xlink="http://www.w3.org/1999/xlink" viewBox="0 0 488.63 798.8"><defs><style>.cls-1{fill:url(#Безымянный_градиент);}.cls-2{fill:none;}.cls-3{fill:#efbc3e;}.cls-4{fill:url(#Безымянный_градиент_2);}.cls-5{fill:url(#Безымянный_градиент_3);}.cls-6{fill:url(#Безымянный_градиент_4);}.cls-7{fill:url(#Безымянный_градиент_5);}.cls-8{fill:url(#Безымянный_градиент_6);}.cls-9{fill:url(#Безымянный_градиент_7);}.cls-10{fill:url(#Безымянный_градиент_8);}.cls-11{fill:url(#Безымянный_градиент_9);}</style><linearGradient id="Безымянный_градиент" x1="301.42" y1="621.53" x2="571.29" y2="1619.94" gradientTransform="translate(1516.86 29.6) rotate(90)" gradientUnits="userSpaceOnUse"><stop offset="0.12" stop-color="#eaeaea"/><stop offset="0.37" stop-color="#e7e7e7"/><stop offset="0.56" stop-color="#dededd"/><stop offset="0.72" stop-color="#cececd"/><stop offset="0.88" stop-color="#b7b7b7"/><stop offset="1" stop-color="#a0a09f"/></linearGradient><linearGradient id="Безымянный_градиент_2" x1="366.3" y1="640.33" x2="742.66" y2="349.89" gradientTransform="matrix(0, 1, 1, 0, -204.17, 0)" gradientUnits="userSpaceOnUse"><stop offset="0.05" stop-color="#eaae2a"/><stop offset="0.13" stop-color="#ecb439"/><stop offset="0.28" stop-color="#f1c560"/><stop offset="0.37" stop-color="#f4cf79"/><stop offset="0.45" stop-color="#f2ca6c"/><stop offset="0.61" stop-color="#eebc4b"/><stop offset="0.75" stop-color="#eaae28"/></linearGradient><linearGradient id="Безымянный_градиент_3" x1="404.17" y1="689.41" x2="780.53" y2="398.97" xlink:href="#Безымянный_градиент_2"/><linearGradient id="Безымянный_градиент_4" x1="261.08" y1="503.99" x2="637.44" y2="213.55" xlink:href="#Безымянный_градиент_2"/><linearGradient id="Безымянный_градиент_5" x1="298.96" y1="553.06" x2="675.32" y2="262.62" xlink:href="#Безымянный_градиент_2"/><linearGradient id="Безымянный_градиент_6" x1="336.84" y1="602.16" x2="713.2" y2="311.72" gradientTransform="matrix(0, 1, 1, 0, -49.09, 47.72)" xlink:href="#Безымянный_градиент_2"/><linearGradient id="Безымянный_градиент_7" x1="227.07" y1="459.9" x2="603.43" y2="169.46" gradientTransform="matrix(0, 1, 1, 0, -49.09, 47.72)" xlink:href="#Безымянный_градиент_2"/><linearGradient id="Безымянный_градиент_8" x1="328.41" y1="591.23" x2="704.77" y2="300.79" gradientTransform="matrix(0, 1, 1, 0, -49.09, 47.72)" xlink:href="#Безымянный_градиент_2"/><linearGradient id="Безымянный_градиент_9" x1="361.44" y1="634.03" x2="737.8" y2="343.59" gradientTransform="matrix(0, 1, 1, 0, -49.09, 47.72)" xlink:href="#Безымянный_градиент_2"/></defs><path class="cls-1" d="M590.88,846.52h-383a52.8,52.8,0,0,1-52.8-52.8V228.12a16.11,16.11,0,0,1,4.6-11.2l164.6-164.5a15.8,15.8,0,0,1,11.21-4.6H590.88a52.82,52.82,0,0,1,52.83,52.78v693A52.87,52.87,0,0,1,590.88,846.52Z" transform="translate(-155.08 -47.72)"/><line class="cls-2" y1="173.9" x2="173.9"/><rect class="cls-3" x="174.6" y="593.6" width="61.1" height="144.1"/><rect class="cls-3" x="252.9" y="593.6" width="61.1" height="144.1"/><rect class="cls-3" x="174.6" y="311.7" width="61.1" height="144.1"/><rect class="cls-3" x="252.9" y="311.7" width="61.1" height="144.1"/><path class="cls-3" d="M547.38,503.52h-61.1v-144h38.8a5.57,5.57,0,0,1,3.7,1.5l17,17a5.64,5.64,0,0,1,1.6,3.7Z" transform="translate(-155.08 -47.72)"/><path class="cls-3" d="M251.39,503.52h61.1v-144H273.71A5.61,5.61,0,0,0,270,361l-17,17a5.12,5.12,0,0,0-1.5,3.7Z" transform="translate(-155.08 -47.72)"/><path class="cls-3" d="M251.39,641.32h61.1v144H273.71a5.61,5.61,0,0,1-3.7-1.5l-17-17a5.14,5.14,0,0,1-1.5-3.7Z" transform="translate(-155.08 -47.72)"/><path class="cls-3" d="M524.71,785.42h-36.8V597.52H251.42v-62.7h296V762.6a5.18,5.18,0,0,1-1.6,3.7l-17.4,17.5A5.25,5.25,0,0,1,524.71,785.42Z" transform="translate(-155.08 -47.72)"/><rect class="cls-4" x="174.6" y="593.6" width="61.1" height="144.1"/><rect class="cls-5" x="252.9" y="593.6" width="61.1" height="144.1"/><rect class="cls-6" x="174.6" y="311.7" width="61.1" height="144.1"/><rect class="cls-7" x="252.9" y="311.7" width="61.1" height="144.1"/><path class="cls-8" d="M547.38,503.52h-61.1v-144h38.8a5.57,5.57,0,0,1,3.7,1.5l17,17a5.64,5.64,0,0,1,1.6,3.7Z" transform="translate(-155.08 -47.72)"/><path class="cls-9" d="M251.39,503.52h61.1v-144H273.71A5.61,5.61,0,0,0,270,361l-17,17a5.12,5.12,0,0,0-1.5,3.7Z" transform="translate(-155.08 -47.72)"/><path class="cls-10" d="M251.39,641.32h61.1v144H273.71a5.61,5.61,0,0,1-3.7-1.5l-17-17a5.14,5.14,0,0,1-1.5-3.7Z" transform="translate(-155.08 -47.72)"/><path class="cls-11" d="M524.71,785.42h-36.8V597.52H251.42v-62.7h296V762.6a5.18,5.18,0,0,1-1.6,3.7l-17.4,17.5A5.25,5.25,0,0,1,524.71,785.42Z" transform="translate(-155.08 -47.72)"/></svg>