<?xml version="1.0" encoding="UTF-8" standalone="no"?>
<svg
   id="Слой_1"
   data-name="Слой 1"
   viewBox="0 0 488.63001 798.79998"
   version="1.1"
   sodipodi:docname="B201-slots-icon-SIM.svg"
   width="488.63"
   height="798.79999"
   inkscape:version="1.2.2 (b0a84865, 2022-12-01)"
   xmlns:inkscape="http://www.inkscape.org/namespaces/inkscape"
   xmlns:sodipodi="http://sodipodi.sourceforge.net/DTD/sodipodi-0.dtd"
   xmlns:xlink="http://www.w3.org/1999/xlink"
   xmlns="http://www.w3.org/2000/svg"
   xmlns:svg="http://www.w3.org/2000/svg">
  <sodipodi:namedview
     id="namedview629"
     pagecolor="#ffffff"
     bordercolor="#000000"
     borderopacity="0.25"
     inkscape:showpageshadow="2"
     inkscape:pageopacity="0.0"
     inkscape:pagecheckerboard="0"
     inkscape:deskcolor="#d1d1d1"
     showgrid="false"
     inkscape:zoom="0.48298303"
     inkscape:cx="64.18445"
     inkscape:cy="399.59996"
     inkscape:window-width="1735"
     inkscape:window-height="890"
     inkscape:window-x="0"
     inkscape:window-y="25"
     inkscape:window-maximized="0"
     inkscape:current-layer="Слой_1" />
  <defs
     id="defs590">
    <style
       id="style560">.cls-1{fill:url(#Безымянный_градиент);}.cls-2{fill:none;}.cls-3{fill:#efbc3e;}.cls-4{fill:url(#Безымянный_градиент_15);}</style>
    <linearGradient
       id="Безымянный_градиент"
       x1="301.42001"
       y1="581.27002"
       x2="571.28998"
       y2="-417.14001"
       gradientTransform="matrix(1,0,0,-1,-18.12,329.66)"
       gradientUnits="userSpaceOnUse">
      <stop
         offset="0.12"
         stop-color="#eaeaea"
         id="stop562" />
      <stop
         offset="0.37"
         stop-color="#e7e7e7"
         id="stop564" />
      <stop
         offset="0.56"
         stop-color="#dededd"
         id="stop566" />
      <stop
         offset="0.72"
         stop-color="#cececd"
         id="stop568" />
      <stop
         offset="0.88"
         stop-color="#b7b7b7"
         id="stop570" />
      <stop
         offset="1"
         stop-color="#a0a09f"
         id="stop572" />
    </linearGradient>
    <linearGradient
       id="Безымянный_градиент_15"
       x1="332.54999"
       y1="96.209999"
       x2="708.90997"
       y2="386.64999"
       gradientUnits="userSpaceOnUse">
      <stop
         offset="0.05"
         stop-color="#eaae2a"
         id="stop575" />
      <stop
         offset="0.13"
         stop-color="#ecb439"
         id="stop577" />
      <stop
         offset="0.28"
         stop-color="#f1c560"
         id="stop579" />
      <stop
         offset="0.37"
         stop-color="#f4cf79"
         id="stop581" />
      <stop
         offset="0.45"
         stop-color="#f2ca6c"
         id="stop583" />
      <stop
         offset="0.61"
         stop-color="#eebc4b"
         id="stop585" />
      <stop
         offset="0.75"
         stop-color="#eaae28"
         id="stop587" />
    </linearGradient>
    <linearGradient
       inkscape:collect="always"
       xlink:href="#%D0%91%D0%B5%D0%B7%D1%8B%D0%BC%D1%8F%D0%BD%D0%BD%D1%8B%D0%B9_%D0%B3%D1%80%D0%B0%D0%B4%D0%B8%D0%B5%D0%BD%D1%82_15"
       id="linearGradient768"
       gradientUnits="userSpaceOnUse"
       x1="332.54999"
       y1="96.209999"
       x2="708.90997"
       y2="386.64999" />
    <linearGradient
       inkscape:collect="always"
       xlink:href="#%D0%91%D0%B5%D0%B7%D1%8B%D0%BC%D1%8F%D0%BD%D0%BD%D1%8B%D0%B9_%D0%B3%D1%80%D0%B0%D0%B4%D0%B8%D0%B5%D0%BD%D1%82_15"
       id="linearGradient770"
       gradientUnits="userSpaceOnUse"
       x1="332.54999"
       y1="96.209999"
       x2="708.90997"
       y2="386.64999" />
    <linearGradient
       inkscape:collect="always"
       xlink:href="#%D0%91%D0%B5%D0%B7%D1%8B%D0%BC%D1%8F%D0%BD%D0%BD%D1%8B%D0%B9_%D0%B3%D1%80%D0%B0%D0%B4%D0%B8%D0%B5%D0%BD%D1%82_15"
       id="linearGradient772"
       gradientUnits="userSpaceOnUse"
       x1="332.54999"
       y1="96.209999"
       x2="708.90997"
       y2="386.64999" />
    <linearGradient
       inkscape:collect="always"
       xlink:href="#%D0%91%D0%B5%D0%B7%D1%8B%D0%BC%D1%8F%D0%BD%D0%BD%D1%8B%D0%B9_%D0%B3%D1%80%D0%B0%D0%B4%D0%B8%D0%B5%D0%BD%D1%82_15"
       id="linearGradient774"
       gradientUnits="userSpaceOnUse"
       x1="332.54999"
       y1="96.209999"
       x2="708.90997"
       y2="386.64999" />
    <linearGradient
       inkscape:collect="always"
       xlink:href="#%D0%91%D0%B5%D0%B7%D1%8B%D0%BC%D1%8F%D0%BD%D0%BD%D1%8B%D0%B9_%D0%B3%D1%80%D0%B0%D0%B4%D0%B8%D0%B5%D0%BD%D1%82_15"
       id="linearGradient776"
       gradientUnits="userSpaceOnUse"
       x1="332.54999"
       y1="96.209999"
       x2="708.90997"
       y2="386.64999" />
    <linearGradient
       inkscape:collect="always"
       xlink:href="#%D0%91%D0%B5%D0%B7%D1%8B%D0%BC%D1%8F%D0%BD%D0%BD%D1%8B%D0%B9_%D0%B3%D1%80%D0%B0%D0%B4%D0%B8%D0%B5%D0%BD%D1%82_15"
       id="linearGradient778"
       gradientUnits="userSpaceOnUse"
       x1="332.54999"
       y1="96.209999"
       x2="708.90997"
       y2="386.64999" />
    <linearGradient
       inkscape:collect="always"
       xlink:href="#%D0%91%D0%B5%D0%B7%D1%8B%D0%BC%D1%8F%D0%BD%D0%BD%D1%8B%D0%B9_%D0%B3%D1%80%D0%B0%D0%B4%D0%B8%D0%B5%D0%BD%D1%82_15"
       id="linearGradient780"
       gradientUnits="userSpaceOnUse"
       x1="332.54999"
       y1="96.209999"
       x2="708.90997"
       y2="386.64999" />
    <linearGradient
       inkscape:collect="always"
       xlink:href="#%D0%91%D0%B5%D0%B7%D1%8B%D0%BC%D1%8F%D0%BD%D0%BD%D1%8B%D0%B9_%D0%B3%D1%80%D0%B0%D0%B4%D0%B8%D0%B5%D0%BD%D1%82_15"
       id="linearGradient782"
       gradientUnits="userSpaceOnUse"
       x1="332.54999"
       y1="96.209999"
       x2="708.90997"
       y2="386.64999" />
  </defs>
  <g
     id="g766"
     transform="rotate(90,244.315,244.315)">
    <path
       class="cls-1"
       d="m 798.8,52.83 v 383 A 52.8,52.8 0 0 1 746,488.63 H 180.4 a 16.11,16.11 0 0 1 -11.2,-4.6 L 4.7,319.43 A 15.76,15.76 0 0 1 0.1,308.23 V 52.83 A 52.82,52.82 0 0 1 52.88,0 h 693 a 52.88,52.88 0 0 1 52.92,52.83 z"
       id="path592"
       style="fill:url(#%D0%91%D0%B5%D0%B7%D1%8B%D0%BC%D1%8F%D0%BD%D0%BD%D1%8B%D0%B9_%D0%B3%D1%80%D0%B0%D0%B4%D0%B8%D0%B5%D0%BD%D1%82)" />
    <line
       class="cls-2"
       x1="173.89999"
       y1="488.63"
       y2="314.73001"
       id="line594"
       x2="0" />
    <rect
       class="cls-3"
       x="593.59998"
       y="252.92999"
       width="144.10001"
       height="61.099998"
       id="rect596" />
    <rect
       class="cls-3"
       x="593.59998"
       y="174.63"
       width="144.10001"
       height="61.099998"
       id="rect598" />
    <rect
       class="cls-3"
       x="311.70001"
       y="252.92999"
       width="144.10001"
       height="61.099998"
       id="rect600" />
    <rect
       class="cls-3"
       x="311.70001"
       y="174.63"
       width="144.10001"
       height="61.099998"
       id="rect602" />
    <path
       class="cls-3"
       d="m 455.8,96.33 v 61.1 h -144 v -38.8 a 5.59,5.59 0 0 1 1.5,-3.7 l 17,-17 a 5.66,5.66 0 0 1 3.7,-1.6 z"
       id="path604" />
    <path
       class="cls-3"
       d="m 455.8,392.33 v -61.1 h -144 V 370 a 5.59,5.59 0 0 0 1.5,3.7 l 17,17 a 5.12,5.12 0 0 0 3.7,1.5 z"
       id="path606" />
    <path
       class="cls-3"
       d="m 593.6,392.33 v -61.1 h 144 V 370 a 5.59,5.59 0 0 1 -1.5,3.7 l -17,17 a 5.12,5.12 0 0 1 -3.7,1.5 z"
       id="path608" />
    <path
       class="cls-3"
       d="m 737.7,119 v 36.8 H 549.8 v 236.5 h -62.7 v -296 h 227.78 a 5.22,5.22 0 0 1 3.7,1.6 l 17.5,17.4 a 5.24,5.24 0 0 1 1.62,3.7 z"
       id="path610" />
    <rect
       class="cls-4"
       x="593.59998"
       y="252.92999"
       width="144.10001"
       height="61.099998"
       id="rect612"
       style="fill:url(#linearGradient768)" />
    <rect
       class="cls-4"
       x="593.59998"
       y="174.63"
       width="144.10001"
       height="61.099998"
       id="rect614"
       style="fill:url(#linearGradient770)" />
    <rect
       class="cls-4"
       x="311.70001"
       y="252.92999"
       width="144.10001"
       height="61.099998"
       id="rect616"
       style="fill:url(#linearGradient772)" />
    <rect
       class="cls-4"
       x="311.70001"
       y="174.63"
       width="144.10001"
       height="61.099998"
       id="rect618"
       style="fill:url(#linearGradient774)" />
    <path
       class="cls-4"
       d="m 455.8,96.33 v 61.1 h -144 v -38.8 a 5.59,5.59 0 0 1 1.5,-3.7 l 17,-17 a 5.66,5.66 0 0 1 3.7,-1.6 z"
       id="path620"
       style="fill:url(#linearGradient776)" />
    <path
       class="cls-4"
       d="m 455.8,392.33 v -61.1 h -144 V 370 a 5.59,5.59 0 0 0 1.5,3.7 l 17,17 a 5.12,5.12 0 0 0 3.7,1.5 z"
       id="path622"
       style="fill:url(#linearGradient778)" />
    <path
       class="cls-4"
       d="m 593.6,392.33 v -61.1 h 144 V 370 a 5.59,5.59 0 0 1 -1.5,3.7 l -17,17 a 5.12,5.12 0 0 1 -3.7,1.5 z"
       id="path624"
       style="fill:url(#linearGradient780)" />
    <path
       class="cls-4"
       d="m 737.7,119 v 36.8 H 549.8 v 236.5 h -62.7 v -296 h 227.78 a 5.22,5.22 0 0 1 3.7,1.6 l 17.5,17.4 a 5.24,5.24 0 0 1 1.62,3.7 z"
       id="path626"
       style="fill:url(#linearGradient782)" />
  </g>
</svg>
