<svg id="Слой_1" data-name="Слой 1" xmlns="http://www.w3.org/2000/svg" xmlns:xlink="http://www.w3.org/1999/xlink" viewBox="0 0 624 706.72"><defs><style>.cls-1{fill:#f7bd6f;}.cls-2{fill:url(#Безымянный_градиент_10);}.cls-3{fill:url(#Безымянный_градиент_4);}.cls-4{fill:#fff;}</style><linearGradient id="Безымянный_градиент_10" x1="274.34" y1="84.66" x2="573.75" y2="422.53" gradientUnits="userSpaceOnUse"><stop offset="0" stop-color="#f4d07d"/><stop offset="0.07" stop-color="#f4cf79"/><stop offset="0.13" stop-color="#f3cb6d"/><stop offset="0.2" stop-color="#f1c459"/><stop offset="0.26" stop-color="#efbb3d"/><stop offset="0.27" stop-color="#efbb3c"/><stop offset="0.27" stop-color="#efbb3d"/><stop offset="0.33" stop-color="#f1c459"/><stop offset="0.39" stop-color="#f3cb6d"/><stop offset="0.45" stop-color="#f4cf79"/><stop offset="0.5" stop-color="#f4d07d"/><stop offset="0.55" stop-color="#f2c968"/><stop offset="0.61" stop-color="#f1c354"/><stop offset="0.68" stop-color="#f0be47"/><stop offset="0.77" stop-color="#efbc3e"/><stop offset="0.92" stop-color="#efbb3c"/></linearGradient><linearGradient id="Безымянный_градиент_4" x1="141.13" y1="241.6" x2="618.61" y2="787.29" gradientUnits="userSpaceOnUse"><stop offset="0" stop-color="#777"/><stop offset="0.14" stop-color="#949494"/><stop offset="0.25" stop-color="#aeaeaf"/><stop offset="0.3" stop-color="#9a9a9a"/><stop offset="0.38" stop-color="#818181"/><stop offset="0.47" stop-color="#6d6d6d"/><stop offset="0.57" stop-color="#5f5f60"/><stop offset="0.7" stop-color="#575757"/><stop offset="0.92" stop-color="#555"/></linearGradient></defs><path class="cls-1" d="M223.36,119V232.42H137.1V147.34A28.4,28.4,0,0,1,165.46,119Z" transform="translate(0 -83.52)"/><path class="cls-1" d="M588.55,147.34v85.08H502.28V119h57.9A28.41,28.41,0,0,1,588.55,147.34Z" transform="translate(0 -83.52)"/><rect class="cls-1" x="380.55" y="35.45" width="86.27" height="113.45"/><rect class="cls-1" x="258.82" y="35.45" width="86.28" height="113.45"/><path class="cls-2" d="M223.36,119V232.42H137.1V147.34A28.4,28.4,0,0,1,165.46,119Z" transform="translate(0 -83.52)"/><path class="cls-2" d="M588.55,147.34v85.08H502.28V119h57.9A28.41,28.41,0,0,1,588.55,147.34Z" transform="translate(0 -83.52)"/><rect class="cls-2" x="380.55" y="35.45" width="86.27" height="113.45"/><rect class="cls-2" x="258.82" y="35.45" width="86.28" height="113.45"/><path class="cls-3" d="M560.18,83.52H165.49a63.89,63.89,0,0,0-63.82,63.82v95.54L5.05,341.79a17.71,17.71,0,0,0-5,12.39v87a17.72,17.72,0,0,0,10.24,16.07l55,25.63V504.3l-55,25.63A17.72,17.72,0,0,0,0,546V726.42a63.89,63.89,0,0,0,63.82,63.82H560.18A63.89,63.89,0,0,0,624,726.42V147.34A63.89,63.89,0,0,0,560.18,83.52ZM223.36,232.42H137.1V147.34A28.4,28.4,0,0,1,165.46,119h57.9Zm121.74,0H258.82V119H345.1Zm121.72,0H380.55V119h86.27Zm121.73,0H502.28V119h57.9a28.41,28.41,0,0,1,28.37,28.37Z" transform="translate(0 -83.52)"/><path class="cls-4" d="M152,446.37l.71,8.42a21.33,21.33,0,0,1,7.68-7.09,22.08,22.08,0,0,1,10.69-2.5,19.47,19.47,0,0,1,10.47,2.7,16.71,16.71,0,0,1,6.59,8.19,22,22,0,0,1,7.66-8,20.75,20.75,0,0,1,11.06-2.88q9.42,0,14.86,6.68t5.45,20.39v37.79H210V472.21q0-7.65-2.35-10.65t-7-3A11.47,11.47,0,0,0,190,464.68c0,.64,0,1.27.06,1.91a14.62,14.62,0,0,1,.06,1.62v41.85H173V472.21q0-7.47-2.36-10.56c-1.57-2.06-3.93-3.09-7.06-3.09a13.36,13.36,0,0,0-6.09,1.32,11.75,11.75,0,0,0-4.33,3.74v46.44H136V446.37Z" transform="translate(0 -83.52)"/><path class="cls-4" d="M258.4,431.13H241.22V418.24H258.4Zm0,78.93H241.22V446.37H258.4Z" transform="translate(0 -83.52)"/><path class="cls-4" d="M299.13,498.11a9.58,9.58,0,0,0,7.13-2.68,9.71,9.71,0,0,0,2.64-7.15h15.66l.12.36a20,20,0,0,1-7.18,16.15q-7.42,6.51-18.37,6.51-14.11,0-21.83-9t-7.71-23.1v-1.77q0-14,7.68-23.1T299,445.24q11.66,0,18.77,6.71t6.88,17.61l-.12.36H308.9a12.71,12.71,0,0,0-2.61-8.21,8.8,8.8,0,0,0-7.27-3.27q-6.66,0-9.45,5.33t-2.8,13.62v1.77q0,8.47,2.8,13.71T299.13,498.11Z" transform="translate(0 -83.52)"/><path class="cls-4" d="M368.18,461.15l-6.3-.18a11.42,11.42,0,0,0-6.3,1.59,10.13,10.13,0,0,0-3.77,4.47v43H334.67V446.37h16l.76,9.42a20.23,20.23,0,0,1,5.8-7.8,12.91,12.91,0,0,1,8.21-2.79,13.57,13.57,0,0,1,2.38.2c.73.14,1.47.31,2.21.5Z" transform="translate(0 -83.52)"/><path class="cls-4" d="M373.3,477.63q0-14.25,7.94-23.34t22-9.09q14.11,0,22.13,9.06t8,23.37v1.25q0,14.37-8,23.4t-22,9q-14.13,0-22.11-9t-8-23.4Zm17.13,1.25q0,8.72,3.06,14t9.89,5.27q6.64,0,9.74-5.3t3.09-14v-1.23q0-8.47-3.12-13.83t-9.83-5.36q-6.66,0-9.74,5.39t-3.09,13.8Z" transform="translate(0 -83.52)"/><path class="cls-4" d="M491.5,487a10.31,10.31,0,0,0-3.54-8.18q-3.56-3.09-12.45-5.82-15.27-4.6-23.18-10.85t-7.91-17q0-10.85,8.91-17.72t22.72-6.88q14.67,0,23.6,7.39t8.64,19.39l-.12.36H491q0-6.6-4-10.15T475.81,434q-6.54,0-10.12,3.15a10.27,10.27,0,0,0-3.57,8.06,8.81,8.81,0,0,0,3.87,7.36q3.88,2.88,13.4,6.09,14.53,4.13,22.17,10.75t7.64,17.43q0,11.34-8.85,17.88T477,511.3q-14.23,0-24.45-7.09t-9.9-21.14l.12-.37h17.15q0,7.82,4.6,11.52T477,497.88q7.1,0,10.82-3A9.67,9.67,0,0,0,491.5,487Z" transform="translate(0 -83.52)"/><path class="cls-4" d="M522.22,510.06V421.88H553q16.18,0,26.66,10.33t10.49,26.51v14.6q0,16.24-10.49,26.51T553,510.1Zm17.7-74.59v61H553A17.28,17.28,0,0,0,567.06,490q5.33-6.52,5.33-16.7v-14.7q0-10.12-5.33-16.6A17.29,17.29,0,0,0,553,435.47Z" transform="translate(0 -83.52)"/></svg>