<?xml version="1.0" encoding="UTF-8" standalone="no"?>
<svg
   id="Слой_1"
   data-name="Слой 1"
   viewBox="0 0 488.63001 798.79998"
   version="1.1"
   sodipodi:docname="B201-slots-icon-SIM-alt.svg"
   width="488.63"
   height="798.79999"
   inkscape:version="1.2.2 (b0a84865, 2022-12-01)"
   xmlns:inkscape="http://www.inkscape.org/namespaces/inkscape"
   xmlns:sodipodi="http://sodipodi.sourceforge.net/DTD/sodipodi-0.dtd"
   xmlns:xlink="http://www.w3.org/1999/xlink"
   xmlns="http://www.w3.org/2000/svg"
   xmlns:svg="http://www.w3.org/2000/svg">
  <sodipodi:namedview
     id="namedview201"
     pagecolor="#ffffff"
     bordercolor="#000000"
     borderopacity="0.25"
     inkscape:showpageshadow="2"
     inkscape:pageopacity="0.0"
     inkscape:pagecheckerboard="0"
     inkscape:deskcolor="#d1d1d1"
     showgrid="false"
     inkscape:zoom="0.48298303"
     inkscape:cx="62.113984"
     inkscape:cy="401.67043"
     inkscape:window-width="1725"
     inkscape:window-height="970"
     inkscape:window-x="0"
     inkscape:window-y="25"
     inkscape:window-maximized="0"
     inkscape:current-layer="Слой_1" />
  <defs
     id="defs162">
    <style
       id="style132">.cls-1{fill:url(#Безымянный_градиент);}.cls-2{fill:none;}.cls-3{fill:#efbc3e;}.cls-4{fill:url(#Безымянный_градиент_15);}</style>
    <linearGradient
       id="Безымянный_градиент"
       x1="301.42001"
       y1="581.27002"
       x2="571.28998"
       y2="-417.14001"
       gradientTransform="translate(-18.12,158.97)"
       gradientUnits="userSpaceOnUse">
      <stop
         offset="0.12"
         stop-color="#eaeaea"
         id="stop134" />
      <stop
         offset="0.37"
         stop-color="#e7e7e7"
         id="stop136" />
      <stop
         offset="0.56"
         stop-color="#dededd"
         id="stop138" />
      <stop
         offset="0.72"
         stop-color="#cececd"
         id="stop140" />
      <stop
         offset="0.88"
         stop-color="#b7b7b7"
         id="stop142" />
      <stop
         offset="1"
         stop-color="#a0a09f"
         id="stop144" />
    </linearGradient>
    <linearGradient
       id="Безымянный_градиент_15"
       x1="332.54999"
       y1="96.209999"
       x2="708.90997"
       y2="386.64999"
       gradientTransform="matrix(1,0,0,-1,0,488.63)"
       gradientUnits="userSpaceOnUse">
      <stop
         offset="0.05"
         stop-color="#eaae2a"
         id="stop147" />
      <stop
         offset="0.13"
         stop-color="#ecb439"
         id="stop149" />
      <stop
         offset="0.28"
         stop-color="#f1c560"
         id="stop151" />
      <stop
         offset="0.37"
         stop-color="#f4cf79"
         id="stop153" />
      <stop
         offset="0.45"
         stop-color="#f2ca6c"
         id="stop155" />
      <stop
         offset="0.61"
         stop-color="#eebc4b"
         id="stop157" />
      <stop
         offset="0.75"
         stop-color="#eaae28"
         id="stop159" />
    </linearGradient>
    <linearGradient
       inkscape:collect="always"
       xlink:href="#%D0%91%D0%B5%D0%B7%D1%8B%D0%BC%D1%8F%D0%BD%D0%BD%D1%8B%D0%B9_%D0%B3%D1%80%D0%B0%D0%B4%D0%B8%D0%B5%D0%BD%D1%82_15"
       id="linearGradient498"
       gradientUnits="userSpaceOnUse"
       gradientTransform="matrix(1,0,0,-1,0,488.63)"
       x1="332.54999"
       y1="96.209999"
       x2="708.90997"
       y2="386.64999" />
    <linearGradient
       inkscape:collect="always"
       xlink:href="#%D0%91%D0%B5%D0%B7%D1%8B%D0%BC%D1%8F%D0%BD%D0%BD%D1%8B%D0%B9_%D0%B3%D1%80%D0%B0%D0%B4%D0%B8%D0%B5%D0%BD%D1%82_15"
       id="linearGradient500"
       gradientUnits="userSpaceOnUse"
       gradientTransform="matrix(1,0,0,-1,0,488.63)"
       x1="332.54999"
       y1="96.209999"
       x2="708.90997"
       y2="386.64999" />
    <linearGradient
       inkscape:collect="always"
       xlink:href="#%D0%91%D0%B5%D0%B7%D1%8B%D0%BC%D1%8F%D0%BD%D0%BD%D1%8B%D0%B9_%D0%B3%D1%80%D0%B0%D0%B4%D0%B8%D0%B5%D0%BD%D1%82_15"
       id="linearGradient502"
       gradientUnits="userSpaceOnUse"
       gradientTransform="matrix(1,0,0,-1,0,488.63)"
       x1="332.54999"
       y1="96.209999"
       x2="708.90997"
       y2="386.64999" />
    <linearGradient
       inkscape:collect="always"
       xlink:href="#%D0%91%D0%B5%D0%B7%D1%8B%D0%BC%D1%8F%D0%BD%D0%BD%D1%8B%D0%B9_%D0%B3%D1%80%D0%B0%D0%B4%D0%B8%D0%B5%D0%BD%D1%82_15"
       id="linearGradient504"
       gradientUnits="userSpaceOnUse"
       gradientTransform="matrix(1,0,0,-1,0,488.63)"
       x1="332.54999"
       y1="96.209999"
       x2="708.90997"
       y2="386.64999" />
    <linearGradient
       inkscape:collect="always"
       xlink:href="#%D0%91%D0%B5%D0%B7%D1%8B%D0%BC%D1%8F%D0%BD%D0%BD%D1%8B%D0%B9_%D0%B3%D1%80%D0%B0%D0%B4%D0%B8%D0%B5%D0%BD%D1%82_15"
       id="linearGradient506"
       gradientUnits="userSpaceOnUse"
       gradientTransform="matrix(1,0,0,-1,0,488.63)"
       x1="332.54999"
       y1="96.209999"
       x2="708.90997"
       y2="386.64999" />
    <linearGradient
       inkscape:collect="always"
       xlink:href="#%D0%91%D0%B5%D0%B7%D1%8B%D0%BC%D1%8F%D0%BD%D0%BD%D1%8B%D0%B9_%D0%B3%D1%80%D0%B0%D0%B4%D0%B8%D0%B5%D0%BD%D1%82_15"
       id="linearGradient508"
       gradientUnits="userSpaceOnUse"
       gradientTransform="matrix(1,0,0,-1,0,488.63)"
       x1="332.54999"
       y1="96.209999"
       x2="708.90997"
       y2="386.64999" />
    <linearGradient
       inkscape:collect="always"
       xlink:href="#%D0%91%D0%B5%D0%B7%D1%8B%D0%BC%D1%8F%D0%BD%D0%BD%D1%8B%D0%B9_%D0%B3%D1%80%D0%B0%D0%B4%D0%B8%D0%B5%D0%BD%D1%82_15"
       id="linearGradient510"
       gradientUnits="userSpaceOnUse"
       gradientTransform="matrix(1,0,0,-1,0,488.63)"
       x1="332.54999"
       y1="96.209999"
       x2="708.90997"
       y2="386.64999" />
    <linearGradient
       inkscape:collect="always"
       xlink:href="#%D0%91%D0%B5%D0%B7%D1%8B%D0%BC%D1%8F%D0%BD%D0%BD%D1%8B%D0%B9_%D0%B3%D1%80%D0%B0%D0%B4%D0%B8%D0%B5%D0%BD%D1%82_15"
       id="linearGradient512"
       gradientUnits="userSpaceOnUse"
       gradientTransform="matrix(1,0,0,-1,0,488.63)"
       x1="332.54999"
       y1="96.209999"
       x2="708.90997"
       y2="386.64999" />
  </defs>
  <g
     id="g496"
     transform="rotate(90,244.31501,244.31501)">
    <path
       class="cls-1"
       d="m 745.88,488.63 h -693 A 52.82,52.82 0 0 1 0.1,435.8 V 180.4 A 15.76,15.76 0 0 1 4.7,169.2 L 169.2,4.6 A 16.11,16.11 0 0 1 180.4,0 H 746 a 52.8,52.8 0 0 1 52.8,52.8 v 383 a 52.88,52.88 0 0 1 -52.92,52.83 z"
       id="path164"
       style="fill:url(#%D0%91%D0%B5%D0%B7%D1%8B%D0%BC%D1%8F%D0%BD%D0%BD%D1%8B%D0%B9_%D0%B3%D1%80%D0%B0%D0%B4%D0%B8%D0%B5%D0%BD%D1%82)" />
    <line
       class="cls-2"
       y1="173.89999"
       x2="173.89999"
       id="line166"
       x1="0"
       y2="0" />
    <rect
       class="cls-3"
       x="593.59998"
       y="174.60001"
       width="144.10001"
       height="61.099998"
       id="rect168" />
    <rect
       class="cls-3"
       x="593.59998"
       y="252.89999"
       width="144.10001"
       height="61.099998"
       id="rect170" />
    <rect
       class="cls-3"
       x="311.70001"
       y="174.60001"
       width="144.10001"
       height="61.099998"
       id="rect172" />
    <rect
       class="cls-3"
       x="311.70001"
       y="252.89999"
       width="144.10001"
       height="61.099998"
       id="rect174" />
    <path
       class="cls-3"
       d="m 334,392.3 a 5.66,5.66 0 0 1 -3.7,-1.6 l -17,-17 a 5.59,5.59 0 0 1 -1.5,-3.7 v -38.8 h 144 v 61.1 z"
       id="path176" />
    <path
       class="cls-3"
       d="m 334,96.43 a 5.12,5.12 0 0 0 -3.7,1.5 l -17,17 a 5.59,5.59 0 0 0 -1.5,3.7 v 38.77 h 144 V 96.3 Z"
       id="path178" />
    <path
       class="cls-3"
       d="m 715.4,96.43 a 5.12,5.12 0 0 1 3.7,1.5 l 17,17 a 5.59,5.59 0 0 1 1.5,3.7 v 38.77 h -144 V 96.3 Z"
       id="path180" />
    <path
       class="cls-3"
       d="m 736.08,373.33 -17.5,17.4 a 5.22,5.22 0 0 1 -3.7,1.6 H 487.1 v -296 h 62.7 v 236.5 h 187.9 v 36.8 a 5.24,5.24 0 0 1 -1.62,3.7 z"
       id="path182" />
    <rect
       class="cls-4"
       x="593.59998"
       y="174.60001"
       width="144.10001"
       height="61.099998"
       id="rect184"
       style="fill:url(#linearGradient498)" />
    <rect
       class="cls-4"
       x="593.59998"
       y="252.89999"
       width="144.10001"
       height="61.099998"
       id="rect186"
       style="fill:url(#linearGradient500)" />
    <rect
       class="cls-4"
       x="311.70001"
       y="174.60001"
       width="144.10001"
       height="61.099998"
       id="rect188"
       style="fill:url(#linearGradient502)" />
    <rect
       class="cls-4"
       x="311.70001"
       y="252.89999"
       width="144.10001"
       height="61.099998"
       id="rect190"
       style="fill:url(#linearGradient504)" />
    <path
       class="cls-4"
       d="m 334,392.3 a 5.66,5.66 0 0 1 -3.7,-1.6 l -17,-17 a 5.59,5.59 0 0 1 -1.5,-3.7 v -38.8 h 144 v 61.1 z"
       id="path192"
       style="fill:url(#linearGradient506)" />
    <path
       class="cls-4"
       d="m 334,96.43 a 5.12,5.12 0 0 0 -3.7,1.5 l -17,17 a 5.59,5.59 0 0 0 -1.5,3.7 v 38.77 h 144 V 96.3 Z"
       id="path194"
       style="fill:url(#linearGradient508)" />
    <path
       class="cls-4"
       d="m 715.4,96.43 a 5.12,5.12 0 0 1 3.7,1.5 l 17,17 a 5.59,5.59 0 0 1 1.5,3.7 v 38.77 h -144 V 96.3 Z"
       id="path196"
       style="fill:url(#linearGradient510)" />
    <path
       class="cls-4"
       d="m 736.08,373.33 -17.5,17.4 a 5.22,5.22 0 0 1 -3.7,1.6 H 487.1 v -296 h 62.7 v 236.5 h 187.9 v 36.8 a 5.24,5.24 0 0 1 -1.62,3.7 z"
       id="path198"
       style="fill:url(#linearGradient512)" />
  </g>
</svg>
