<svg width="63.000000" height="63.000000" viewBox="0 0 63 63" fill="none" xmlns="http://www.w3.org/2000/svg" xmlns:xlink="http://www.w3.org/1999/xlink">
	<desc>
			Created with Pixso.
	</desc>
	<defs/>
	<path id="Убрать верхний слой" d="M15.0857 14.6338L15.0857 22.2936L8 29.3789L8 47.826C8 50.7607 10.3793 53.14 13.3143 53.14L48.7427 53.14C50.0923 53.14 51.3244 52.6369 52.2617 51.808L49.9788 49.5252C49.6646 49.7209 49.2526 49.8188 48.7427 49.8188L13.3143 49.8188C12.65 49.8188 12.1518 49.6527 11.8196 49.3206C11.4875 48.9884 11.3214 48.4902 11.3214 47.826L11.3214 30.7547L17.4343 24.6421C17.59 24.4864 17.7279 24.3187 17.8479 24.1392L17.8479 24.1391C17.9679 23.9595 18.07 23.768 18.1543 23.5646C18.2386 23.3611 18.3018 23.1535 18.3439 22.9417L18.3439 22.9416C18.386 22.7298 18.4071 22.5138 18.4071 22.2936L18.4071 17.9551L15.0857 14.6338ZM50.7356 41.8274L50.7356 5.314C50.7356 4.64975 50.5695 4.15157 50.2373 3.81944C49.9052 3.48731 49.407 3.32125 48.7427 3.32125L20.3999 3.32125C20.1248 3.32125 19.8699 3.36987 19.635 3.46712L19.6349 3.46717C19.4001 3.56445 19.1853 3.71037 18.9908 3.90491C18.7962 4.09946 18.6503 4.31416 18.553 4.549C18.4557 4.78385 18.4071 5.03885 18.4071 5.314L18.4071 9.50057L15.0857 6.17932L15.0857 5.314C15.0857 2.37916 17.465 0 20.3999 0L48.7427 0C51.6776 0 54.057 2.37917 54.057 5.314L54.057 45.1487L50.7356 41.8274Z" clip-rule="evenodd" fill="#FFFFFF" fill-opacity="1.000000" fill-rule="evenodd"/>
	<path id="Прямоугольник 1" d="M21.95 5.97L25.13 5.97L25.13 15.34L21.95 12.08L21.95 5.97Z" fill="#C4C4C4" fill-opacity="1.000000" fill-rule="evenodd"/>
	<path id="Прямоугольник 1" d="M26.59 5.97L29.78 5.97L29.81 19.34L26.62 16.09L26.59 5.97Z" fill="#C4C4C4" fill-opacity="1.000000" fill-rule="evenodd"/>
	<rect id="Прямоугольник 1" x="31.249878" y="5.978241" width="3.188559" height="13.816401" fill="#C4C4C4" fill-opacity="1.000000"/>
	<rect id="Прямоугольник 1" x="35.899902" y="5.978241" width="3.188559" height="13.816401" fill="#C4C4C4" fill-opacity="1.000000"/>
	<rect id="Прямоугольник 1" x="40.549927" y="5.978241" width="3.188559" height="13.816401" fill="#C4C4C4" fill-opacity="1.000000"/>
	<rect id="Прямоугольник 1" x="45.199829" y="5.978241" width="3.188559" height="13.816401" fill="#C4C4C4" fill-opacity="1.000000"/>
	<line id="Линия 1" x1="1.000000" y1="1.000000" x2="61.000000" y2="61.000000" stroke="#FFFFFF" stroke-opacity="1.000000" stroke-width="5.000000"/>
</svg>
