<svg width="55.000000" height="53.000000" viewBox="0 0 55 53" fill="none" xmlns="http://www.w3.org/2000/svg" xmlns:xlink="http://www.w3.org/1999/xlink">
	<desc>
			Created with Pixso.
	</desc>
	<defs/>
	<path id="path" d="M45.96 48.5L7 48.5C2.85 48.5 -0.5 45.14 -0.5 41L-0.5 18.5C-0.5 14.35 2.85 11 7 11L8.46 11L0.23 2.76L3.76 -0.77L53.76 49.23L50.23 52.76L45.96 48.5ZM13.46 16L7 16C5.61 16 4.5 17.11 4.5 18.5L4.5 41C4.5 42.38 5.61 43.5 7 43.5L40.96 43.5L35.3 37.84C33.05 39.84 30.12 41 27 41C20.09 41 14.5 35.4 14.5 28.5C14.5 25.37 15.65 22.44 17.65 20.19L13.46 16ZM21.2 23.73C20.11 25.05 19.5 26.72 19.5 28.5C19.5 32.64 22.85 36 27 36C28.77 36 30.44 35.38 31.76 34.29L21.2 23.73ZM47 11C51.14 11 54.5 14.35 54.5 18.5L54.5 41L49.5 41L49.5 18.5C49.5 17.11 48.38 16 47 16L39.5 16C37.83 16 36.71 15.09 35.59 13.53C35.34 13.17 35.08 12.78 34.77 12.28C34.62 12.03 34.1 11.17 34.02 11.05C32.89 9.2 32.21 8.5 32 8.5L22 8.5C22.09 8.5 22.02 8.53 21.7 8.84C21.53 9 20.77 9.78 20.81 9.74C20.8 9.75 19.61 8.59 17.24 6.25C17.16 6.32 18 5.46 18.25 5.22C19.41 4.11 20.51 3.5 22 3.5L32 3.5C34.71 3.5 36.22 5.05 38.29 8.44C38.37 8.58 38.89 9.43 39.03 9.65C39.28 10.06 39.48 10.36 39.65 10.61C39.77 10.77 39.87 10.9 39.95 11L47 11ZM44.5 23.5C43.11 23.5 42 22.38 42 21C42 19.61 43.11 18.5 44.5 18.5C45.88 18.5 47 19.61 47 21C47 22.38 45.88 23.5 44.5 23.5Z" fill="#FFFFFF" fill-opacity="1.000000" fill-rule="evenodd"/>
</svg>
