<svg width="53.000000" height="55.000000" viewBox="0 0 53 55" fill="none" xmlns="http://www.w3.org/2000/svg" xmlns:xlink="http://www.w3.org/1999/xlink">
	<desc>
			Created with Pixso.
	</desc>
	<defs/>
	<path id="path" d="M31.07 35.61C29.59 36.49 27.85 37 26 37C20.47 37 16 32.52 16 27L16 20.53L-0.77 3.76L2.76 0.23L52.76 50.23L49.23 53.76L38.26 42.79C35.49 44.95 32.15 46.38 28.5 46.84L28.5 49.5L36 49.5L36 54.5L16 54.5L16 49.5L23.5 49.5L23.5 46.84C13.63 45.61 6 37.19 6 27L6 22L11 22L11 27C11 35.28 17.71 42 26 42C29.23 42 32.23 40.97 34.69 39.22L31.07 35.61ZM21 25.53L21 27C21 29.76 23.23 32 26 32C26.44 32 26.88 31.94 27.29 31.83L21 25.53ZM36 26.46L31 21.46L31 9.5C31 6.73 28.76 4.5 26 4.5C23.23 4.5 21 6.73 21 9.5L21 11.46L16.36 6.82C17.53 2.6 21.4 -0.5 26 -0.5C31.52 -0.5 36 3.97 36 9.5L36 26.46ZM40.47 30.94C40.81 29.68 41 28.36 41 27L41 22L46 22L46 27C46 29.79 45.42 32.44 44.39 34.86L40.47 30.94Z" fill="#FFFFFF" fill-opacity="1.000000" fill-rule="evenodd"/>
</svg>
