<svg width="55.000000" height="55.000000" viewBox="0 0 55 55" fill="none" xmlns="http://www.w3.org/2000/svg" xmlns:xlink="http://www.w3.org/1999/xlink">
	<desc>
			Created with Pixso.
	</desc>
	<defs/>
	<path id="path" d="M41.04 44.57L37.8 41.33C37.15 43.8 36.33 46.01 35.36 47.89C37.42 47.06 39.33 45.94 41.04 44.57ZM25.95 29.49L19.62 23.16C19.54 24.4 19.5 25.68 19.5 27C19.5 27.71 19.51 28.42 19.53 29.12C21.56 29.33 23.72 29.46 25.95 29.49ZM15.04 18.58L9.42 12.95C6.87 16.13 5.17 20.01 4.66 24.26C5.39 25.2 7.41 26.39 10.52 27.36C11.74 27.75 13.07 28.08 14.51 28.37C14.5 27.91 14.5 27.46 14.5 27C14.5 24.06 14.68 21.23 15.04 18.58ZM5.86 9.4L0.23 3.76L3.76 0.23L53.76 50.23L50.23 53.76L44.59 48.13C39.82 52.1 33.69 54.5 27 54.5C11.81 54.5 -0.5 42.18 -0.5 27C-0.5 20.3 1.89 14.17 5.86 9.4ZM33.59 37.12L30.84 34.38C29.58 34.46 28.29 34.5 27 34.5C24.55 34.5 22.19 34.39 19.94 34.19C21.08 43.14 24.19 49.5 27 49.5C29.49 49.5 32.21 44.5 33.59 37.12ZM46.59 38.06C47.97 35.61 48.91 32.89 49.3 29.99C47.14 31.11 44.43 32.08 41.37 32.83L34.49 25.95C34.27 13.91 30.41 4.5 27 4.5C24.99 4.5 22.84 7.72 21.36 12.82L17.4 8.86C17.78 7.88 18.19 6.96 18.63 6.1C17.7 6.47 16.8 6.91 15.93 7.4L12.29 3.75C16.54 1.06 21.59 -0.5 27 -0.5C42.18 -0.5 54.5 11.81 54.5 27C54.5 32.4 52.93 37.45 50.24 41.7L46.59 38.06ZM49.32 24.15C48.28 15.92 42.8 9.08 35.36 6.1C37.98 11.16 39.5 18.68 39.5 27C39.5 27.38 39.49 27.75 39.49 28.13C44.43 27.03 48.14 25.47 49.32 24.15ZM4.75 30.41C5.97 38.38 11.36 44.98 18.63 47.89C16.72 44.19 15.39 39.19 14.82 33.52C10.8 32.82 7.36 31.77 4.75 30.41Z" fill="#FFFFFF" fill-opacity="1.000000" fill-rule="evenodd"/>
</svg>
