<?xml version="1.0" encoding="UTF-8" standalone="no"?>
<svg
   id="Слой_1"
   data-name="Слой 1"
   viewBox="0 0 276.66 602.79999"
   version="1.1"
   sodipodi:docname="icon-battery.svg"
   width="276.66"
   height="602.79999"
   inkscape:version="1.2.2 (b0a84865, 2022-12-01)"
   xmlns:inkscape="http://www.inkscape.org/namespaces/inkscape"
   xmlns:sodipodi="http://sodipodi.sourceforge.net/DTD/sodipodi-0.dtd"
   xmlns="http://www.w3.org/2000/svg"
   xmlns:svg="http://www.w3.org/2000/svg">
  <sodipodi:namedview
     id="namedview377"
     pagecolor="#ffffff"
     bordercolor="#000000"
     borderopacity="0.25"
     inkscape:showpageshadow="2"
     inkscape:pageopacity="0.0"
     inkscape:pagecheckerboard="0"
     inkscape:deskcolor="#d1d1d1"
     showgrid="false"
     showguides="true"
     inkscape:zoom="0.30729167"
     inkscape:cx="-143.18644"
     inkscape:cy="305.89831"
     inkscape:window-width="1757"
     inkscape:window-height="824"
     inkscape:window-x="0"
     inkscape:window-y="25"
     inkscape:window-maximized="0"
     inkscape:current-layer="Слой_1" />
  <defs
     id="defs368">
    <style
       id="style366">.cls-1{fill:#fff;}</style>
  </defs>
  <path
     class="cls-1"
     d="m 276.66,108.47 v 449 a 45.39,45.39 0 0 1 -45.33,45.33 h -186 A 45.39,45.39 0 0 1 0,557.47 v -449 A 45.39,45.39 0 0 1 45.33,63.140002 h 186 A 45.39,45.39 0 0 1 276.66,108.47 Z m -256.15,449 a 24.85,24.85 0 0 0 24.82,24.82 h 186 a 24.85,24.85 0 0 0 24.82,-24.82 v -449 A 24.85,24.85 0 0 0 231.33,83.650002 h -186 A 24.85,24.85 0 0 0 20.51,108.47 Z"
     id="path370" />
  <path
     class="cls-1"
     d="m 233.49,27.530002 v 56.12 H 43.17 v -56.12 A 27.52,27.52 0 0 1 70.7,1.817521e-6 H 205.96 A 27.52,27.52 0 0 1 233.49,27.530002 Z m -20.51,35.61 v -35.61 a 7,7 0 0 0 -7,-7 H 70.7 a 7,7 0 0 0 -7,7 v 35.61 z"
     id="path372" />
  <path
     class="cls-1"
     d="m 235.89,158.48 v 349 a 35.12,35.12 0 0 1 -35.08,35.07 H 80.65 A 35.11,35.11 0 0 1 45.57,507.48 v -349 A 35.11,35.11 0 0 1 80.65,123.4 h 120.16 a 35.12,35.12 0 0 1 35.08,35.08 z m -169.81,349 a 14.57,14.57 0 0 0 14.57,14.57 h 120.16 a 14.57,14.57 0 0 0 14.57,-14.57 v 0 -349 A 14.57,14.57 0 0 0 200.81,143.91 H 80.65 a 14.57,14.57 0 0 0 -14.57,14.57 z"
     id="path374" />
</svg>
