<svg xmlns="http://www.w3.org/2000/svg" id="Слой_1" data-name="Слой 1" viewBox="124.5 127.67 1117 512.66"><defs><style>.cls-1{fill:#00cffa;}</style></defs><path class="cls-1" d="M1040.5,640.33h-832a84.09,84.09,0,0,1-84-84V211.67a84.09,84.09,0,0,1,84-84h832a84.09,84.09,0,0,1,84,84V556.33A84.09,84.09,0,0,1,1040.5,640.33Zm-832-474.66a46.05,46.05,0,0,0-46,46V556.33a46.05,46.05,0,0,0,46,46h832a46.05,46.05,0,0,0,46-46V211.67a46.05,46.05,0,0,0-46-46Z"/><path class="cls-1" d="M1190.5,560.33h-104V207.67h104a51.05,51.05,0,0,1,51,51V509.33A51.05,51.05,0,0,1,1190.5,560.33Zm-66-38h66a13,13,0,0,0,13-13V258.67a13,13,0,0,0-13-13h-66Z"/><path class="cls-1" d="M947.83,564.78H301.17a65.08,65.08,0,0,1-65-65V277.11a65.08,65.08,0,0,1,65-65H947.83a65.08,65.08,0,0,1,65,65V499.78A65.08,65.08,0,0,1,947.83,564.78ZM301.17,250.11a27,27,0,0,0-27,27V499.78a27,27,0,0,0,27,27H947.83a27,27,0,0,0,27-27V277.11a27,27,0,0,0-27-27Z"/><rect class="cls-1" x="603.83" y="222.22" width="38" height="314.67"/><rect class="cls-1" x="418.33" y="231.11" width="38" height="314.67"/><rect class="cls-1" x="789.33" y="231.11" width="38" height="314.67"/></svg>