<svg xmlns="http://www.w3.org/2000/svg" viewBox="0 0 770.18 131.07"><defs><style>.cls-1{fill:#fff;}</style></defs><title>maxvi-logo-white</title><g id="Слой_2" data-name="Слой 2"><g id="Layer_2" data-name="Layer 2"><path class="cls-1" d="M0,128S28.24,12.61,29.07,10.19A14.25,14.25,0,0,1,43,.31c8.48.06,13.17,8.94,15.4,13.17S93.17,81.55,93.17,81.55L78.51,110.37,45.22,47.52,28.7,128Z"/><path class="cls-1" d="M86.46,118.7,142.17,10.25S148.32,0,155.4,0c9.19,0,13.54,7.27,15.16,12.61-2.48,6.15-57.27,111.3-57.27,111.3s-4.6,6.09-11.8,6.09S87.58,122.67,86.46,118.7Z"/><polygon class="cls-1" points="177.64 24.78 160.25 58.32 175.03 128.26 202.61 128.26 177.64 24.78"/><path class="cls-1" d="M299.86,39.08l-56.12,91h-32.6L283.37,10.7S290.78.09,300.63.09s15,8.31,16.49,10.61,72.09,119.39,72.09,119.39H355.08L333.73,95.2,279,95.32l16.36-26.59h22.75Z"/><polygon class="cls-1" points="388.9 0.09 425.45 0.09 465.08 40.49 446.8 59.53 388.9 0.09"/><polygon class="cls-1" points="518.98 0.22 393.48 129.86 431.33 130.09 474.8 85.74 517.75 130.09 555.71 130.09 492.48 65.27 555.71 0.22 518.98 0.22"/><polygon class="cls-1" points="557.23 1.07 625 109.85 640.81 84.24 590.86 1.07 557.23 1.07"/><path class="cls-1" d="M703.88,1.07h32.88l-77,123s-4.29,7-11.1,7a11.74,11.74,0,0,1-7.82-3.36c-2.56-2.73-7.48-8.7-7.48-8.7Z"/><polygon class="cls-1" points="743.72 0.12 770.01 0.12 770.18 130.12 743.72 130.12 743.72 0.12"/></g></g></svg>