<svg xmlns="http://www.w3.org/2000/svg" viewBox="0 0 42.52 26.96"><defs><style>.cls-1{fill:#fff;}</style></defs><title>t12-powerbank-icon</title><g id="Слой_2" data-name="Слой 2"><g id="Слой_3" data-name="Слой 3"><rect class="cls-1" x="39.91" y="15.55" width="2.61" height="6.75" rx="1.31" ry="1.31"/><path class="cls-1" d="M25.88,25.15a.64.64,0,0,1-.64-.64V13.57a.64.64,0,1,1,1.29,0V24.5A.64.64,0,0,1,25.88,25.15Z"/><path class="cls-1" d="M27.82,25.15a.64.64,0,0,1-.64-.64V13.57a.64.64,0,1,1,1.29,0V24.5A.64.64,0,0,1,27.82,25.15Z"/><path class="cls-1" d="M29.75,25.15a.64.64,0,0,1-.64-.64V13.57a.64.64,0,1,1,1.29,0V24.5A.64.64,0,0,1,29.75,25.15Z"/><path class="cls-1" d="M31.69,25.15A.64.64,0,0,1,31,24.5V13.57a.64.64,0,1,1,1.29,0V24.5A.64.64,0,0,1,31.69,25.15Z"/><path class="cls-1" d="M33.62,25.15A.64.64,0,0,1,33,24.5V13.57a.64.64,0,1,1,1.29,0V24.5A.64.64,0,0,1,33.62,25.15Z"/><path class="cls-1" d="M38.42,27H11.79a2.13,2.13,0,0,1-2.13-2.13V13a2.13,2.13,0,0,1,2.13-2.13H38.42A2.13,2.13,0,0,1,40.55,13V24.83A2.13,2.13,0,0,1,38.42,27ZM11.79,12.18a.84.84,0,0,0-.84.84V24.83a.84.84,0,0,0,.84.84H38.42a.84.84,0,0,0,.84-.84V13a.84.84,0,0,0-.84-.84Z"/><polygon class="cls-1" points="27.26 0 22.82 5.22 25.23 5.36 22.82 9.69 27.4 4.37 24.93 4.42 27.26 0"/><path class="cls-1" d="M23.9,14.77H18.56v-.28a.64.64,0,0,0-.64-.64H9.81a2.59,2.59,0,0,0-2.58,2.58v.37H5.08a.87.87,0,0,0-.87.87v.61H.64a.64.64,0,1,0,0,1.29H4.21v.61a.87.87,0,0,0,.87.87H7.23v.37A2.59,2.59,0,0,0,9.81,24h8.11a.64.64,0,0,0,.64-.64v-.28H23.9a.78.78,0,0,0,.78-.78V15.54A.78.78,0,0,0,23.9,14.77ZM21,21.05H19.74a.64.64,0,0,1,0-1.29H21a.64.64,0,0,1,0,1.29Zm0-3H19.74a.64.64,0,0,1,0-1.29H21a.64.64,0,0,1,0,1.29Z"/><path class="cls-1" d="M13,13.52a.63.63,0,0,0-1.27,0Z"/><path class="cls-1" d="M12.34,25.15A.64.64,0,0,0,13,24.5H11.69A.64.64,0,0,0,12.34,25.15Z"/><path class="cls-1" d="M14.9,13.52a.63.63,0,0,0-1.27,0Z"/><path class="cls-1" d="M14.27,25.15a.64.64,0,0,0,.64-.64H13.63A.64.64,0,0,0,14.27,25.15Z"/><path class="cls-1" d="M16.84,13.52a.63.63,0,0,0-1.27,0Z"/><path class="cls-1" d="M16.21,25.15a.64.64,0,0,0,.64-.64H15.56A.64.64,0,0,0,16.21,25.15Z"/><path class="cls-1" d="M18.77,13.52a.63.63,0,0,0-1.27,0Z"/><path class="cls-1" d="M18.14,25.15a.64.64,0,0,0,.64-.64H17.5A.64.64,0,0,0,18.14,25.15Z"/><path class="cls-1" d="M20.72,14.08v-.51a.64.64,0,0,0-1.29,0v.51Z"/><path class="cls-1" d="M19.43,23.94v.56a.64.64,0,1,0,1.29,0v-.56Z"/><path class="cls-1" d="M22.66,14.08v-.51a.64.64,0,0,0-1.29,0v.51Z"/><path class="cls-1" d="M21.37,23.94v.56a.64.64,0,1,0,1.29,0v-.56Z"/><path class="cls-1" d="M23.31,23.94v.56a.64.64,0,1,0,1.29,0v-.56Z"/><path class="cls-1" d="M24.59,14.08v-.51a.64.64,0,0,0-1.29,0v.51Z"/></g></g></svg>