<svg id="Слой_1" data-name="Слой 1" xmlns="http://www.w3.org/2000/svg" xmlns:xlink="http://www.w3.org/1999/xlink" viewBox="0 0 835.04 506.66"><defs><style>.cls-1{fill:url(#Безымянный_градиент);}.cls-2{fill:none;}.cls-3{fill:#e0b700;}.cls-4{fill:url(#Безымянный_градиент_2);}.cls-5{fill:url(#Безымянный_градиент_3);}.cls-6{fill:url(#Безымянный_градиент_4);}.cls-7{fill:url(#Безымянный_градиент_5);}.cls-8{fill:url(#Безымянный_градиент_6);}.cls-9{fill:url(#Безымянный_градиент_7);}.cls-10{fill:url(#Безымянный_градиент_8);}.cls-11{fill:url(#Безымянный_градиент_9);}</style><linearGradient id="Безымянный_градиент" x1="301.41" y1="751.27" x2="571.28" y2="-247.14" gradientTransform="matrix(1, 0, 0, -1, 0, 508.66)" gradientUnits="userSpaceOnUse"><stop offset="0.12" stop-color="#eaeaea"/><stop offset="0.37" stop-color="#e7e7e7"/><stop offset="0.56" stop-color="#dededd"/><stop offset="0.72" stop-color="#cececd"/><stop offset="0.88" stop-color="#b7b7b7"/><stop offset="1" stop-color="#a0a09f"/></linearGradient><linearGradient id="Безымянный_градиент_2" x1="521.17" y1="611.83" x2="691.54" y2="39.25" gradientTransform="matrix(1, 0, 0, -1, 0, 508.66)" gradientUnits="userSpaceOnUse"><stop offset="0" stop-color="#685402"/><stop offset="0.53" stop-color="#e0b700"/><stop offset="0.6" stop-color="#dbb300"/><stop offset="0.69" stop-color="#cca600"/><stop offset="0.79" stop-color="#b39201"/><stop offset="0.9" stop-color="#907501"/><stop offset="1" stop-color="#685402"/></linearGradient><linearGradient id="Безымянный_градиент_3" x1="562.4" y1="624.1" x2="732.77" y2="51.52" xlink:href="#Безымянный_градиент_2"/><linearGradient id="Безымянный_градиент_4" x1="583.8" y1="630.47" x2="754.17" y2="57.89" xlink:href="#Безымянный_градиент_2"/><linearGradient id="Безымянный_градиент_5" x1="303.42" y1="547.04" x2="473.79" y2="-25.54" xlink:href="#Безымянный_градиент_2"/><linearGradient id="Безымянный_градиент_6" x1="324.83" y1="553.41" x2="495.2" y2="-19.17" xlink:href="#Безымянный_градиент_2"/><linearGradient id="Безымянный_градиент_7" x1="346.28" y1="559.79" x2="516.65" y2="-12.79" xlink:href="#Безымянный_градиент_2"/><linearGradient id="Безымянный_градиент_8" x1="285.02" y1="541.57" x2="455.39" y2="-31.01" xlink:href="#Безымянный_градиент_2"/><linearGradient id="Безымянный_градиент_9" x1="540.95" y1="617.72" x2="711.32" y2="45.14" xlink:href="#Безымянный_градиент_2"/></defs><path class="cls-1" d="M816.92,61.83v383a52.8,52.8,0,0,1-52.8,52.8H198.52a16.13,16.13,0,0,1-11.2-4.6L22.82,328.43a15.76,15.76,0,0,1-4.6-11.2V61.83A52.81,52.81,0,0,1,71,9H764A52.89,52.89,0,0,1,816.92,61.83Z"/><line class="cls-2" x1="192.02" y1="497.63" x2="18.12" y2="323.73"/><path class="cls-3" d="M755.82,128v36.8H567.92v236.5h-62.7v-296H733a5.22,5.22,0,0,1,3.7,1.6l17.5,17.4A5.22,5.22,0,0,1,755.82,128Z"/><rect class="cls-3" x="611.72" y="261.93" width="144.1" height="61.1"/><rect class="cls-3" x="611.72" y="183.63" width="144.1" height="61.1"/><rect class="cls-3" x="329.82" y="261.93" width="144.1" height="61.1"/><rect class="cls-3" x="329.82" y="183.63" width="144.1" height="61.1"/><path class="cls-3" d="M473.92,105.33v61.1h-144v-38.8a5.61,5.61,0,0,1,1.5-3.7l17-17a5.66,5.66,0,0,1,3.7-1.6Z"/><path class="cls-3" d="M473.92,401.33v-61.1h-144V379a5.57,5.57,0,0,0,1.5,3.7l17,17a5.14,5.14,0,0,0,3.7,1.5Z"/><path class="cls-3" d="M611.72,401.33v-61.1h144V379a5.57,5.57,0,0,1-1.5,3.7l-17,17a5.12,5.12,0,0,1-3.7,1.5Z"/><path class="cls-4" d="M755.82,128v36.8H567.92v236.5h-62.7v-296H733a5.22,5.22,0,0,1,3.7,1.6l17.5,17.4A5.22,5.22,0,0,1,755.82,128Z"/><rect class="cls-5" x="611.72" y="261.93" width="144.1" height="61.1"/><rect class="cls-6" x="611.72" y="183.63" width="144.1" height="61.1"/><rect class="cls-7" x="329.82" y="261.93" width="144.1" height="61.1"/><rect class="cls-8" x="329.82" y="183.63" width="144.1" height="61.1"/><path class="cls-9" d="M473.92,105.33v61.1h-144v-38.8a5.61,5.61,0,0,1,1.5-3.7l17-17a5.66,5.66,0,0,1,3.7-1.6Z"/><path class="cls-10" d="M473.92,401.33v-61.1h-144V379a5.57,5.57,0,0,0,1.5,3.7l17,17a5.14,5.14,0,0,0,3.7,1.5Z"/><path class="cls-11" d="M611.72,401.33v-61.1h144V379a5.57,5.57,0,0,1-1.5,3.7l-17,17a5.12,5.12,0,0,1-3.7,1.5Z"/></svg>