<?xml version="1.0" encoding="UTF-8" standalone="no"?>
<svg
   id="Слой_1"
   data-name="Слой 1"
   viewBox="0 0 799.94 343.32001"
   version="1.1"
   sodipodi:docname="icon-type-c.svg"
   width="799.94"
   height="343.32001"
   inkscape:version="1.2.2 (b0a84865, 2022-12-01)"
   xmlns:inkscape="http://www.inkscape.org/namespaces/inkscape"
   xmlns:sodipodi="http://sodipodi.sourceforge.net/DTD/sodipodi-0.dtd"
   xmlns="http://www.w3.org/2000/svg"
   xmlns:svg="http://www.w3.org/2000/svg">
  <sodipodi:namedview
     id="namedview141"
     pagecolor="#ffffff"
     bordercolor="#000000"
     borderopacity="0.25"
     inkscape:showpageshadow="2"
     inkscape:pageopacity="0.0"
     inkscape:pagecheckerboard="0"
     inkscape:deskcolor="#d1d1d1"
     showgrid="false"
     inkscape:zoom="0.236"
     inkscape:cx="23.305085"
     inkscape:cy="194.91525"
     inkscape:window-width="1440"
     inkscape:window-height="456"
     inkscape:window-x="0"
     inkscape:window-y="25"
     inkscape:window-maximized="0"
     inkscape:current-layer="Слой_1" />
  <defs
     id="defs134">
    <style
       id="style132">.cls-1{fill:#6e7a87;}</style>
  </defs>
  <path
     class="cls-1"
     d="M 656.71,343.32 H 143.23 C 64.23,343.32 0,279.06 0,200.08 V 143.24 C 0,64.24 64.25,0 143.23,0 h 513.48 c 79,0 143.23,64.26 143.23,143.24 v 56.84 c 0.03,78.98 -64.25,143.24 -143.23,143.24 z M 143.23,45.67 a 97.69,97.69 0 0 0 -97.58,97.57 v 56.84 a 97.69,97.69 0 0 0 97.58,97.57 h 513.48 a 97.69,97.69 0 0 0 97.58,-97.57 V 143.24 A 97.69,97.69 0 0 0 656.71,45.67 Z"
     id="path136" />
  <rect
     class="cls-1"
     x="130.69"
     y="-655.5"
     width="81.93"
     height="511.04999"
     rx="39.91"
     transform="rotate(90)"
     id="rect138" />
</svg>
