<?xml version="1.0" encoding="UTF-8" standalone="no"?>
<svg
   viewBox="0 0 770.18001 131.07"
   fill="#ffffff"
   version="1.1"
   id="svg134"
   width="770.17999"
   height="131.07001"
   sodipodi:docname="logo-maxvi.svg"
   inkscape:version="1.2.2 (b0a84865, 2022-12-01)"
   xmlns:inkscape="http://www.inkscape.org/namespaces/inkscape"
   xmlns:sodipodi="http://sodipodi.sourceforge.net/DTD/sodipodi-0.dtd"
   xmlns="http://www.w3.org/2000/svg"
   xmlns:svg="http://www.w3.org/2000/svg">
  <sodipodi:namedview
     id="namedview135"
     pagecolor="#ffffff"
     bordercolor="#000000"
     borderopacity="0.25"
     inkscape:showpageshadow="2"
     inkscape:pageopacity="0.0"
     inkscape:pagecheckerboard="0"
     inkscape:deskcolor="#d1d1d1"
     showgrid="false"
     inkscape:zoom="0.30642188"
     inkscape:cx="-463.41338"
     inkscape:cy="89.74555"
     inkscape:window-width="1755"
     inkscape:window-height="853"
     inkscape:window-x="0"
     inkscape:window-y="25"
     inkscape:window-maximized="0"
     inkscape:current-layer="svg134" />
  <defs
     id="defs138" />
  <path
     d="M 0,128 29.07,10.19 A 14.25,14.25 0 0 1 43,0.31 c 8.48,0.06 13.17,8.94 15.4,13.17 L 93.17,81.55 78.51,110.37 45.22,47.52 28.7,128 Z m 86.46,-9.3 55.71,-108.45 c 0,0 6.15,-10.25 13.23,-10.25 9.19,0 13.54,7.27 15.16,12.61 -2.48,6.15 -57.27,111.3 -57.27,111.3 0,0 -4.6,6.09 -11.8,6.09 -7.2,0 -13.91,-7.33 -15.03,-11.3 z m 91.18,-93.92 -17.39,33.54 14.78,69.94 h 27.58 z m 122.22,14.3 -56.12,91 h -32.6 L 283.37,10.7 c 0,0 7.41,-10.61 17.26,-10.61 9.85,0 15,8.31 16.49,10.61 1.49,2.3 72.09,119.39 72.09,119.39 H 355.08 L 333.73,95.2 279,95.32 295.36,68.73 h 22.75 z M 388.9,0.09 h 36.55 l 39.63,40.4 -18.28,19.04 z m 130.08,0.13 -125.5,129.64 37.85,0.23 43.47,-44.35 42.95,44.35 h 37.96 L 492.48,65.27 555.71,0.22 Z M 557.23,1.07 625,109.85 640.81,84.24 590.86,1.07 Z m 146.65,0 h 32.88 l -77,123 c 0,0 -4.29,7 -11.1,7 a 11.74,11.74 0 0 1 -7.82,-3.36 c -2.56,-2.73 -7.48,-8.7 -7.48,-8.7 z m 39.84,-0.95 h 26.29 l 0.17,130 h -26.46 z"
     id="path132"
     style="fill:#000000" />
</svg>
