<?xml version="1.0" encoding="UTF-8" standalone="no"?>
<svg
   viewBox="0 0 770.18 131.07"
   fill="#fff"
   version="1.1"
   id="svg134"
   sodipodi:docname="logo-maxvi.svg"
   inkscape:version="1.2.2 (b0a84865, 2022-12-01)"
   xmlns:inkscape="http://www.inkscape.org/namespaces/inkscape"
   xmlns:sodipodi="http://sodipodi.sourceforge.net/DTD/sodipodi-0.dtd"
   xmlns="http://www.w3.org/2000/svg"
   xmlns:svg="http://www.w3.org/2000/svg">
  <defs
     id="defs138" />
  <sodipodi:namedview
     id="namedview136"
     pagecolor="#ffffff"
     bordercolor="#000000"
     borderopacity="0.25"
     inkscape:showpageshadow="2"
     inkscape:pageopacity="0.0"
     inkscape:pagecheckerboard="0"
     inkscape:deskcolor="#d1d1d1"
     showgrid="false"
     inkscape:zoom="0.71671741"
     inkscape:cx="282.53813"
     inkscape:cy="79.529253"
     inkscape:window-width="1389"
     inkscape:window-height="708"
     inkscape:window-x="0"
     inkscape:window-y="25"
     inkscape:window-maximized="0"
     inkscape:current-layer="svg134" />
  <path
     d="M0 128L29.07 10.19A14.25 14.25 0 0 1 43 .31c8.48.06 13.17 8.94 15.4 13.17l34.77 68.07-14.66 28.82-33.29-62.85L28.7 128zm86.46-9.3l55.71-108.45S148.32 0 155.4 0c9.19 0 13.54 7.27 15.16 12.61-2.48 6.15-57.27 111.3-57.27 111.3s-4.6 6.09-11.8 6.09-13.91-7.33-15.03-11.3zm91.18-93.92l-17.39 33.54 14.78 69.94h27.58L177.64 24.78zm122.22 14.3l-56.12 91h-32.6L283.37 10.7S290.78.09 300.63.09s15 8.31 16.49 10.61 72.09 119.39 72.09 119.39h-34.13L333.73 95.2l-54.73.12 16.36-26.59h22.75zM388.9.09h36.55l39.63 40.4-18.28 19.04L388.9.09zm130.08.13l-125.5 129.64 37.85.23 43.47-44.35 42.95 44.35h37.96l-63.23-64.82L555.71.22h-36.73zm38.25.85L625 109.85l15.81-25.61-49.95-83.17h-33.63zm146.65 0h32.88l-77 123s-4.29 7-11.1 7a11.74 11.74 0 0 1-7.82-3.36c-2.56-2.73-7.48-8.7-7.48-8.7zm39.84-.95h26.29l.17 130h-26.46V.12z"
     id="path132"
     style="fill:#ffffff" />
</svg>
