<?xml version="1.0" encoding="UTF-8" standalone="no"?>
<svg
   id="Слой_1"
   data-name="Слой 1"
   viewBox="0 0 798.79999 488.60001"
   version="1.1"
   sodipodi:docname="SIM.svg"
   width="798.79999"
   height="488.60001"
   inkscape:version="1.2.2 (b0a84865, 2022-12-01)"
   xmlns:inkscape="http://www.inkscape.org/namespaces/inkscape"
   xmlns:sodipodi="http://sodipodi.sourceforge.net/DTD/sodipodi-0.dtd"
   xmlns:xlink="http://www.w3.org/1999/xlink"
   xmlns="http://www.w3.org/2000/svg"
   xmlns:svg="http://www.w3.org/2000/svg">
  <sodipodi:namedview
     id="namedview483"
     pagecolor="#ffffff"
     bordercolor="#000000"
     borderopacity="0.25"
     inkscape:showpageshadow="2"
     inkscape:pageopacity="0.0"
     inkscape:pagecheckerboard="0"
     inkscape:deskcolor="#d1d1d1"
     showgrid="false"
     inkscape:zoom="0.30179028"
     inkscape:cx="107.69068"
     inkscape:cy="245.20339"
     inkscape:window-width="1534"
     inkscape:window-height="456"
     inkscape:window-x="-1"
     inkscape:window-y="25"
     inkscape:window-maximized="0"
     inkscape:current-layer="Слой_1" />
  <defs
     id="defs444">
    <style
       id="style414">.cls-1{fill:url(#Безымянный_градиент_27);}.cls-2{fill:none;}.cls-3{fill:#e0b700;}.cls-4{fill:url(#Безымянный_градиент_28);}</style>
    <linearGradient
       id="Безымянный_градиент_27"
       x1="483.89001"
       y1="-104.94"
       x2="753.76001"
       y2="893.46997"
       gradientUnits="userSpaceOnUse"
       gradientTransform="translate(-200.60001,-146.7)">
      <stop
         offset="0.12"
         stop-color="#eaeaea"
         id="stop416" />
      <stop
         offset="0.37"
         stop-color="#e7e7e7"
         id="stop418" />
      <stop
         offset="0.56"
         stop-color="#dededd"
         id="stop420" />
      <stop
         offset="0.72"
         stop-color="#cececd"
         id="stop422" />
      <stop
         offset="0.88"
         stop-color="#b7b7b7"
         id="stop424" />
      <stop
         offset="1"
         stop-color="#a0a09f"
         id="stop426" />
    </linearGradient>
    <linearGradient
       id="Безымянный_градиент_28"
       x1="626.08002"
       y1="57.580002"
       x2="796.45001"
       y2="630.15997"
       gradientUnits="userSpaceOnUse">
      <stop
         offset="0"
         stop-color="#685402"
         id="stop429" />
      <stop
         offset="0.53"
         stop-color="#e0b700"
         id="stop431" />
      <stop
         offset="0.6"
         stop-color="#dbb300"
         id="stop433" />
      <stop
         offset="0.69"
         stop-color="#cca600"
         id="stop435" />
      <stop
         offset="0.79"
         stop-color="#b39201"
         id="stop437" />
      <stop
         offset="0.9"
         stop-color="#907501"
         id="stop439" />
      <stop
         offset="1"
         stop-color="#685402"
         id="stop441" />
    </linearGradient>
    <linearGradient
       inkscape:collect="always"
       xlink:href="#Безымянный_градиент_28"
       id="linearGradient602"
       gradientUnits="userSpaceOnUse"
       x1="626.08002"
       y1="57.580002"
       x2="796.45001"
       y2="630.15997"
       gradientTransform="translate(-200.60001,-146.7)" />
    <linearGradient
       inkscape:collect="always"
       xlink:href="#Безымянный_градиент_28"
       id="linearGradient604"
       gradientUnits="userSpaceOnUse"
       x1="626.08002"
       y1="57.580002"
       x2="796.45001"
       y2="630.15997"
       gradientTransform="translate(-200.60001,-146.7)" />
    <linearGradient
       inkscape:collect="always"
       xlink:href="#Безымянный_градиент_28"
       id="linearGradient606"
       gradientUnits="userSpaceOnUse"
       x1="626.08002"
       y1="57.580002"
       x2="796.45001"
       y2="630.15997"
       gradientTransform="translate(-200.60001,-146.7)" />
    <linearGradient
       inkscape:collect="always"
       xlink:href="#Безымянный_градиент_28"
       id="linearGradient608"
       gradientUnits="userSpaceOnUse"
       x1="626.08002"
       y1="57.580002"
       x2="796.45001"
       y2="630.15997"
       gradientTransform="translate(-200.60001,-146.7)" />
    <linearGradient
       inkscape:collect="always"
       xlink:href="#Безымянный_градиент_28"
       id="linearGradient610"
       gradientUnits="userSpaceOnUse"
       x1="626.08002"
       y1="57.580002"
       x2="796.45001"
       y2="630.15997"
       gradientTransform="translate(-200.60001,-146.7)" />
    <linearGradient
       inkscape:collect="always"
       xlink:href="#Безымянный_градиент_28"
       id="linearGradient612"
       gradientUnits="userSpaceOnUse"
       x1="626.08002"
       y1="57.580002"
       x2="796.45001"
       y2="630.15997"
       gradientTransform="translate(-200.60001,-146.7)" />
    <linearGradient
       inkscape:collect="always"
       xlink:href="#Безымянный_градиент_28"
       id="linearGradient614"
       gradientUnits="userSpaceOnUse"
       x1="626.08002"
       y1="57.580002"
       x2="796.45001"
       y2="630.15997"
       gradientTransform="translate(-200.60001,-146.7)" />
    <linearGradient
       inkscape:collect="always"
       xlink:href="#Безымянный_градиент_28"
       id="linearGradient616"
       gradientUnits="userSpaceOnUse"
       x1="626.08002"
       y1="57.580002"
       x2="796.45001"
       y2="630.15997"
       gradientTransform="translate(-200.60001,-146.7)" />
  </defs>
  <path
     class="cls-1"
     d="m 798.79999,52.8 v 383 a 52.81,52.81 0 0 1 -52.8,52.8 h -565.6 a 16.16,16.16 0 0 1 -11.2,-4.6 L 4.6999939,319.4 a 15.73,15.73 0 0 1 -4.6,-11.2 V 52.8 A 52.81,52.81 0 0 1 52.899994,0 H 745.89999 a 52.9,52.9 0 0 1 52.9,52.8 z"
     id="path446"
     style="fill:url(#%D0%91%D0%B5%D0%B7%D1%8B%D0%BC%D1%8F%D0%BD%D0%BD%D1%8B%D0%B9_%D0%B3%D1%80%D0%B0%D0%B4%D0%B8%D0%B5%D0%BD%D1%82_27)" />
  <line
     class="cls-2"
     x1="173.89999"
     y1="488.59998"
     x2="0"
     y2="314.69998"
     id="line448" />
  <path
     class="cls-3"
     d="m 737.69999,119 v 36.8 h -187.9 v 236.5 h -62.7 v -296 h 227.8 a 5.23,5.23 0 0 1 3.7,1.6 l 17.5,17.4 a 5.23,5.23 0 0 1 1.6,3.7 z"
     id="path450" />
  <rect
     class="cls-3"
     x="593.59998"
     y="252.90001"
     width="144.10001"
     height="61.099998"
     id="rect452" />
  <rect
     class="cls-3"
     x="593.59998"
     y="174.59999"
     width="144.10001"
     height="61.099998"
     id="rect454" />
  <rect
     class="cls-3"
     x="311.69998"
     y="252.90001"
     width="144.10001"
     height="61.099998"
     id="rect456" />
  <rect
     class="cls-3"
     x="311.69998"
     y="174.59999"
     width="144.10001"
     height="61.099998"
     id="rect458" />
  <path
     class="cls-3"
     d="m 455.79999,96.3 v 61.1 h -144 v -38.8 a 5.58,5.58 0 0 1 1.5,-3.7 l 17,-17 a 5.68,5.68 0 0 1 3.7,-1.6 z"
     id="path460" />
  <path
     class="cls-3"
     d="m 455.79999,392.3 v -61.1 h -144 V 370 a 5.58,5.58 0 0 0 1.5,3.7 l 17,17 a 5.14,5.14 0 0 0 3.7,1.5 z"
     id="path462" />
  <path
     class="cls-3"
     d="m 593.59999,392.3 v -61.1 h 144 V 370 a 5.58,5.58 0 0 1 -1.5,3.7 l -17,17 a 5.14,5.14 0 0 1 -3.7,1.5 z"
     id="path464" />
  <path
     class="cls-4"
     d="m 737.69999,119 v 36.8 h -187.9 v 236.5 h -62.7 v -296 h 227.8 a 5.23,5.23 0 0 1 3.7,1.6 l 17.5,17.4 a 5.23,5.23 0 0 1 1.6,3.7 z"
     id="path466"
     style="fill:url(#linearGradient602)" />
  <rect
     class="cls-4"
     x="593.59998"
     y="252.90001"
     width="144.10001"
     height="61.099998"
     id="rect468"
     style="fill:url(#linearGradient604)" />
  <rect
     class="cls-4"
     x="593.59998"
     y="174.59999"
     width="144.10001"
     height="61.099998"
     id="rect470"
     style="fill:url(#linearGradient606)" />
  <rect
     class="cls-4"
     x="311.69998"
     y="252.90001"
     width="144.10001"
     height="61.099998"
     id="rect472"
     style="fill:url(#linearGradient608)" />
  <rect
     class="cls-4"
     x="311.69998"
     y="174.59999"
     width="144.10001"
     height="61.099998"
     id="rect474"
     style="fill:url(#linearGradient610)" />
  <path
     class="cls-4"
     d="m 455.79999,96.3 v 61.1 h -144 v -38.8 a 5.58,5.58 0 0 1 1.5,-3.7 l 17,-17 a 5.68,5.68 0 0 1 3.7,-1.6 z"
     id="path476"
     style="fill:url(#linearGradient612)" />
  <path
     class="cls-4"
     d="m 455.79999,392.3 v -61.1 h -144 V 370 a 5.58,5.58 0 0 0 1.5,3.7 l 17,17 a 5.14,5.14 0 0 0 3.7,1.5 z"
     id="path478"
     style="fill:url(#linearGradient614)" />
  <path
     class="cls-4"
     d="m 593.59999,392.3 v -61.1 h 144 V 370 a 5.58,5.58 0 0 1 -1.5,3.7 l -17,17 a 5.14,5.14 0 0 1 -3.7,1.5 z"
     id="path480"
     style="fill:url(#linearGradient616)" />
</svg>
