<?xml version="1.0" encoding="UTF-8" standalone="no"?>
<svg
   id="Слой_1"
   data-name="Слой 1"
   viewBox="0 0 624 706.71997"
   version="1.1"
   sodipodi:docname="карта памяти.svg"
   width="624"
   height="706.71997"
   inkscape:version="1.2.2 (b0a84865, 2022-12-01)"
   xmlns:inkscape="http://www.inkscape.org/namespaces/inkscape"
   xmlns:sodipodi="http://sodipodi.sourceforge.net/DTD/sodipodi-0.dtd"
   xmlns="http://www.w3.org/2000/svg"
   xmlns:svg="http://www.w3.org/2000/svg">
  <sodipodi:namedview
     id="namedview170"
     pagecolor="#ffffff"
     bordercolor="#000000"
     borderopacity="0.25"
     inkscape:showpageshadow="2"
     inkscape:pageopacity="0.0"
     inkscape:pagecheckerboard="0"
     inkscape:deskcolor="#d1d1d1"
     showgrid="false"
     inkscape:zoom="0.30179028"
     inkscape:cx="64.614407"
     inkscape:cy="354.55085"
     inkscape:window-width="1688"
     inkscape:window-height="456"
     inkscape:window-x="0"
     inkscape:window-y="25"
     inkscape:window-maximized="0"
     inkscape:current-layer="Слой_1" />
  <defs
     id="defs137">
    <style
       id="style132">.cls-1{fill:none;}.cls-2{fill:#e0b700;}.cls-3{fill:#41568a;}.cls-4{clip-path:url(#clip-path);}.cls-5{fill:#fff;}</style>
    <clipPath
       id="clip-path">
      <path
         class="cls-1"
         d="m 424.79,55.37 h 394.72 a 46.09,46.09 0 0 1 46.09,46.09 V 542.27 H 378.7 V 101.46 a 46.09,46.09 0 0 1 46.09,-46.09 z"
         id="path134" />
    </clipPath>
  </defs>
  <path
     class="cls-2"
     d="m 165.46,17.73 h 394.72 a 46.09,46.09 0 0 1 46.09,46.09 V 504.63 H 119.37 V 63.82 a 46.09,46.09 0 0 1 46.09,-46.09 z"
     id="path139" />
  <path
     class="cls-3"
     d="m 606.27,522.36 h -486.9 a 17.73,17.73 0 0 1 -17.7,-17.73 V 63.82 A 63.89,63.89 0 0 1 165.49,0 H 560.18 A 63.89,63.89 0 0 1 624,63.82 v 440.81 a 17.73,17.73 0 0 1 -17.73,17.73 z M 137.1,486.9 H 588.55 V 63.82 A 28.41,28.41 0 0 0 560.18,35.45 H 165.46 A 28.4,28.4 0 0 0 137.1,63.82 Z"
     id="path141" />
  <g
     class="cls-4"
     clip-path="url(#clip-path)"
     id="g149"
     transform="translate(-259.33,-37.64)">
    <path
       class="cls-3"
       d="m 518.15,-28.15 v 816.24 a 17.73,17.73 0 1 1 -35.46,0 V -28.15 a 17.73,17.73 0 0 1 17.73,-17.73 17.73,17.73 0 0 1 17.73,17.73 z"
       id="path143" />
    <path
       class="cls-3"
       d="m 639.88,-28.15 v 816.24 a 17.73,17.73 0 1 1 -35.45,0 V -28.15 a 17.73,17.73 0 0 1 17.72,-17.73 17.72,17.72 0 0 1 17.73,17.73 z"
       id="path145" />
    <path
       class="cls-3"
       d="m 761.61,-28.15 v 816.24 a 17.73,17.73 0 0 1 -35.46,0 V -28.15 a 17.73,17.73 0 0 1 17.73,-17.73 17.73,17.73 0 0 1 17.73,17.73 z"
       id="path147" />
  </g>
  <path
     class="cls-3"
     d="M 606.27,166.63 V 642.9 a 46.09,46.09 0 0 1 -46.09,46.09 H 63.820001 a 46.08,46.08 0 0 1 -46.09,-46.09 V 462.48 l 65.2,-30.41 v -44 l -65.2,-30.4 v -87 L 119.37,166.67 Z"
     id="path151" />
  <path
     class="cls-3"
     d="M 560.18,706.72 H 63.820001 A 63.89,63.89 0 0 1 1.0592578e-6,642.9 V 462.48 A 17.72,17.72 0 0 1 10.240001,446.41 l 55,-25.63 v -21.42 l -55,-25.63 A 17.72,17.72 0 0 1 1.0592578e-6,357.66 v -87 A 17.71,17.71 0 0 1 5.0500011,258.27 L 106.67,154.24 a 17.76,17.76 0 0 1 12.68,-5.34 H 606.27 A 17.73,17.73 0 0 1 624,166.63 V 642.9 a 63.89,63.89 0 0 1 -63.82,63.82 z M 35.460001,473.77 V 642.9 a 28.4,28.4 0 0 0 28.36,28.37 H 560.18 A 28.4,28.4 0 0 0 588.54,642.9 V 184.36 H 126.83 l -91.369999,93.51 v 68.49 l 55,25.63 A 17.73,17.73 0 0 1 100.67,388.09 v 44 a 17.74,17.74 0 0 1 -10.239999,16.07 z"
     id="path153" />
  <path
     class="cls-5"
     d="m 151.98,362.85 0.71,8.42 a 21.41,21.41 0 0 1 7.68,-7.09 22.07,22.07 0 0 1 10.69,-2.5 19.49,19.49 0 0 1 10.47,2.7 16.75,16.75 0 0 1 6.59,8.19 22,22 0 0 1 7.66,-8 20.74,20.74 0 0 1 11.06,-2.88 q 9.42,0 14.86,6.68 5.44,6.68 5.45,20.39 v 37.79 h -17.19 v -37.86 q 0,-7.65 -2.35,-10.65 -2.35,-3 -7,-3 a 12,12 0 0 0 -6.33,1.62 11.84,11.84 0 0 0 -4.26,4.5 c 0,0.75 0,1.38 0.06,1.91 0.06,0.53 0.06,1.07 0.06,1.62 v 41.85 H 173 v -37.85 q 0,-7.47 -2.36,-10.56 -2.36,-3.09 -7.06,-3.09 a 13.33,13.33 0 0 0 -6.09,1.32 11.74,11.74 0 0 0 -4.33,3.74 v 46.44 h -17.13 v -63.69 z"
     id="path155" />
  <path
     class="cls-5"
     d="m 258.4,347.61 h -17.18 v -12.89 h 17.18 z m 0,78.93 h -17.18 v -63.69 h 17.18 z"
     id="path157" />
  <path
     class="cls-5"
     d="m 299.13,414.59 a 9.58,9.58 0 0 0 7.13,-2.68 9.73,9.73 0 0 0 2.64,-7.15 h 15.66 l 0.12,0.36 a 20,20 0 0 1 -7.18,16.15 q -7.43,6.51 -18.37,6.51 -14.12,0 -21.83,-9 -7.71,-9 -7.71,-23.1 v -1.77 q 0,-14 7.68,-23.1 7.68,-9.1 21.75,-9.09 11.65,0 18.77,6.71 7.12,6.71 6.88,17.61 l -0.12,0.36 H 308.9 a 12.71,12.71 0 0 0 -2.61,-8.21 8.82,8.82 0 0 0 -7.27,-3.27 q -6.66,0 -9.45,5.33 -2.79,5.33 -2.8,13.62 v 1.77 q 0,8.48 2.8,13.71 2.8,5.23 9.56,5.24 z"
     id="path159" />
  <path
     class="cls-5"
     d="m 368.18,377.63 -6.3,-0.18 a 11.46,11.46 0 0 0 -6.3,1.59 10.12,10.12 0 0 0 -3.77,4.47 v 43 h -17.14 v -63.66 h 16 l 0.76,9.42 a 20.12,20.12 0 0 1 5.8,-7.8 12.93,12.93 0 0 1 8.21,-2.79 13.46,13.46 0 0 1 2.38,0.2 c 0.73,0.14 1.47,0.31 2.21,0.5 z"
     id="path161" />
  <path
     class="cls-5"
     d="m 373.3,394.11 q 0,-14.25 7.94,-23.34 7.94,-9.09 22,-9.09 14.11,0 22.13,9.06 8.02,9.06 8,23.37 v 1.25 q 0,14.37 -8,23.4 -8,9.03 -22,9 -14.13,0 -22.11,-9 -7.98,-9 -8,-23.4 z m 17.13,1.25 q 0,8.72 3.06,14 3.06,5.28 9.89,5.27 6.64,0 9.74,-5.3 3.1,-5.3 3.09,-13.97 v -1.23 q 0,-8.47 -3.12,-13.83 -3.12,-5.36 -9.83,-5.36 -6.66,0 -9.74,5.39 -3.08,5.39 -3.09,13.8 z"
     id="path163" />
  <path
     class="cls-5"
     d="m 491.5,403.52 a 10.32,10.32 0 0 0 -3.54,-8.18 q -3.56,-3.09 -12.45,-5.82 -15.27,-4.61 -23.18,-10.85 -7.91,-6.24 -7.91,-17 0,-10.85 8.91,-17.72 8.91,-6.87 22.72,-6.88 14.67,0 23.6,7.39 8.93,7.39 8.64,19.39 l -0.12,0.36 h -17.15 q 0,-6.6 -4,-10.15 -4,-3.55 -11.21,-3.54 -6.54,0 -10.12,3.15 a 10.27,10.27 0 0 0 -3.57,8.06 8.8,8.8 0 0 0 3.87,7.36 q 3.88,2.88 13.4,6.09 14.53,4.13 22.17,10.75 7.64,6.62 7.64,17.43 0,11.34 -8.85,17.88 -8.85,6.54 -23.39,6.54 -14.24,0 -24.45,-7.09 -10.21,-7.09 -9.9,-21.14 l 0.12,-0.37 h 17.15 q 0,7.81 4.6,11.52 4.6,3.71 12.48,3.69 7.1,0 10.82,-3 a 9.63,9.63 0 0 0 3.72,-7.87 z"
     id="path165" />
  <path
     class="cls-5"
     d="M 522.22,426.54 V 338.36 H 553 q 16.18,0 26.66,10.33 10.48,10.33 10.49,26.51 v 14.6 q 0,16.25 -10.49,26.51 -10.49,10.26 -26.66,10.27 z m 17.7,-74.59 v 61 H 553 a 17.29,17.29 0 0 0 14.06,-6.51 q 5.33,-6.53 5.33,-16.7 v -14.7 q 0,-10.12 -5.33,-16.6 A 17.3,17.3 0 0 0 553,351.95 Z"
     id="path167" />
</svg>
