<svg id="Слой_1" data-name="Слой 1" xmlns="http://www.w3.org/2000/svg" viewBox="0 0 55 165"><defs><style>.cls-1{fill:none;stroke:#fff;stroke-miterlimit:10;}.cls-2{fill:#fff;}</style></defs><title>t12-flashlight-icon</title><rect class="cls-1" x="0.5" y="0.5" width="54" height="164" rx="10.67" ry="10.67"/><path class="cls-2" d="M40.73,54.76H14.06a8.64,8.64,0,0,0-8.61,8.61V151a8.64,8.64,0,0,0,8.61,8.61H40.72A8.64,8.64,0,0,0,49.33,151V63.38A8.64,8.64,0,0,0,40.73,54.76ZM27,70.7a.5.5,0,0,1,1,0V86.83a.5.5,0,0,1-1,0ZM38,90.12v7.33H17V90.12ZM14.5,72.43a.5.5,0,0,1,.68.18l8.06,14a.5.5,0,0,1-.18.68.49.49,0,0,1-.25.07.5.5,0,0,1-.43-.25l-8.06-14A.5.5,0,0,1,14.5,72.43ZM33.69,142.7H21V104.41l-4.51-6H38.22l-4.5,6Zm7-69.59-8.06,14a.5.5,0,0,1-.43.25.49.49,0,0,1-.25-.07.5.5,0,0,1-.18-.68l8.06-14a.5.5,0,1,1,.87.5Z"/></svg>