<?xml version="1.0" encoding="UTF-8" standalone="no"?>
<svg
   id="Слой_1"
   data-name="Слой 1"
   viewBox="0 0 512.65997 1117"
   version="1.1"
   sodipodi:docname="B21ds-battery-icon.svg"
   width="512.65997"
   height="1117"
   inkscape:version="1.2.2 (b0a84865, 2022-12-01)"
   xmlns:inkscape="http://www.inkscape.org/namespaces/inkscape"
   xmlns:sodipodi="http://sodipodi.sourceforge.net/DTD/sodipodi-0.dtd"
   xmlns="http://www.w3.org/2000/svg"
   xmlns:svg="http://www.w3.org/2000/svg">
  <sodipodi:namedview
     id="namedview149"
     pagecolor="#ffffff"
     bordercolor="#000000"
     borderopacity="0.25"
     inkscape:showpageshadow="2"
     inkscape:pageopacity="0.0"
     inkscape:pagecheckerboard="0"
     inkscape:deskcolor="#d1d1d1"
     showgrid="false"
     inkscape:zoom="0.30729167"
     inkscape:cx="-26.033898"
     inkscape:cy="559.72881"
     inkscape:window-width="1801"
     inkscape:window-height="848"
     inkscape:window-x="0"
     inkscape:window-y="25"
     inkscape:window-maximized="0"
     inkscape:current-layer="Слой_1" />
  <defs
     id="defs134">
    <style
       id="style132">.cls-1{fill:#56fa05;}</style>
  </defs>
  <g
     id="g432"
     transform="rotate(-90,556.915,684.585)">
    <path
       class="cls-1"
       d="m 1040.5,640.33 h -832 a 84.09,84.09 0 0 1 -84,-84 V 211.67 a 84.09,84.09 0 0 1 84,-84 h 832 a 84.09,84.09 0 0 1 84,84 v 344.66 a 84.09,84.09 0 0 1 -84,84 z m -832,-474.66 a 46.06,46.06 0 0 0 -46,46 v 344.66 a 46.06,46.06 0 0 0 46,46 h 832 a 46.06,46.06 0 0 0 46,-46 V 211.67 a 46.06,46.06 0 0 0 -46,-46 z"
       id="path136" />
    <path
       class="cls-1"
       d="m 1190.5,560.33 h -104 V 207.67 h 104 a 51,51 0 0 1 51,51 v 250.66 a 51,51 0 0 1 -51,51 z m -66,-38 h 66 a 13,13 0 0 0 13,-13 V 258.67 a 13,13 0 0 0 -13,-13 h -66 z"
       id="path138" />
    <path
       class="cls-1"
       d="M 947.83,564.78 H 301.17 a 65.08,65.08 0 0 1 -65,-65 V 277.11 a 65.08,65.08 0 0 1 65,-65 h 646.66 a 65.08,65.08 0 0 1 65,65 v 222.67 a 65.08,65.08 0 0 1 -65,65 z M 301.17,250.11 a 27,27 0 0 0 -27,27 v 222.67 a 27,27 0 0 0 27,27 h 646.66 a 27,27 0 0 0 27,-27 V 277.11 a 27,27 0 0 0 -27,-27 z"
       id="path140" />
    <rect
       class="cls-1"
       x="603.83002"
       y="222.22"
       width="38"
       height="314.67001"
       id="rect142" />
    <rect
       class="cls-1"
       x="418.32999"
       y="231.11"
       width="38"
       height="314.67001"
       id="rect144" />
    <rect
       class="cls-1"
       x="789.33002"
       y="231.11"
       width="38"
       height="314.67001"
       id="rect146" />
  </g>
</svg>
