<svg xmlns="http://www.w3.org/2000/svg" xmlns:xlink="http://www.w3.org/1999/xlink" id="Слой_1" data-name="Слой 1" viewBox="259.33 -45.88 624 852.12"><defs><style>.cls-1{fill:none;}.cls-2{fill:#e0b700;}.cls-3{fill:#41568a;}.cls-4{clip-path:url(#clip-path);}.cls-5{fill:#fff;}</style><clipPath id="clip-path"><path class="cls-1" d="M424.79,55.37H819.51a46.09,46.09,0,0,1,46.09,46.09V542.27a0,0,0,0,1,0,0H378.7a0,0,0,0,1,0,0V101.46a46.09,46.09,0,0,1,46.09-46.09Z"/></clipPath></defs><path class="cls-2" d="M424.79,55.37H819.51a46.09,46.09,0,0,1,46.09,46.09V542.27a0,0,0,0,1,0,0H378.7a0,0,0,0,1,0,0V101.46a46.09,46.09,0,0,1,46.09-46.09Z"/><path class="cls-3" d="M865.6,560H378.7A17.73,17.73,0,0,1,361,542.27V101.46a63.89,63.89,0,0,1,63.82-63.82H819.51a63.89,63.89,0,0,1,63.82,63.82V542.27A17.73,17.73,0,0,1,865.6,560ZM396.43,524.54H847.88V101.46a28.41,28.41,0,0,0-28.37-28.37H424.79a28.4,28.4,0,0,0-28.36,28.37Z"/><g class="cls-4"><path class="cls-3" d="M518.15-28.15V788.09a17.73,17.73,0,1,1-35.46,0V-28.15a17.73,17.73,0,0,1,17.73-17.73A17.73,17.73,0,0,1,518.15-28.15Z"/><path class="cls-3" d="M639.88-28.15V788.09a17.73,17.73,0,1,1-35.45,0V-28.15a17.73,17.73,0,0,1,17.72-17.73A17.72,17.72,0,0,1,639.88-28.15Z"/><path class="cls-3" d="M761.61-28.15V788.09a17.73,17.73,0,0,1-35.46,0V-28.15a17.73,17.73,0,0,1,17.73-17.73A17.73,17.73,0,0,1,761.61-28.15Z"/></g><path class="cls-3" d="M865.6,204.27V680.54a46.09,46.09,0,0,1-46.09,46.09H323.15a46.08,46.08,0,0,1-46.09-46.09V500.12l65.2-30.41v-44l-65.2-30.4v-87l101.64-104Z"/><path class="cls-3" d="M819.51,744.36H323.15a63.89,63.89,0,0,1-63.82-63.82V500.12a17.72,17.72,0,0,1,10.24-16.07l55-25.63V437l-55-25.63a17.72,17.72,0,0,1-10.24-16.07v-87a17.71,17.71,0,0,1,5.05-12.39L366,191.88a17.76,17.76,0,0,1,12.68-5.34H865.6a17.73,17.73,0,0,1,17.73,17.73V680.54A63.89,63.89,0,0,1,819.51,744.36ZM294.79,511.41V680.54a28.4,28.4,0,0,0,28.36,28.37H819.51a28.4,28.4,0,0,0,28.36-28.37V222H386.16l-91.37,93.51V384l55,25.63A17.73,17.73,0,0,1,360,425.73v44a17.74,17.74,0,0,1-10.24,16.07Z"/><path class="cls-5" d="M411.31,400.49l.71,8.42a21.41,21.41,0,0,1,7.68-7.09,22.07,22.07,0,0,1,10.69-2.5,19.49,19.49,0,0,1,10.47,2.7,16.75,16.75,0,0,1,6.59,8.19,22,22,0,0,1,7.66-8,20.74,20.74,0,0,1,11.06-2.88q9.42,0,14.86,6.68t5.45,20.39v37.79H469.29V426.33q0-7.65-2.35-10.65t-7-3a12,12,0,0,0-6.33,1.62,11.84,11.84,0,0,0-4.26,4.5c0,.75,0,1.38.06,1.91s.06,1.07.06,1.62v41.85H432.33V426.33q0-7.47-2.36-10.56t-7.06-3.09a13.33,13.33,0,0,0-6.09,1.32,11.74,11.74,0,0,0-4.33,3.74v46.44H395.36V400.49Z"/><path class="cls-5" d="M517.73,385.25H500.55V372.36h17.18Zm0,78.93H500.55V400.49h17.18Z"/><path class="cls-5" d="M558.46,452.23a9.58,9.58,0,0,0,7.13-2.68,9.73,9.73,0,0,0,2.64-7.15h15.66l.12.36a20,20,0,0,1-7.18,16.15q-7.43,6.51-18.37,6.51-14.12,0-21.83-9t-7.71-23.1v-1.77q0-14,7.68-23.1t21.75-9.09q11.65,0,18.77,6.71T584,423.68l-.12.36H568.23a12.71,12.71,0,0,0-2.61-8.21,8.82,8.82,0,0,0-7.27-3.27q-6.66,0-9.45,5.33t-2.8,13.62v1.77q0,8.48,2.8,13.71T558.46,452.23Z"/><path class="cls-5" d="M627.51,415.27l-6.3-.18a11.46,11.46,0,0,0-6.3,1.59,10.12,10.12,0,0,0-3.77,4.47v43H594V400.49h16l.76,9.42a20.12,20.12,0,0,1,5.8-7.8,12.93,12.93,0,0,1,8.21-2.79,13.46,13.46,0,0,1,2.38.2c.73.14,1.47.31,2.21.5Z"/><path class="cls-5" d="M632.63,431.75q0-14.25,7.94-23.34t22-9.09q14.11,0,22.13,9.06t8,23.37V433q0,14.37-8,23.4t-22,9q-14.13,0-22.11-9t-8-23.4ZM649.76,433q0,8.72,3.06,14t9.89,5.27q6.64,0,9.74-5.3T675.54,433v-1.23q0-8.47-3.12-13.83t-9.83-5.36q-6.66,0-9.74,5.39t-3.09,13.8Z"/><path class="cls-5" d="M750.83,441.16a10.32,10.32,0,0,0-3.54-8.18q-3.56-3.09-12.45-5.82-15.27-4.61-23.18-10.85t-7.91-17q0-10.85,8.91-17.72t22.72-6.88q14.67,0,23.6,7.39t8.64,19.39l-.12.36H750.35q0-6.6-4-10.15t-11.21-3.54q-6.54,0-10.12,3.15a10.27,10.27,0,0,0-3.57,8.06,8.8,8.8,0,0,0,3.87,7.36q3.88,2.88,13.4,6.09,14.53,4.13,22.17,10.75T768.53,441q0,11.34-8.85,17.88t-23.39,6.54q-14.24,0-24.45-7.09t-9.9-21.14l.12-.37h17.15q0,7.81,4.6,11.52t12.48,3.69q7.1,0,10.82-3A9.63,9.63,0,0,0,750.83,441.16Z"/><path class="cls-5" d="M781.55,464.18V376h30.78q16.18,0,26.66,10.33t10.49,26.51v14.6q0,16.25-10.49,26.51t-26.66,10.27Zm17.7-74.59v61h13.08a17.29,17.29,0,0,0,14.06-6.51q5.33-6.53,5.33-16.7V412.68q0-10.12-5.33-16.6a17.3,17.3,0,0,0-14.06-6.49Z"/></svg>