<?xml version="1.0" encoding="UTF-8" standalone="no"?>
<svg
   id="Слой_1"
   data-name="Слой 1"
   viewBox="0 0 306.01 366.45997"
   version="1.1"
   sodipodi:docname="icon-check.svg"
   width="306.01001"
   height="366.45999"
   inkscape:version="1.2.2 (b0a84865, 2022-12-01)"
   xmlns:inkscape="http://www.inkscape.org/namespaces/inkscape"
   xmlns:sodipodi="http://sodipodi.sourceforge.net/DTD/sodipodi-0.dtd"
   xmlns="http://www.w3.org/2000/svg"
   xmlns:svg="http://www.w3.org/2000/svg">
  <sodipodi:namedview
     id="namedview139"
     pagecolor="#ffffff"
     bordercolor="#000000"
     borderopacity="0.25"
     inkscape:showpageshadow="2"
     inkscape:pageopacity="0.0"
     inkscape:pagecheckerboard="0"
     inkscape:deskcolor="#d1d1d1"
     showgrid="false"
     inkscape:zoom="0.39645207"
     inkscape:cx="-66.842885"
     inkscape:cy="161.43187"
     inkscape:window-width="1534"
     inkscape:window-height="456"
     inkscape:window-x="0"
     inkscape:window-y="25"
     inkscape:window-maximized="0"
     inkscape:current-layer="Слой_1" />
  <defs
     id="defs134">
    <style
       id="style132">.cls-1{fill:#376c8d;}</style>
  </defs>
  <path
     class="cls-1"
     d="m 0,164.49 c 4.06,2.56 8.05,5.2 12,7.88 l 5.9,4 5.83,4.1 c 3.91,2.71 7.73,5.52 11.57,8.29 3.84,2.77 7.65,5.59 11.45,8.42 q 22.72,17 44.61,34.83 43.84,35.59 85.15,73.74 l -40.3,7.31 q 8.18,-20.68 16.91,-41.1 c 2.88,-6.82 5.9,-13.58 8.85,-20.37 2.95,-6.79 6,-13.52 9.15,-20.23 q 18.49,-40.37 39.22,-79.73 20.73,-39.36 44.2,-77.47 11.81,-19 24.5,-37.64 c 2.11,-3.1 4.28,-6.18 6.46,-9.26 l 3.26,-4.61 3.35,-4.58 c 4.45,-6.1 9,-12.15 13.9,-18.07 -1.27,7.56 -2.81,15 -4.49,22.36 l -1.25,5.52 -1.34,5.49 c -0.88,3.67 -1.78,7.33 -2.73,11 q -5.65,21.83 -12.28,43.2 -13.25,42.77 -29.36,84.22 -16.11,41.45 -34.34,81.95 c -3,6.76 -6.16,13.46 -9.25,20.19 -3.09,6.73 -6.28,13.4 -9.53,20.05 q -9.63,20 -19.88,39.75 l -16.94,32.73 -23.35,-25.43 Q 103.27,299.6 67.54,255.87 49.73,233.96 32.71,211.26 c -2.83,-3.79 -5.65,-7.59 -8.42,-11.44 -2.77,-3.85 -5.58,-7.66 -8.29,-11.57 l -4.1,-5.84 -4,-5.9 C 5.2,172.54 2.56,168.55 0,164.49 Z"
     id="path136" />
</svg>
