<?xml version="1.0" encoding="UTF-8" standalone="no"?>
<svg
   id="Слой_1"
   data-name="Слой 1"
   viewBox="0 0 798.7002 488.60001"
   version="1.1"
   sodipodi:docname="SIM-01.svg"
   width="798.7002"
   height="488.60001"
   inkscape:version="1.2.2 (b0a84865, 2022-12-01)"
   xmlns:inkscape="http://www.inkscape.org/namespaces/inkscape"
   xmlns:sodipodi="http://sodipodi.sourceforge.net/DTD/sodipodi-0.dtd"
   xmlns:xlink="http://www.w3.org/1999/xlink"
   xmlns="http://www.w3.org/2000/svg"
   xmlns:svg="http://www.w3.org/2000/svg">
  <sodipodi:namedview
     id="namedview201"
     pagecolor="#ffffff"
     bordercolor="#000000"
     borderopacity="0.25"
     inkscape:showpageshadow="2"
     inkscape:pageopacity="0.0"
     inkscape:pagecheckerboard="0"
     inkscape:deskcolor="#d1d1d1"
     showgrid="false"
     inkscape:zoom="0.30179028"
     inkscape:cx="107.69068"
     inkscape:cy="245.20339"
     inkscape:window-width="1440"
     inkscape:window-height="456"
     inkscape:window-x="0"
     inkscape:window-y="25"
     inkscape:window-maximized="0"
     inkscape:current-layer="Слой_1" />
  <defs
     id="defs162">
    <style
       id="style132">.cls-1{fill:url(#Безымянный_градиент_27);}.cls-2{fill:none;}.cls-3{fill:#e0b700;}.cls-4{fill:url(#Безымянный_градиент_28);}</style>
    <linearGradient
       id="Безымянный_градиент_27"
       x1="483.89001"
       y1="-104.94"
       x2="753.76001"
       y2="893.46997"
       gradientUnits="userSpaceOnUse"
       gradientTransform="translate(-200.69977,-146.7)">
      <stop
         offset="0.12"
         stop-color="#eaeaea"
         id="stop134" />
      <stop
         offset="0.37"
         stop-color="#e7e7e7"
         id="stop136" />
      <stop
         offset="0.56"
         stop-color="#dededd"
         id="stop138" />
      <stop
         offset="0.72"
         stop-color="#cececd"
         id="stop140" />
      <stop
         offset="0.88"
         stop-color="#b7b7b7"
         id="stop142" />
      <stop
         offset="1"
         stop-color="#a0a09f"
         id="stop144" />
    </linearGradient>
    <linearGradient
       id="Безымянный_градиент_28"
       x1="626.08002"
       y1="57.580002"
       x2="796.45001"
       y2="630.15997"
       gradientUnits="userSpaceOnUse">
      <stop
         offset="0"
         stop-color="#685402"
         id="stop147" />
      <stop
         offset="0.53"
         stop-color="#e0b700"
         id="stop149" />
      <stop
         offset="0.6"
         stop-color="#dbb300"
         id="stop151" />
      <stop
         offset="0.69"
         stop-color="#cca600"
         id="stop153" />
      <stop
         offset="0.79"
         stop-color="#b39201"
         id="stop155" />
      <stop
         offset="0.9"
         stop-color="#907501"
         id="stop157" />
      <stop
         offset="1"
         stop-color="#685402"
         id="stop159" />
    </linearGradient>
    <linearGradient
       inkscape:collect="always"
       xlink:href="#Безымянный_градиент_28"
       id="linearGradient501"
       gradientUnits="userSpaceOnUse"
       x1="626.08002"
       y1="57.580002"
       x2="796.45001"
       y2="630.15997"
       gradientTransform="translate(-200.69977,-146.7)" />
    <linearGradient
       inkscape:collect="always"
       xlink:href="#Безымянный_градиент_28"
       id="linearGradient503"
       gradientUnits="userSpaceOnUse"
       x1="626.08002"
       y1="57.580002"
       x2="796.45001"
       y2="630.15997"
       gradientTransform="translate(-200.69977,-146.7)" />
    <linearGradient
       inkscape:collect="always"
       xlink:href="#Безымянный_градиент_28"
       id="linearGradient505"
       gradientUnits="userSpaceOnUse"
       x1="626.08002"
       y1="57.580002"
       x2="796.45001"
       y2="630.15997"
       gradientTransform="translate(-200.69977,-146.7)" />
    <linearGradient
       inkscape:collect="always"
       xlink:href="#Безымянный_градиент_28"
       id="linearGradient507"
       gradientUnits="userSpaceOnUse"
       x1="626.08002"
       y1="57.580002"
       x2="796.45001"
       y2="630.15997"
       gradientTransform="translate(-200.69977,-146.7)" />
    <linearGradient
       inkscape:collect="always"
       xlink:href="#Безымянный_градиент_28"
       id="linearGradient509"
       gradientUnits="userSpaceOnUse"
       x1="626.08002"
       y1="57.580002"
       x2="796.45001"
       y2="630.15997"
       gradientTransform="translate(-200.69977,-146.7)" />
    <linearGradient
       inkscape:collect="always"
       xlink:href="#Безымянный_градиент_28"
       id="linearGradient511"
       gradientUnits="userSpaceOnUse"
       x1="626.08002"
       y1="57.580002"
       x2="796.45001"
       y2="630.15997"
       gradientTransform="translate(-200.69977,-146.7)" />
    <linearGradient
       inkscape:collect="always"
       xlink:href="#Безымянный_градиент_28"
       id="linearGradient513"
       gradientUnits="userSpaceOnUse"
       x1="626.08002"
       y1="57.580002"
       x2="796.45001"
       y2="630.15997"
       gradientTransform="translate(-200.69977,-146.7)" />
    <linearGradient
       inkscape:collect="always"
       xlink:href="#Безымянный_градиент_28"
       id="linearGradient515"
       gradientUnits="userSpaceOnUse"
       x1="626.08002"
       y1="57.580002"
       x2="796.45001"
       y2="630.15997"
       gradientTransform="translate(-200.69977,-146.7)" />
  </defs>
  <path
     class="cls-1"
     d="m 798.70023,52.8 v 383 a 52.81,52.81 0 0 1 -52.8,52.8 h -565.6 a 16.16,16.16 0 0 1 -11.2,-4.6 L 4.6002254,319.4 A 15.73,15.73 0 0 1 2.253541e-4,308.2 V 52.8 A 52.81,52.81 0 0 1 52.800225,0 H 745.80023 a 52.9,52.9 0 0 1 52.9,52.8 z"
     id="path164"
     style="fill:url(#%D0%91%D0%B5%D0%B7%D1%8B%D0%BC%D1%8F%D0%BD%D0%BD%D1%8B%D0%B9_%D0%B3%D1%80%D0%B0%D0%B4%D0%B8%D0%B5%D0%BD%D1%82_27)" />
  <line
     class="cls-2"
     x1="173.80023"
     y1="488.59998"
     x2="-0.099768542"
     y2="314.69998"
     id="line166" />
  <path
     class="cls-3"
     d="m 737.60023,119 v 36.8 h -187.9 v 236.5 h -62.7 v -296 h 227.8 a 5.23,5.23 0 0 1 3.7,1.6 l 17.5,17.4 a 5.23,5.23 0 0 1 1.6,3.7 z"
     id="path168" />
  <rect
     class="cls-3"
     x="593.50024"
     y="252.90001"
     width="144.10001"
     height="61.099998"
     id="rect170" />
  <rect
     class="cls-3"
     x="593.50024"
     y="174.59999"
     width="144.10001"
     height="61.099998"
     id="rect172" />
  <rect
     class="cls-3"
     x="311.60022"
     y="252.90001"
     width="144.10001"
     height="61.099998"
     id="rect174" />
  <rect
     class="cls-3"
     x="311.60022"
     y="174.59999"
     width="144.10001"
     height="61.099998"
     id="rect176" />
  <path
     class="cls-3"
     d="m 455.70023,96.3 v 61.1 h -144 v -38.8 a 5.58,5.58 0 0 1 1.5,-3.7 l 17,-17 a 5.68,5.68 0 0 1 3.7,-1.6 z"
     id="path178" />
  <path
     class="cls-3"
     d="m 455.70023,392.3 v -61.1 h -144 V 370 a 5.58,5.58 0 0 0 1.5,3.7 l 17,17 a 5.14,5.14 0 0 0 3.7,1.5 z"
     id="path180" />
  <path
     class="cls-3"
     d="m 593.50023,392.3 v -61.1 h 144 V 370 a 5.58,5.58 0 0 1 -1.5,3.7 l -17,17 a 5.14,5.14 0 0 1 -3.7,1.5 z"
     id="path182" />
  <path
     class="cls-4"
     d="m 737.60023,119 v 36.8 h -187.9 v 236.5 h -62.7 v -296 h 227.8 a 5.23,5.23 0 0 1 3.7,1.6 l 17.5,17.4 a 5.23,5.23 0 0 1 1.6,3.7 z"
     id="path184"
     style="fill:url(#linearGradient501)" />
  <rect
     class="cls-4"
     x="593.50024"
     y="252.90001"
     width="144.10001"
     height="61.099998"
     id="rect186"
     style="fill:url(#linearGradient503)" />
  <rect
     class="cls-4"
     x="593.50024"
     y="174.59999"
     width="144.10001"
     height="61.099998"
     id="rect188"
     style="fill:url(#linearGradient505)" />
  <rect
     class="cls-4"
     x="311.60022"
     y="252.90001"
     width="144.10001"
     height="61.099998"
     id="rect190"
     style="fill:url(#linearGradient507)" />
  <rect
     class="cls-4"
     x="311.60022"
     y="174.59999"
     width="144.10001"
     height="61.099998"
     id="rect192"
     style="fill:url(#linearGradient509)" />
  <path
     class="cls-4"
     d="m 455.70023,96.3 v 61.1 h -144 v -38.8 a 5.58,5.58 0 0 1 1.5,-3.7 l 17,-17 a 5.68,5.68 0 0 1 3.7,-1.6 z"
     id="path194"
     style="fill:url(#linearGradient511)" />
  <path
     class="cls-4"
     d="m 455.70023,392.3 v -61.1 h -144 V 370 a 5.58,5.58 0 0 0 1.5,3.7 l 17,17 a 5.14,5.14 0 0 0 3.7,1.5 z"
     id="path196"
     style="fill:url(#linearGradient513)" />
  <path
     class="cls-4"
     d="m 593.50023,392.3 v -61.1 h 144 V 370 a 5.58,5.58 0 0 1 -1.5,3.7 l -17,17 a 5.14,5.14 0 0 1 -3.7,1.5 z"
     id="path198"
     style="fill:url(#linearGradient515)" />
</svg>
