<?xml version="1.0" encoding="UTF-8" standalone="no"?>
<svg
   id="Слой_1"
   data-name="Слой 1"
   viewBox="0 0 290.63 151.83"
   version="1.1"
   sodipodi:docname="battery-01.svg"
   inkscape:version="1.2.2 (b0a84865, 2022-12-01)"
   xmlns:inkscape="http://www.inkscape.org/namespaces/inkscape"
   xmlns:sodipodi="http://sodipodi.sourceforge.net/DTD/sodipodi-0.dtd"
   xmlns="http://www.w3.org/2000/svg"
   xmlns:svg="http://www.w3.org/2000/svg">
  <sodipodi:namedview
     id="namedview147"
     pagecolor="#ffffff"
     bordercolor="#000000"
     borderopacity="0.25"
     inkscape:showpageshadow="2"
     inkscape:pageopacity="0.0"
     inkscape:pagecheckerboard="0"
     inkscape:deskcolor="#d1d1d1"
     showgrid="false"
     inkscape:zoom="1.55437"
     inkscape:cx="92.320361"
     inkscape:cy="79.453412"
     inkscape:window-width="1422"
     inkscape:window-height="707"
     inkscape:window-x="285"
     inkscape:window-y="1321"
     inkscape:window-maximized="0"
     inkscape:current-layer="Слой_1" />
  <defs
     id="defs134">
    <style
       id="style132">.cls-1{fill:#fff;}</style>
  </defs>
  <path
     class="cls-1"
     d="M260.9,146.35a7.53,7.53,0,0,1,7.54,7.52h0v66.77a7.53,7.53,0,0,1-7.52,7.54H93.8a7.56,7.56,0,0,1-7.54-7.54V153.89a7.56,7.56,0,0,1,7.54-7.54H260.9m0-10H93.8a17.56,17.56,0,0,0-17.54,17.54v66.75A17.56,17.56,0,0,0,93.8,238.18H260.9a17.56,17.56,0,0,0,17.54-17.54V153.89A17.56,17.56,0,0,0,260.9,136.35Z"
     transform="translate(-47.27 -111.35)"
     id="path136"
     style="fill:#f30b0a;fill-opacity:1" />
  <path
     class="cls-1"
     d="M320.36,136.35H307.49v-2.27a22.76,22.76,0,0,0-22.74-22.73H70a22.75,22.75,0,0,0-22.73,22.73V240.45A22.75,22.75,0,0,0,70,263.18H284.75a22.76,22.76,0,0,0,22.74-22.73v-2.27h12.87a17.56,17.56,0,0,0,17.54-17.54V153.89A17.56,17.56,0,0,0,320.36,136.35Zm-22.87,104.1a12.73,12.73,0,0,1-12.73,12.73H70a12.71,12.71,0,0,1-12.73-12.69V134.08A12.71,12.71,0,0,1,70,121.35H284.75a12.73,12.73,0,0,1,12.74,12.72h0Zm30.41-19.81a7.53,7.53,0,0,1-7.52,7.54H307.49V146.35h12.87a7.53,7.53,0,0,1,7.54,7.52h0Z"
     transform="translate(-47.27 -111.35)"
     id="path138"
     style="fill:#f30b0a;fill-opacity:1" />
  <rect
     class="cls-1"
     x="76.85"
     y="29.75"
     width="10"
     height="92.32"
     id="rect140"
     style="fill:#f30b0a;fill-opacity:1" />
  <rect
     class="cls-1"
     x="173.31"
     y="29.75"
     width="10"
     height="92.32"
     id="rect142"
     style="fill:#f30b0a;fill-opacity:1" />
  <rect
     class="cls-1"
     x="125.08"
     y="29.75"
     width="10"
     height="92.32"
     id="rect144"
     style="fill:#f30b0a;fill-opacity:1" />
</svg>
