<svg id="Слой_1" data-name="Слой 1" xmlns="http://www.w3.org/2000/svg" viewBox="0 0 484 256.71"><defs><style>.cls-1{fill:#f2380c;}</style></defs><path class="cls-1" d="M45.24,260.68A41.32,41.32,0,0,1,4,219.45V45.24A41.33,41.33,0,0,1,45.23,4H397a41.36,41.36,0,0,1,41.23,41h17.08A32.78,32.78,0,0,1,488,77.66V187a32.81,32.81,0,0,1-32.72,32.72H438.2a41.36,41.36,0,0,1-41.23,41ZM45.17,28.37A16.82,16.82,0,0,0,28.39,45.23h0V219.51A16.84,16.84,0,0,0,45.2,236.3H397a16.87,16.87,0,0,0,16.86-16.86V45.24A16.88,16.88,0,0,0,397,28.37Zm410.14,167a8.37,8.37,0,0,0,8.33-8.35V77.64a8.38,8.38,0,0,0-8.36-8.33H438.2v126Z" transform="translate(-4.01 -4.01)"/><path class="cls-1" d="M84.22,219.72A32.81,32.81,0,0,1,51.49,187V77.66A32.79,32.79,0,0,1,84.21,45H357.89a32.79,32.79,0,0,1,32.73,32.71V187a32.81,32.81,0,0,1-32.72,32.72Zm273.71-24.37a8.32,8.32,0,0,0,5.88-2.45,8.22,8.22,0,0,0,2.43-5.9V77.64a8.35,8.35,0,0,0-8.35-8.33H312.24v126Zm-70.06,0v-126H233.24v126Zm-79,0v-126H154.26v126ZM84.22,69.35a8.38,8.38,0,0,0-8.35,8.36V187a8.39,8.39,0,0,0,8.35,8.35h45.65v-126Z" transform="translate(-4.01 -4.01)"/></svg>