<?xml version="1.0" encoding="UTF-8" standalone="no"?>
<svg
   id="Слой_1"
   data-name="Слой 1"
   viewBox="0 0 476.01 359.04"
   version="1.1"
   sodipodi:docname="powerbank.svg"
   inkscape:version="1.2.2 (b0a84865, 2022-12-01)"
   xmlns:inkscape="http://www.inkscape.org/namespaces/inkscape"
   xmlns:sodipodi="http://sodipodi.sourceforge.net/DTD/sodipodi-0.dtd"
   xmlns="http://www.w3.org/2000/svg"
   xmlns:svg="http://www.w3.org/2000/svg">
  <sodipodi:namedview
     id="namedview389"
     pagecolor="#ffffff"
     bordercolor="#000000"
     borderopacity="0.25"
     inkscape:showpageshadow="2"
     inkscape:pageopacity="0.0"
     inkscape:pagecheckerboard="0"
     inkscape:deskcolor="#d1d1d1"
     showgrid="false"
     inkscape:zoom="0.65730836"
     inkscape:cx="111.81966"
     inkscape:cy="183.32339"
     inkscape:window-width="1440"
     inkscape:window-height="701"
     inkscape:window-x="285"
     inkscape:window-y="1321"
     inkscape:window-maximized="0"
     inkscape:current-layer="Слой_1" />
  <defs
     id="defs372">
    <style
       id="style370">.cls-1{fill:#fff;}</style>
  </defs>
  <polygon
     class="cls-1"
     points="323.09 236.83 321.07 154.98 149.79 272.21 279.13 236.83 279.13 318.68 430.71 210.06 323.09 236.83"
     id="polygon374"
     style="fill:#f30b0a;fill-opacity:1" />
  <path
     class="cls-1"
     d="M556.16,465.45V275.35A27.2,27.2,0,0,0,529,248.19H215.48a27.19,27.19,0,0,0-27.15,27.16v190.1a27.18,27.18,0,0,0,27.15,27.16H529A27.19,27.19,0,0,0,556.16,465.45ZM215.48,480.61a15.17,15.17,0,0,1-15.15-15.16V275.35a15.2,15.2,0,0,1,15.15-15.16H529a15.19,15.19,0,0,1,15.16,15.16v190.1A15.18,15.18,0,0,1,529,480.61Z"
     transform="translate(-81.99 -133.57)"
     id="path376"
     style="fill:#f30b0a;fill-opacity:1" />
  <path
     class="cls-1"
     d="M188.33,429.63H142.89A61,61,0,0,1,82,368.73V227a61,61,0,0,1,60.9-60.9H421.76v12.49H142.89A48.49,48.49,0,0,0,94.46,227V368.73a48.48,48.48,0,0,0,48.43,48.43h45.44Z"
     transform="translate(-81.99 -133.57)"
     id="path378"
     style="fill:#f30b0a;fill-opacity:1" />
  <path
     class="cls-1"
     d="M196,443.48H167.09a4.45,4.45,0,0,1-4.45-4.45V407.76h0a4.46,4.46,0,0,1,4.45-4.45H196Z"
     transform="translate(-81.99 -133.57)"
     id="path380"
     style="fill:#f30b0a;fill-opacity:1" />
  <path
     class="cls-1"
     d="M447.15,184.53H433.76V157.87h13.39v-12H430.69a9,9,0,0,0-8.93,8.94v32.78a9,9,0,0,0,8.93,8.94h16.46Z"
     transform="translate(-81.99 -133.57)"
     id="path382"
     style="fill:#f30b0a;fill-opacity:1" />
  <path
     class="cls-1"
     d="M519.4,197.25V145.16a11.6,11.6,0,0,0-11.59-11.59H458.74a11.62,11.62,0,0,0-11.59,11.59v52.1a11.63,11.63,0,0,0,11.59,11.59h49.07A11.59,11.59,0,0,0,519.4,197.25Zm-60.25-.41V145.57H507.4v51.28Z"
     transform="translate(-81.99 -133.57)"
     id="path384"
     style="fill:#f30b0a;fill-opacity:1" />
  <path
     class="cls-1"
     d="M548,193.87H519.44v-12h26.65V160.53H519.4v-12H548a10.07,10.07,0,0,1,10,10v25.24A10.05,10.05,0,0,1,548,193.87Z"
     transform="translate(-81.99 -133.57)"
     id="path386"
     style="fill:#f30b0a;fill-opacity:1" />
</svg>
