<?xml version="1.0" encoding="UTF-8" standalone="no"?>
<svg
   id="Слой_1"
   data-name="Слой 1"
   viewBox="0 0 483.99999 366.99999"
   version="1.1"
   sodipodi:docname="P99-battery-icon-powerbank.svg"
   width="484"
   height="367"
   inkscape:version="1.2.2 (b0a84865, 2022-12-01)"
   xmlns:inkscape="http://www.inkscape.org/namespaces/inkscape"
   xmlns:sodipodi="http://sodipodi.sourceforge.net/DTD/sodipodi-0.dtd"
   xmlns="http://www.w3.org/2000/svg"
   xmlns:svg="http://www.w3.org/2000/svg">
  <sodipodi:namedview
     id="namedview427"
     pagecolor="#ffffff"
     bordercolor="#000000"
     borderopacity="0.25"
     inkscape:showpageshadow="2"
     inkscape:pageopacity="0.0"
     inkscape:pagecheckerboard="0"
     inkscape:deskcolor="#d1d1d1"
     showgrid="false"
     inkscape:zoom="0.487563"
     inkscape:cx="67.683561"
     inkscape:cy="186.64255"
     inkscape:window-width="1835"
     inkscape:window-height="852"
     inkscape:window-x="0"
     inkscape:window-y="25"
     inkscape:window-maximized="0"
     inkscape:current-layer="Слой_1" />
  <defs
     id="defs420">
    <style
       id="style418">.cls-1{fill:#f2380c;}</style>
  </defs>
  <g
     id="g548"
     transform="matrix(0,-1,-1,0,484.03,367)">
    <path
       class="cls-1"
       d="M 356.08,42.61 V 18 a 14.13,14.13 0 0 0 -14,-14 h -25.27 a 14.11,14.11 0 0 0 -14.07,14 v 24.61 a 15.64,15.64 0 0 0 -15,15.58 v 49.08 a 15.76,15.76 0 0 0 12.32,15.22 v 12.86 A 13.06,13.06 0 0 0 313,148.24 h 5 v 274.87 a 44.56,44.56 0 0 1 -44.43,44.43 H 131.88 A 44.56,44.56 0 0 1 87.45,423.11 v -15.75 h 5.4 a 8.45,8.45 0 0 0 8.45,-8.45 v 0 -17.24 h 124 a 31.23,31.23 0 0 0 31.16,-31.15 V 37 A 31.25,31.25 0 0 0 225.3,5.84 H 35.16 A 31.25,31.25 0 0 0 4,37 v 313.52 a 31.23,31.23 0 0 0 31.16,31.15 h 18 v 17.24 a 8.47,8.47 0 0 0 8.45,8.45 H 67 v 15.76 A 65.11,65.11 0 0 0 131.91,488 h 141.72 a 65.12,65.12 0 0 0 64.89,-64.9 V 148.24 h 7.31 a 13,13 0 0 0 12.91,-12.93 V 122.49 A 15.74,15.74 0 0 0 371,107.26 V 58.19 A 15.65,15.65 0 0 0 356.08,42.61 Z M 35.16,361.67 A 11.19,11.19 0 0 1 24,350.52 V 37 A 11.2,11.2 0 0 1 35.16,25.84 H 225.25 A 11.23,11.23 0 0 1 236.42,37 v 313.51 a 11.22,11.22 0 0 1 -11.16,11.16 z M 322.74,23.91 h 13.34 v 18.68 h -13.34 z m 16,104.33 h -18.66 v -5.39 h 18.66 z M 351,102.85 H 307.77 V 62.6 h 43.28 z"
       transform="translate(-4,-3.97)"
       id="path422" />
    <path
       class="cls-1"
       d="m 215.39,165.16 v 0 L 98.14,336.47 a 4,4 0 0 1 -3.31,1.75 4.08,4.08 0 0 1 -1.61,-0.34 h -0.1 A 4,4 0 0 1 91,333.2 L 125,208.92 H 48.36 a 4,4 0 0 1 -3.23,-6.36 L 153.73,51 a 4,4 0 0 1 7.12,3.33 L 135.29,157 l 76.87,1.9 a 4,4 0 0 1 3.23,6.22 z"
       transform="translate(-4,-3.97)"
       id="path424" />
  </g>
</svg>
