<svg id="Слой_1" data-name="Слой 1" xmlns="http://www.w3.org/2000/svg" viewBox="0 0 492.01 264.68"><defs><style>.cls-1{fill:#f30a0a;}.cls-2{fill:#f6ab0a;}</style></defs><path class="cls-1" d="M119.23,441.44A41.33,41.33,0,0,1,78,400.21V226a41.33,41.33,0,0,1,41.22-41.23H471a41.36,41.36,0,0,1,41.23,41h17.08A32.79,32.79,0,0,1,562,258.42V367.76a32.81,32.81,0,0,1-32.72,32.72H512.19a41.36,41.36,0,0,1-41.23,41Zm-.07-232.31A16.82,16.82,0,0,0,102.38,226V400.27a16.84,16.84,0,0,0,16.81,16.79H471a16.87,16.87,0,0,0,16.86-16.86V226A16.88,16.88,0,0,0,471,209.13Zm410.14,167a8.36,8.36,0,0,0,8.33-8.35V258.4a8.37,8.37,0,0,0-8.36-8.33H512.19v126Z" transform="translate(-73.99 -180.76)"/><path class="cls-2" d="M471,188.76A37.27,37.27,0,0,1,508.2,226v3.71h21.07A28.77,28.77,0,0,1,558,258.42V367.76a28.79,28.79,0,0,1-28.74,28.73H508.2v3.72A37.27,37.27,0,0,1,471,437.43H119.22A37.26,37.26,0,0,1,82,400.21V226a37.26,37.26,0,0,1,37.23-37.23ZM119.19,421.06H471a20.87,20.87,0,0,0,20.86-20.85V226A20.86,20.86,0,0,0,471,205.13H119.16A20.8,20.8,0,0,0,98.38,226V400.26a20.81,20.81,0,0,0,20.81,20.8Zm389-40.95h21.1a12.33,12.33,0,0,0,12.32-12.35V258.39a12.32,12.32,0,0,0-12.35-12.31H508.2v134ZM471,180.76H119.22A45.34,45.34,0,0,0,74,226V400.21a45.34,45.34,0,0,0,45.23,45.22H471a45.37,45.37,0,0,0,45-40.94h13.28A36.84,36.84,0,0,0,566,367.77V258.42a36.83,36.83,0,0,0-36.73-36.72H516a45.37,45.37,0,0,0-45-40.94ZM119.19,413.06a12.84,12.84,0,0,1-12.81-12.81V226a12.79,12.79,0,0,1,12.79-12.85H471A12.86,12.86,0,0,1,483.82,226V400.21A12.87,12.87,0,0,1,471,413.06H119.19Zm397-159h13.07a4.34,4.34,0,0,1,4.35,4.33V367.76a4.34,4.34,0,0,1-4.33,4.35H516.2v-118Z" transform="translate(-73.99 -180.76)"/><path class="cls-1" d="M158.21,400.48a32.81,32.81,0,0,1-32.73-32.72V258.42a32.79,32.79,0,0,1,32.72-32.71H431.88a32.79,32.79,0,0,1,32.73,32.71V367.76a32.81,32.81,0,0,1-32.72,32.72Zm273.71-24.37a8.32,8.32,0,0,0,5.88-2.45,8.22,8.22,0,0,0,2.43-5.9V258.4a8.35,8.35,0,0,0-8.35-8.33H386.23v126Zm-70.06,0v-126H307.23v126Zm-79,0v-126H228.25v126Zm-124.65-126a8.38,8.38,0,0,0-8.35,8.36V367.76a8.38,8.38,0,0,0,8.35,8.35h45.65v-126Z" transform="translate(-73.99 -180.76)"/><path class="cls-2" d="M431.88,229.7a28.76,28.76,0,0,1,28.73,28.72V367.76a28.78,28.78,0,0,1-28.73,28.73H158.21a28.78,28.78,0,0,1-28.74-28.73V258.42a28.76,28.76,0,0,1,28.74-28.72ZM382.22,380.11h49.7a12.33,12.33,0,0,0,12.31-12.35V258.39a12.34,12.34,0,0,0-12.35-12.31H382.22v134Zm-79,0h62.62v-134H303.23v134Zm-79,0h62.61v-134H224.24v134Zm-66,0h49.65v-134H158.21a12.36,12.36,0,0,0-12.36,12.34V367.76a12.37,12.37,0,0,0,12.36,12.35ZM431.89,221.7H158.21a36.83,36.83,0,0,0-36.74,36.71V367.76a36.84,36.84,0,0,0,36.73,36.73H431.88a36.82,36.82,0,0,0,36.73-36.72V258.42a36.82,36.82,0,0,0-36.72-36.72Zm-41.67,32.38h41.66a4.34,4.34,0,0,1,4.35,4.33V367.76a4.33,4.33,0,0,1-4.32,4.35H390.22v-118Zm-79,0h46.62v118H311.23v-118Zm-79,0h46.61v118H232.24v-118Zm-74,118a4.4,4.4,0,0,1-4.37-4.37V258.42a4.38,4.38,0,0,1,4.37-4.34h41.64v118Z" transform="translate(-73.99 -180.76)"/></svg>