<svg width="188.977" height="126.648" viewBox="0 0 50 33.509" xmlns="http://www.w3.org/2000/svg"><path d="M77.913 221.097h24.467a.15.15 0 0 1 .094.266l-12.118 9.892-10.891 8.89c-.904.739-2.201.739-3.104 0l-10.892-8.89-12.118-9.892a.15.15 0 0 1 .095-.266z" style="fill:currentColor;fill-opacity:1;fill-rule:evenodd;stroke:none;stroke-width:.352778" transform="translate(-53.025 -221.097)"/><path d="M102.38 222.838a.15.15 0 0 1 .094.266l-12.118 9.892-10.891 8.89c-.904.738-2.201.738-3.104 0l-10.892-8.89-12.118-9.892a.15.15 0 0 1 .095-.266h-.42v29.301a2.467 2.467 0 0 0 2.467 2.467h45.065a2.467 2.467 0 0 0 2.467-2.467v-29.3z" style="fill:currentColor;fill-opacity:1;fill-rule:evenodd;stroke:none;stroke-width:.352778" transform="translate(-53.025 -221.097)"/></svg>