<svg width="188.976" height="102.587" viewBox="0 0 50 27.143" xmlns="http://www.w3.org/2000/svg"><path d="M91.62 122.915c.37.58.287 1.29.315 1.94-.028 5.038.003 10.075-.012 15.116.06.837-.33 1.79-1.2 2.048-1.174.147-2.365.051-3.548.071.004-6.652-.012-13.305.008-19.957 1.457.218 3.386-.568 4.438.782M85.873 122.157c.008 6.64.004 13.285.004 19.925-2.69.024-5.382-.008-8.07.016-.047-6.648.005-13.297-.027-19.945 2.699-.004 5.398-.02 8.093.004M76.502 122.164c0 6.645-.004 13.29.004 19.934-2.703-.024-5.402.012-8.101-.02.027-6.644.027-13.285 0-19.93 2.699.005 5.398-.02 8.097.016M67.122 122.149c-.008 6.648 0 13.297-.004 19.945-2.695-.012-5.39.004-8.085-.012.02-6.64 0-13.277.012-19.918 2.695-.027 5.386.004 8.077-.015M57.743 122.145c-.008 6.644.004 13.293 0 19.941-1.044 0-2.088.04-3.132-.011-.881.004-1.655-.818-1.615-1.695-.024-5.434-.008-10.864-.008-16.298-.08-.846.456-1.683 1.293-1.878 1.152-.127 2.31-.04 3.462-.06" style="fill:currentColor;fill-opacity:1;fill-rule:evenodd;stroke:none;stroke-width:.352778" transform="translate(-49.25 -118.569)"/><path d="M93.352 122.256c-.215-.989-1.25-1.608-2.231-1.505-12.56.008-25.126-.011-37.685.008-1.107-.035-2.044 1.036-1.977 2.12-.031 6.1-.016 12.201-.008 18.302-.119 1.136.77 2.338 1.97 2.287 12.578.027 25.157.008 37.74.008 1.305.174 2.46-1.028 2.258-2.322-.044-6.3.091-12.607-.067-18.898m5.676 6.24c.404 1.389.115 2.881.202 4.31-.083 1.151.282 2.52-.548 3.482-.75.904-2.028.642-3.064.702-.202 2.143.433 4.45-.476 6.47-.747 1.477-2.406 2.314-4.03 2.246-12.55-.004-25.101.02-37.652-.011-1.83.055-3.354-1.255-4.085-2.842-.21-2.132.032-4.275-.09-6.41-.064-4.518-.013-9.035-.029-13.552-.135-2.255 1.854-4.398 4.129-4.318 12.721.004 25.443-.016 38.164.008 2.092-.048 4.037 1.802 4.041 3.901.048 1.608-.008 3.215.024 4.823 1.223-.051 2.846-.175 3.414 1.19" style="fill:currentColor;fill-opacity:1;fill-rule:evenodd;stroke:none;stroke-width:.352778" transform="translate(-49.25 -118.569)"/></svg>