<svg width="188.977" height="161.968" viewBox="0 0 50 42.854" xmlns="http://www.w3.org/2000/svg"><path d="M104.63 169.308c-.015-5.788 4.591-11.268 10.373-12 9.236-.024 18.473.004 27.71-.011 3.606-.244 7.103 1.745 9.203 4.609 1.824 2.12 2.76 4.96 2.705 7.744-.182 2.655-1.294 3.776-3.546 3.018-2.273-.368-4.533-.8-6.806-1.178-1.678-.201-3.23-1.637-3.293-3.373.082-1.922-1.843-3.564-3.705-3.485-5.087.006-10.174.01-15.259 0-1.867-.088-3.817 1.545-3.722 3.48-.05 1.739-1.609 3.177-3.287 3.378-2.227.374-4.451.786-6.678 1.163-1.88.268-3.835-1.416-3.695-3.345" style="fill:currentColor;fill-opacity:1;fill-rule:evenodd;stroke:none;stroke-width:.352778" transform="translate(-104.623 -157.277)"/><path d="M127.322 178.03c-3.457.975-6.086 4.42-5.955 8.036-.064 3.866 2.997 7.446 6.796 8.076 3.765.783 7.85-1.556 9.176-5.148 1.416-3.449.11-7.729-2.995-9.797-1.995-1.456-4.66-1.819-7.022-1.167m-6.333-10.357c1.197-1.262 3.506-.616 3.984 1.023.201 1.015.046 2.071.089 3.104 3.046.006 6.092.003 9.139.003.11-1.34-.387-2.918.627-4.018 1.176-1.401 3.72-.776 4.14 1 .19 1.267.046 2.559.07 3.835 4.466 3.893 8.883 8.137 11.546 13.507 1.359 2.608 1.121 5.606 1.06 8.445-.128 2.985-2.86 5.642-5.876 5.547-10.76.019-21.516.01-32.273.006-3.12.083-5.916-2.745-5.895-5.849.055-2.333-.29-4.77.612-6.991 1.298-3.415 3.62-6.33 6.072-8.993 1.785-2.065 3.887-3.814 5.867-5.678.353-1.618-.533-3.653.838-4.941" style="fill:currentColor;fill-opacity:1;fill-rule:evenodd;stroke:none;stroke-width:.352778" transform="translate(-104.623 -157.277)"/></svg>