<svg id="Слой_1" data-name="Слой 1" xmlns="http://www.w3.org/2000/svg" xmlns:xlink="http://www.w3.org/1999/xlink" viewBox="0 0 798.8 488.6"><defs><style>.cls-1{fill:url(#Безымянный_градиент);}.cls-2{fill:none;}.cls-3{fill:#e0b700;}.cls-4{fill:url(#Безымянный_градиент_2);}.cls-5{fill:url(#Безымянный_градиент_3);}.cls-6{fill:url(#Безымянный_градиент_4);}.cls-7{fill:url(#Безымянный_градиент_5);}.cls-8{fill:url(#Безымянный_градиент_6);}.cls-9{fill:url(#Безымянный_градиент_7);}.cls-10{fill:url(#Безымянный_градиент_8);}.cls-11{fill:url(#Безымянный_градиент_9);}</style><linearGradient id="Безымянный_градиент" x1="483.89" y1="-106.94" x2="753.76" y2="891.47" gradientTransform="matrix(1, 0, 0, -1, 0, 780)" gradientUnits="userSpaceOnUse"><stop offset="0.27" stop-color="#dcdcdc"/><stop offset="0.75" stop-color="#dededd"/></linearGradient><linearGradient id="Безымянный_градиент_2" x1="703.65" y1="32.5" x2="874.02" y2="605.08" gradientTransform="matrix(1, 0, 0, -1, 0, 780)" gradientUnits="userSpaceOnUse"><stop offset="0" stop-color="#685402"/><stop offset="0.53" stop-color="#e0b700"/><stop offset="0.6" stop-color="#dbb300"/><stop offset="0.69" stop-color="#cca600"/><stop offset="0.79" stop-color="#b39201"/><stop offset="0.9" stop-color="#907501"/><stop offset="1" stop-color="#685402"/></linearGradient><linearGradient id="Безымянный_градиент_3" x1="744.87" y1="20.23" x2="915.24" y2="592.81" gradientTransform="matrix(1, 0, 0, -1, -200.6, 633.3)" xlink:href="#Безымянный_градиент_2"/><linearGradient id="Безымянный_градиент_4" x1="766.28" y1="13.86" x2="936.65" y2="586.44" gradientTransform="matrix(1, 0, 0, -1, -200.6, 633.3)" xlink:href="#Безымянный_градиент_2"/><linearGradient id="Безымянный_градиент_5" x1="485.9" y1="97.29" x2="656.27" y2="669.87" gradientTransform="matrix(1, 0, 0, -1, -200.6, 633.3)" xlink:href="#Безымянный_градиент_2"/><linearGradient id="Безымянный_градиент_6" x1="507.31" y1="90.92" x2="677.68" y2="663.5" gradientTransform="matrix(1, 0, 0, -1, -200.6, 633.3)" xlink:href="#Безымянный_градиент_2"/><linearGradient id="Безымянный_градиент_7" x1="528.76" y1="84.54" x2="699.13" y2="657.12" xlink:href="#Безымянный_градиент_2"/><linearGradient id="Безымянный_градиент_8" x1="467.5" y1="102.77" x2="637.87" y2="675.35" xlink:href="#Безымянный_градиент_2"/><linearGradient id="Безымянный_градиент_9" x1="723.43" y1="26.61" x2="893.8" y2="599.19" gradientTransform="matrix(1, 0, 0, -1, 0, 780)" gradientUnits="userSpaceOnUse"><stop offset="0.41" stop-color="#685402"/><stop offset="0.53" stop-color="#7c6402"/><stop offset="0.76" stop-color="#af8e01"/><stop offset="0.89" stop-color="#cca600"/></linearGradient></defs><path class="cls-1" d="M946.5,635.3h-693a52.81,52.81,0,0,1-52.8-52.8V327.1a15.72,15.72,0,0,1,4.6-11.2L369.8,151.3a16.11,16.11,0,0,1,11.2-4.6H946.6a52.81,52.81,0,0,1,52.8,52.8v383A52.9,52.9,0,0,1,946.5,635.3Z" transform="translate(-200.6 -146.7)"/><line class="cls-2" y1="173.9" x2="173.9"/><path class="cls-3" d="M936.7,520l-17.5,17.4a5.22,5.22,0,0,1-3.7,1.6H687.7V243h62.7V479.5H938.3v36.8A5.22,5.22,0,0,1,936.7,520Z" transform="translate(-200.6 -146.7)"/><rect class="cls-3" x="593.6" y="174.6" width="144.1" height="61.1"/><rect class="cls-3" x="593.6" y="252.9" width="144.1" height="61.1"/><rect class="cls-3" x="311.7" y="174.6" width="144.1" height="61.1"/><rect class="cls-3" x="311.7" y="252.9" width="144.1" height="61.1"/><path class="cls-3" d="M534.6,539a5.66,5.66,0,0,1-3.7-1.6l-17-17a5.59,5.59,0,0,1-1.5-3.7V477.9h144V539Z" transform="translate(-200.6 -146.7)"/><path class="cls-3" d="M534.6,243.1a5.12,5.12,0,0,0-3.7,1.5l-17,17a5.59,5.59,0,0,0-1.5,3.7v38.8h144V243Z" transform="translate(-200.6 -146.7)"/><path class="cls-3" d="M916,243.1a5.12,5.12,0,0,1,3.7,1.5l17,17a5.59,5.59,0,0,1,1.5,3.7v38.8h-144V243Z" transform="translate(-200.6 -146.7)"/><path class="cls-4" d="M936.7,520l-17.5,17.4a5.22,5.22,0,0,1-3.7,1.6H687.7V243h62.7V479.5H938.3v36.8A5.22,5.22,0,0,1,936.7,520Z" transform="translate(-200.6 -146.7)"/><rect class="cls-5" x="593.6" y="174.6" width="144.1" height="61.1"/><rect class="cls-6" x="593.6" y="252.9" width="144.1" height="61.1"/><rect class="cls-7" x="311.7" y="174.6" width="144.1" height="61.1"/><rect class="cls-8" x="311.7" y="252.9" width="144.1" height="61.1"/><path class="cls-9" d="M534.6,539a5.66,5.66,0,0,1-3.7-1.6l-17-17a5.59,5.59,0,0,1-1.5-3.7V477.9h144V539Z" transform="translate(-200.6 -146.7)"/><path class="cls-10" d="M534.6,243.1a5.12,5.12,0,0,0-3.7,1.5l-17,17a5.59,5.59,0,0,0-1.5,3.7v38.8h144V243Z" transform="translate(-200.6 -146.7)"/><path class="cls-11" d="M916,243.1a5.12,5.12,0,0,1,3.7,1.5l17,17a5.59,5.59,0,0,1,1.5,3.7v38.8h-144V243Z" transform="translate(-200.6 -146.7)"/></svg>