<?xml version="1.0" encoding="UTF-8" standalone="no"?>
<svg
   id="Слой_1"
   data-name="Слой 1"
   viewBox="0 0 798.79999 488.60001"
   version="1.1"
   sodipodi:docname="E10ds-icon-sim-alt.svg"
   width="798.79999"
   height="488.60001"
   inkscape:version="1.2.2 (b0a84865, 2022-12-01)"
   xmlns:inkscape="http://www.inkscape.org/namespaces/inkscape"
   xmlns:sodipodi="http://sodipodi.sourceforge.net/DTD/sodipodi-0.dtd"
   xmlns:xlink="http://www.w3.org/1999/xlink"
   xmlns="http://www.w3.org/2000/svg"
   xmlns:svg="http://www.w3.org/2000/svg">
  <sodipodi:namedview
     id="namedview490"
     pagecolor="#ffffff"
     bordercolor="#000000"
     borderopacity="0.25"
     inkscape:showpageshadow="2"
     inkscape:pageopacity="0.0"
     inkscape:pagecheckerboard="0"
     inkscape:deskcolor="#d1d1d1"
     showgrid="false"
     inkscape:zoom="0.30179028"
     inkscape:cx="107.69068"
     inkscape:cy="33.135593"
     inkscape:window-width="1534"
     inkscape:window-height="456"
     inkscape:window-x="0"
     inkscape:window-y="25"
     inkscape:window-maximized="0"
     inkscape:current-layer="Слой_1" />
  <defs
     id="defs451">
    <style
       id="style414">.cls-1{fill:url(#Безымянный_градиент_16);}.cls-2{fill:none;}.cls-3{fill:#e0b700;}.cls-4{fill:url(#Безымянный_градиент_2);}.cls-5{fill:url(#Безымянный_градиент_3);}.cls-6{fill:url(#Безымянный_градиент_4);}.cls-7{fill:url(#Безымянный_градиент_5);}.cls-8{fill:url(#Безымянный_градиент_6);}.cls-9{fill:url(#Безымянный_градиент_7);}.cls-10{fill:url(#Безымянный_градиент_8);}.cls-11{fill:url(#Безымянный_градиент_25);}</style>
    <linearGradient
       id="Безымянный_градиент_16"
       x1="483.89001"
       y1="888.94"
       x2="753.76001"
       y2="-109.47"
       gradientTransform="translate(-200.60001,-148.7)"
       gradientUnits="userSpaceOnUse">
      <stop
         offset="0.27"
         stop-color="#dcdcdc"
         id="stop416" />
      <stop
         offset="0.75"
         stop-color="#dededd"
         id="stop418" />
    </linearGradient>
    <linearGradient
       id="Безымянный_градиент_2"
       x1="703.65002"
       y1="749.5"
       x2="874.02002"
       y2="176.92"
       gradientTransform="translate(0,-2)"
       gradientUnits="userSpaceOnUse">
      <stop
         offset="0"
         stop-color="#685402"
         id="stop421" />
      <stop
         offset="0.53"
         stop-color="#e0b700"
         id="stop423" />
      <stop
         offset="0.6"
         stop-color="#dbb300"
         id="stop425" />
      <stop
         offset="0.69"
         stop-color="#cca600"
         id="stop427" />
      <stop
         offset="0.79"
         stop-color="#b39201"
         id="stop429" />
      <stop
         offset="0.9"
         stop-color="#907501"
         id="stop431" />
      <stop
         offset="1"
         stop-color="#685402"
         id="stop433" />
    </linearGradient>
    <linearGradient
       id="Безымянный_градиент_3"
       x1="744.88"
       y1="761.77002"
       x2="915.25"
       y2="189.19"
       xlink:href="#%D0%91%D0%B5%D0%B7%D1%8B%D0%BC%D1%8F%D0%BD%D0%BD%D1%8B%D0%B9_%D0%B3%D1%80%D0%B0%D0%B4%D0%B8%D0%B5%D0%BD%D1%82_2"
       gradientTransform="translate(-200.60001,-146.7)" />
    <linearGradient
       id="Безымянный_градиент_4"
       x1="766.28003"
       y1="768.14001"
       x2="936.65002"
       y2="195.56"
       xlink:href="#%D0%91%D0%B5%D0%B7%D1%8B%D0%BC%D1%8F%D0%BD%D0%BD%D1%8B%D0%B9_%D0%B3%D1%80%D0%B0%D0%B4%D0%B8%D0%B5%D0%BD%D1%82_2"
       gradientTransform="translate(-200.60001,-146.7)" />
    <linearGradient
       id="Безымянный_градиент_5"
       x1="485.89999"
       y1="684.71002"
       x2="656.27002"
       y2="112.13"
       xlink:href="#%D0%91%D0%B5%D0%B7%D1%8B%D0%BC%D1%8F%D0%BD%D0%BD%D1%8B%D0%B9_%D0%B3%D1%80%D0%B0%D0%B4%D0%B8%D0%B5%D0%BD%D1%82_2"
       gradientTransform="translate(-200.60001,-146.7)" />
    <linearGradient
       id="Безымянный_градиент_6"
       x1="507.31"
       y1="691.08002"
       x2="677.67999"
       y2="118.5"
       xlink:href="#%D0%91%D0%B5%D0%B7%D1%8B%D0%BC%D1%8F%D0%BD%D0%BD%D1%8B%D0%B9_%D0%B3%D1%80%D0%B0%D0%B4%D0%B8%D0%B5%D0%BD%D1%82_2"
       gradientTransform="translate(-200.60001,-146.7)" />
    <linearGradient
       id="Безымянный_градиент_7"
       x1="528.76001"
       y1="697.46002"
       x2="699.13"
       y2="124.88"
       xlink:href="#%D0%91%D0%B5%D0%B7%D1%8B%D0%BC%D1%8F%D0%BD%D0%BD%D1%8B%D0%B9_%D0%B3%D1%80%D0%B0%D0%B4%D0%B8%D0%B5%D0%BD%D1%82_2"
       gradientTransform="translate(-200.60001,-146.7)" />
    <linearGradient
       id="Безымянный_градиент_8"
       x1="467.5"
       y1="679.22998"
       x2="637.87"
       y2="106.65"
       xlink:href="#%D0%91%D0%B5%D0%B7%D1%8B%D0%BC%D1%8F%D0%BD%D0%BD%D1%8B%D0%B9_%D0%B3%D1%80%D0%B0%D0%B4%D0%B8%D0%B5%D0%BD%D1%82_2"
       gradientTransform="translate(-200.60001,-146.7)" />
    <linearGradient
       id="Безымянный_градиент_25"
       x1="723.42999"
       y1="755.39001"
       x2="893.79999"
       y2="182.81"
       gradientTransform="translate(-200.60001,-148.7)"
       gradientUnits="userSpaceOnUse">
      <stop
         offset="0.41"
         stop-color="#685402"
         id="stop442" />
      <stop
         offset="0.53"
         stop-color="#7c6402"
         id="stop444" />
      <stop
         offset="0.76"
         stop-color="#af8e01"
         id="stop446" />
      <stop
         offset="0.89"
         stop-color="#cca600"
         id="stop448" />
    </linearGradient>
    <linearGradient
       inkscape:collect="always"
       xlink:href="#Безымянный_градиент_2"
       id="linearGradient609"
       gradientUnits="userSpaceOnUse"
       gradientTransform="translate(-200.60001,-148.7)"
       x1="703.65002"
       y1="749.5"
       x2="874.02002"
       y2="176.92" />
  </defs>
  <path
     class="cls-1"
     d="M 745.89999,488.6 H 52.899994 A 52.81,52.81 0 0 1 0.0999939,435.8 V 180.4 a 15.72,15.72 0 0 1 4.6,-11.2 L 169.19999,4.6000031 a 16.13,16.13 0 0 1 11.2,-4.6000000482422 h 565.6 A 52.81,52.81 0 0 1 798.79999,52.800003 V 435.8 a 52.9,52.9 0 0 1 -52.9,52.8 z"
     id="path453"
     style="fill:url(#%D0%91%D0%B5%D0%B7%D1%8B%D0%BC%D1%8F%D0%BD%D0%BD%D1%8B%D0%B9_%D0%B3%D1%80%D0%B0%D0%B4%D0%B8%D0%B5%D0%BD%D1%82_16)" />
  <line
     class="cls-2"
     x1="0"
     y1="173.90001"
     x2="173.89999"
     y2="0"
     id="line455" />
  <path
     class="cls-3"
     d="m 736.09999,373.3 -17.5,17.4 a 5.22,5.22 0 0 1 -3.7,1.6 h -227.8 V 96.300003 h 62.7 V 332.8 h 187.9 v 36.8 a 5.22,5.22 0 0 1 -1.6,3.7 z"
     id="path457" />
  <rect
     class="cls-3"
     x="593.59998"
     y="174.59999"
     width="144.10001"
     height="61.099998"
     id="rect459" />
  <rect
     class="cls-3"
     x="593.59998"
     y="252.90001"
     width="144.10001"
     height="61.099998"
     id="rect461" />
  <rect
     class="cls-3"
     x="311.69998"
     y="174.59999"
     width="144.10001"
     height="61.099998"
     id="rect463" />
  <rect
     class="cls-3"
     x="311.69998"
     y="252.90001"
     width="144.10001"
     height="61.099998"
     id="rect465" />
  <path
     class="cls-3"
     d="m 333.99999,392.3 a 5.66,5.66 0 0 1 -3.7,-1.6 l -17,-17 a 5.59,5.59 0 0 1 -1.5,-3.7 v -38.8 h 144 v 61.1 z"
     id="path467" />
  <path
     class="cls-3"
     d="m 333.99999,96.400003 a 5.12,5.12 0 0 0 -3.7,1.5 l -17,16.999997 a 5.59,5.59 0 0 0 -1.5,3.7 v 38.8 h 144 V 96.300003 Z"
     id="path469" />
  <path
     class="cls-3"
     d="m 715.39999,96.400003 a 5.12,5.12 0 0 1 3.7,1.5 l 17,16.999997 a 5.59,5.59 0 0 1 1.5,3.7 v 38.8 h -144 V 96.300003 Z"
     id="path471" />
  <path
     class="cls-4"
     d="m 736.09999,373.3 -17.5,17.4 a 5.22,5.22 0 0 1 -3.7,1.6 h -227.8 V 96.300003 h 62.7 V 332.8 h 187.9 v 36.8 a 5.22,5.22 0 0 1 -1.6,3.7 z"
     id="path473"
     style="fill:url(#linearGradient609)" />
  <rect
     class="cls-5"
     x="593.59998"
     y="174.59999"
     width="144.10001"
     height="61.099998"
     id="rect475"
     style="fill:url(#%D0%91%D0%B5%D0%B7%D1%8B%D0%BC%D1%8F%D0%BD%D0%BD%D1%8B%D0%B9_%D0%B3%D1%80%D0%B0%D0%B4%D0%B8%D0%B5%D0%BD%D1%82_3)" />
  <rect
     class="cls-6"
     x="593.59998"
     y="252.90001"
     width="144.10001"
     height="61.099998"
     id="rect477"
     style="fill:url(#%D0%91%D0%B5%D0%B7%D1%8B%D0%BC%D1%8F%D0%BD%D0%BD%D1%8B%D0%B9_%D0%B3%D1%80%D0%B0%D0%B4%D0%B8%D0%B5%D0%BD%D1%82_4)" />
  <rect
     class="cls-7"
     x="311.69998"
     y="174.59999"
     width="144.10001"
     height="61.099998"
     id="rect479"
     style="fill:url(#%D0%91%D0%B5%D0%B7%D1%8B%D0%BC%D1%8F%D0%BD%D0%BD%D1%8B%D0%B9_%D0%B3%D1%80%D0%B0%D0%B4%D0%B8%D0%B5%D0%BD%D1%82_5)" />
  <rect
     class="cls-8"
     x="311.69998"
     y="252.90001"
     width="144.10001"
     height="61.099998"
     id="rect481"
     style="fill:url(#%D0%91%D0%B5%D0%B7%D1%8B%D0%BC%D1%8F%D0%BD%D0%BD%D1%8B%D0%B9_%D0%B3%D1%80%D0%B0%D0%B4%D0%B8%D0%B5%D0%BD%D1%82_6)" />
  <path
     class="cls-9"
     d="m 333.99999,392.3 a 5.66,5.66 0 0 1 -3.7,-1.6 l -17,-17 a 5.59,5.59 0 0 1 -1.5,-3.7 v -38.8 h 144 v 61.1 z"
     id="path483"
     style="fill:url(#%D0%91%D0%B5%D0%B7%D1%8B%D0%BC%D1%8F%D0%BD%D0%BD%D1%8B%D0%B9_%D0%B3%D1%80%D0%B0%D0%B4%D0%B8%D0%B5%D0%BD%D1%82_7)" />
  <path
     class="cls-10"
     d="m 333.99999,96.400003 a 5.12,5.12 0 0 0 -3.7,1.5 l -17,16.999997 a 5.59,5.59 0 0 0 -1.5,3.7 v 38.8 h 144 V 96.300003 Z"
     id="path485"
     style="fill:url(#%D0%91%D0%B5%D0%B7%D1%8B%D0%BC%D1%8F%D0%BD%D0%BD%D1%8B%D0%B9_%D0%B3%D1%80%D0%B0%D0%B4%D0%B8%D0%B5%D0%BD%D1%82_8)" />
  <path
     class="cls-11"
     d="m 715.39999,96.400003 a 5.12,5.12 0 0 1 3.7,1.5 l 17,16.999997 a 5.59,5.59 0 0 1 1.5,3.7 v 38.8 h -144 V 96.300003 Z"
     id="path487"
     style="fill:url(#%D0%91%D0%B5%D0%B7%D1%8B%D0%BC%D1%8F%D0%BD%D0%BD%D1%8B%D0%B9_%D0%B3%D1%80%D0%B0%D0%B4%D0%B8%D0%B5%D0%BD%D1%82_25)" />
</svg>
