<?xml version="1.0" encoding="UTF-8" standalone="no"?>
<svg
   id="Слой_1"
   data-name="Слой 1"
   viewBox="0 0 151.83 290.63001"
   version="1.1"
   sodipodi:docname="E11ds-battery-icon-battery.svg"
   width="151.83"
   height="290.63"
   inkscape:version="1.2.2 (b0a84865, 2022-12-01)"
   xmlns:inkscape="http://www.inkscape.org/namespaces/inkscape"
   xmlns:sodipodi="http://sodipodi.sourceforge.net/DTD/sodipodi-0.dtd"
   xmlns="http://www.w3.org/2000/svg"
   xmlns:svg="http://www.w3.org/2000/svg">
  <sodipodi:namedview
     id="namedview147"
     pagecolor="#ffffff"
     bordercolor="#000000"
     borderopacity="0.25"
     inkscape:showpageshadow="2"
     inkscape:pageopacity="0.0"
     inkscape:pagecheckerboard="0"
     inkscape:deskcolor="#d1d1d1"
     showgrid="false"
     inkscape:zoom="0.63012309"
     inkscape:cx="-61.099174"
     inkscape:cy="147.59021"
     inkscape:window-width="1870"
     inkscape:window-height="898"
     inkscape:window-x="0"
     inkscape:window-y="25"
     inkscape:window-maximized="0"
     inkscape:current-layer="Слой_1" />
  <defs
     id="defs134">
    <style
       id="style132">.cls-1{fill:#0096d5;}</style>
  </defs>
  <g
     id="g375"
     transform="rotate(-90,113.275,224.625)"
     style="fill:#ffffff">
    <path
       class="cls-1"
       d="m 260.9,146.35 a 7.53,7.53 0 0 1 7.54,7.54 v 66.75 a 7.53,7.53 0 0 1 -7.54,7.54 H 93.8 a 7.54,7.54 0 0 1 -7.54,-7.54 v -66.75 a 7.54,7.54 0 0 1 7.54,-7.54 h 167.1 m 0,-10 H 93.8 a 17.56,17.56 0 0 0 -17.54,17.54 v 66.75 a 17.56,17.56 0 0 0 17.54,17.54 h 167.1 a 17.56,17.56 0 0 0 17.54,-17.54 V 153.89 A 17.56,17.56 0 0 0 260.9,136.35 Z"
       id="path136"
       style="fill:#ffffff" />
    <path
       class="cls-1"
       d="m 320.36,136.35 h -12.87 v -2.27 A 22.76,22.76 0 0 0 284.75,111.35 H 70 A 22.74,22.74 0 0 0 47.27,134.08 V 240.45 A 22.74,22.74 0 0 0 70,263.18 h 214.75 a 22.76,22.76 0 0 0 22.74,-22.73 v -2.27 h 12.87 a 17.56,17.56 0 0 0 17.54,-17.54 v -66.75 a 17.56,17.56 0 0 0 -17.54,-17.54 z m -22.87,104.1 a 12.73,12.73 0 0 1 -12.74,12.73 H 70 A 12.72,12.72 0 0 1 57.27,240.45 V 134.08 A 12.72,12.72 0 0 1 70,121.35 h 214.75 a 12.73,12.73 0 0 1 12.74,12.73 z m 30.41,-19.81 a 7.53,7.53 0 0 1 -7.54,7.54 h -12.87 v -81.83 h 12.87 a 7.53,7.53 0 0 1 7.54,7.54 z"
       id="path138"
       style="fill:#ffffff" />
    <rect
       class="cls-1"
       x="124.12"
       y="141.10001"
       width="10"
       height="92.32"
       id="rect140"
       style="fill:#ffffff" />
    <rect
       class="cls-1"
       x="220.58"
       y="141.10001"
       width="10"
       height="92.32"
       id="rect142"
       style="fill:#ffffff" />
    <rect
       class="cls-1"
       x="172.35001"
       y="141.10001"
       width="10"
       height="92.32"
       id="rect144"
       style="fill:#ffffff" />
  </g>
</svg>
