<svg width="0" height="0" class="hidden">
    <symbol xmlns="http://www.w3.org/2000/svg" viewBox="0 0 1024 1024" id="icon-search" >
        <path fill="currentColor" d="M416 96c-176.352 0-320 143.648-320 320s143.648 320 320 320c76.641 0 146.82-26.846 202-72l255 255 46-46-255-255c45.154-55.18 72-125.359 72-202 0-176.352-143.648-320-320-320zM416 160c141.764 0 256 114.236 256 256s-114.236 256-256 256-256-114.236-256-256 114.236-256 256-256z"></path>
    </symbol>

    <symbol xmlns="http://www.w3.org/2000/svg" viewBox="0 0 1024 1024" id="icon-close-thin" >
        <path fill="currentColor" d="M231 185l281 281 281-281 46 46-281 281 281 281-46 46-281-281-281 281-46-46 281-281-281-281z"></path>
    </symbol>
</svg>