<svg xmlns="http://www.w3.org/2000/svg" viewBox="0 0 750 500" style="enable-background:new 0 0 750 500" xml:space="preserve"><style>.st0{fill:#e55c45}.st1{fill:#f28555}.st2,.st3{fill:#ffc580}.st3{opacity:.7}.st6{fill:#5a3a7c}.st7{fill:#feffd9}.st8{fill:#752b23}.st9{fill:#4b2117}.st10{fill:#702010}.st11{fill:#3d474f}.st12{fill:#43825e}.st13{fill:#95b464}.st14{fill:#cc6482}.st15{fill:#b7d877}.st16{fill:#2d6343}.st17{fill:#82a5ce}.st18{fill:#4474ad}.st19{fill:#bbceea}.st20{fill:#3e63ad}.st21{fill:#9c3014}.st22{fill:#d83f16}.st23{fill:#f77a38}.st24{fill:#ed5c35}.st25{fill:#c94571}.st26{fill:#b22b5f}.st27{fill:#dd5287}.st28{fill:#e593ae}.st30{fill:#26163a}.st31{fill:#372749}.st32{fill:#604d8c}.st33{fill:#4f3160}</style><g id="BACKGROUND"><g id="Backgorund"><path class="st0" d="M0 0h750.02v303.24H0z"/><path class="st1" d="M0 93.3h750.02v229.93H0z"/><path class="st2" d="M0 316.56h750.02v13.33H0zM0 283.24h750.02v6.66H0zM0 299.9h750.02v6.66H0zM0 269.91h750.02v3.33H0zM0 256.58h750.02v3.33H0zM0 236.59h750.02v3.33H0z"/><path class="st1" d="M3.33 83.31h3.33v3.33H3.33zM6.67 79.97H10v3.33H6.67zM13.33 76.64h3.33v3.33h-3.33zM0 76.64h3.33v3.33H0zM0 86.64h3.33v3.33H0zM6.67 86.64H10v3.33H6.67zM13.33 86.64h3.33v3.33h-3.33zM20 86.64h3.33v3.33H20zM26.67 86.64H30v3.33h-3.33zM33.33 86.64h3.33v3.33h-3.33zM40 86.64h3.33v3.33H40zM46.67 86.64H50v3.33h-3.33zM53.33 86.64h3.33v3.33h-3.33zM60 86.64h3.33v3.33H60zM66.67 86.64H70v3.33h-3.33zM73.34 86.64h3.33v3.33h-3.33zM80 86.64h3.33v3.33H80zM86.67 86.64H90v3.33h-3.33zM93.34 86.64h3.33v3.33h-3.33zM100 86.64h3.33v3.33H100zM106.67 86.64H110v3.33h-3.33zM113.34 86.64h3.33v3.33h-3.33zM120 86.64h3.33v3.33H120zM126.67 86.64H130v3.33h-3.33zM133.34 86.64h3.33v3.33h-3.33zM140 86.64h3.33v3.33H140zM146.67 86.64H150v3.33h-3.33zM153.34 86.64h3.33v3.33h-3.33zM160 86.64h3.33v3.33H160zM166.67 86.64H170v3.33h-3.33zM173.34 86.64h3.33v3.33h-3.33zM180 86.64h3.33v3.33H180zM186.67 86.64H190v3.33h-3.33zM193.34 86.64h3.33v3.33h-3.33zM200 86.64h3.33v3.33H200zM206.67 86.64H210v3.33h-3.33zM213.34 86.64h3.33v3.33h-3.33zM220.01 86.64h3.33v3.33h-3.33zM226.67 86.64H230v3.33h-3.33zM233.34 86.64h3.33v3.33h-3.33zM240.01 86.64h3.33v3.33h-3.33zM246.67 86.64H250v3.33h-3.33zM253.34 86.64h3.33v3.33h-3.33zM260.01 86.64h3.33v3.33h-3.33zM266.67 86.64H270v3.33h-3.33zM273.34 86.64h3.33v3.33h-3.33zM280.01 86.64h3.33v3.33h-3.33zM286.67 86.64H290v3.33h-3.33zM293.34 86.64h3.33v3.33h-3.33zM300.01 86.64h3.33v3.33h-3.33zM306.67 86.64H310v3.33h-3.33zM313.34 86.64h3.33v3.33h-3.33zM320.01 86.64h3.33v3.33h-3.33zM326.67 86.64H330v3.33h-3.33zM333.34 86.64h3.33v3.33h-3.33zM340.01 86.64h3.33v3.33h-3.33zM346.67 86.64H350v3.33h-3.33zM353.34 86.64h3.33v3.33h-3.33zM360.01 86.64h3.33v3.33h-3.33zM366.68 86.64h3.33v3.33h-3.33zM373.34 86.64h3.33v3.33h-3.33zM380.01 86.64h3.33v3.33h-3.33zM386.68 86.64h3.33v3.33h-3.33zM393.34 86.64h3.33v3.33h-3.33zM400.01 86.64h3.33v3.33h-3.33zM406.68 86.64h3.33v3.33h-3.33zM413.34 86.64h3.33v3.33h-3.33zM420.01 86.64h3.33v3.33h-3.33zM426.68 86.64h3.33v3.33h-3.33zM433.34 86.64h3.33v3.33h-3.33zM440.01 86.64h3.33v3.33h-3.33zM446.68 86.64h3.33v3.33h-3.33zM453.34 86.64h3.33v3.33h-3.33zM460.01 86.64h3.33v3.33h-3.33zM466.68 86.64h3.33v3.33h-3.33zM473.34 86.64h3.33v3.33h-3.33zM480.01 86.64h3.33v3.33h-3.33zM486.68 86.64h3.33v3.33h-3.33zM493.34 86.64h3.33v3.33h-3.33zM500.01 86.64h3.33v3.33h-3.33zM506.68 86.64h3.33v3.33h-3.33zM513.35 86.64h3.33v3.33h-3.33zM520.01 86.64h3.33v3.33h-3.33zM526.68 86.64h3.33v3.33h-3.33zM533.35 86.64h3.33v3.33h-3.33zM540.01 86.64h3.33v3.33h-3.33zM546.68 86.64h3.33v3.33h-3.33zM553.35 86.64h3.33v3.33h-3.33zM560.01 86.64h3.33v3.33h-3.33zM566.68 86.64h3.33v3.33h-3.33zM573.35 86.64h3.33v3.33h-3.33zM580.01 86.64h3.33v3.33h-3.33zM586.68 86.64h3.33v3.33h-3.33zM593.35 86.64h3.33v3.33h-3.33zM600.01 86.64h3.33v3.33h-3.33zM606.68 86.64h3.33v3.33h-3.33zM613.35 86.64h3.33v3.33h-3.33zM620.01 86.64h3.33v3.33h-3.33zM626.68 86.64h3.33v3.33h-3.33zM633.35 86.64h3.33v3.33h-3.33zM640.01 86.64h3.33v3.33h-3.33zM646.68 86.64h3.33v3.33h-3.33zM653.35 86.64h3.33v3.33h-3.33zM660.02 86.64h3.33v3.33h-3.33zM666.68 86.64h3.33v3.33h-3.33zM673.35 86.64h3.33v3.33h-3.33zM680.02 86.64h3.33v3.33h-3.33zM686.68 86.64h3.33v3.33h-3.33zM693.35 86.64h3.33v3.33h-3.33zM700.02 86.64h3.33v3.33h-3.33zM706.68 86.64h3.33v3.33h-3.33zM713.35 86.64h3.33v3.33h-3.33zM720.02 86.64h3.33v3.33h-3.33zM726.68 86.64h3.33v3.33h-3.33zM733.35 86.64h3.33v3.33h-3.33zM740.02 86.64h3.33v3.33h-3.33zM746.68 86.64h3.33v3.33h-3.33zM6.67 69.98H10v3.33H6.67zM20 69.98h3.33v3.33H20zM33.33 69.98h3.33v3.33h-3.33zM46.67 69.98H50v3.33h-3.33zM60 69.98h3.33v3.33H60zM73.34 69.98h3.33v3.33h-3.33zM86.67 69.98H90v3.33h-3.33zM100 69.98h3.33v3.33H100zM113.34 69.98h3.33v3.33h-3.33zM126.67 69.98H130v3.33h-3.33zM140 69.98h3.33v3.33H140zM153.34 69.98h3.33v3.33h-3.33zM166.67 69.98H170v3.33h-3.33zM180 69.98h3.33v3.33H180zM193.34 69.98h3.33v3.33h-3.33zM206.67 69.98H210v3.33h-3.33zM220.01 69.98h3.33v3.33h-3.33zM233.34 69.98h3.33v3.33h-3.33zM246.67 69.98H250v3.33h-3.33zM260.01 69.98h3.33v3.33h-3.33zM273.34 69.98h3.33v3.33h-3.33zM286.67 69.98H290v3.33h-3.33zM300.01 69.98h3.33v3.33h-3.33zM313.34 69.98h3.33v3.33h-3.33zM326.67 69.98H330v3.33h-3.33zM340.01 69.98h3.33v3.33h-3.33zM353.34 69.98h3.33v3.33h-3.33zM366.68 69.98h3.33v3.33h-3.33zM380.01 69.98h3.33v3.33h-3.33zM393.34 69.98h3.33v3.33h-3.33zM406.68 69.98h3.33v3.33h-3.33zM420.01 69.98h3.33v3.33h-3.33zM433.34 69.98h3.33v3.33h-3.33zM446.68 69.98h3.33v3.33h-3.33zM460.01 69.98h3.33v3.33h-3.33zM473.34 69.98h3.33v3.33h-3.33zM486.68 69.98h3.33v3.33h-3.33zM500.01 69.98h3.33v3.33h-3.33zM513.35 69.98h3.33v3.33h-3.33zM526.68 69.98h3.33v3.33h-3.33zM540.01 69.98h3.33v3.33h-3.33zM553.35 69.98h3.33v3.33h-3.33zM566.68 69.98h3.33v3.33h-3.33zM580.01 69.98h3.33v3.33h-3.33zM593.35 69.98h3.33v3.33h-3.33zM606.68 69.98h3.33v3.33h-3.33zM620.01 69.98h3.33v3.33h-3.33zM633.35 69.98h3.33v3.33h-3.33zM646.68 69.98h3.33v3.33h-3.33zM660.02 69.98h3.33v3.33h-3.33zM673.35 69.98h3.33v3.33h-3.33zM686.68 69.98h3.33v3.33h-3.33zM700.02 69.98h3.33v3.33h-3.33zM713.35 69.98h3.33v3.33h-3.33zM726.68 69.98h3.33v3.33h-3.33zM740.02 69.98h3.33v3.33h-3.33zM733.35 59.98h3.33v3.33h-3.33zM720.02 59.98h3.33v3.33h-3.33zM706.68 59.98h3.33v3.33h-3.33zM693.35 59.98h3.33v3.33h-3.33zM680.02 59.98h3.33v3.33h-3.33zM666.68 59.98h3.33v3.33h-3.33zM653.35 59.98h3.33v3.33h-3.33zM640.01 59.98h3.33v3.33h-3.33zM626.68 59.98h3.33v3.33h-3.33zM613.35 59.98h3.33v3.33h-3.33zM600.01 59.98h3.33v3.33h-3.33zM586.68 59.98h3.33v3.33h-3.33zM573.35 59.98h3.33v3.33h-3.33zM560.01 59.98h3.33v3.33h-3.33zM546.68 59.98h3.33v3.33h-3.33zM533.35 59.98h3.33v3.33h-3.33zM520.01 59.98h3.33v3.33h-3.33zM506.68 59.98h3.33v3.33h-3.33zM493.34 59.98h3.33v3.33h-3.33zM480.01 59.98h3.33v3.33h-3.33zM466.68 59.98h3.33v3.33h-3.33zM453.34 59.98h3.33v3.33h-3.33zM440.01 59.98h3.33v3.33h-3.33zM426.68 59.98h3.33v3.33h-3.33zM413.34 59.98h3.33v3.33h-3.33zM400.01 59.98h3.33v3.33h-3.33zM386.68 59.98h3.33v3.33h-3.33zM373.34 59.98h3.33v3.33h-3.33zM360.01 59.98h3.33v3.33h-3.33zM346.67 59.98H350v3.33h-3.33zM333.34 59.98h3.33v3.33h-3.33zM320.01 59.98h3.33v3.33h-3.33zM306.67 59.98H310v3.33h-3.33zM293.34 59.98h3.33v3.33h-3.33zM280.01 59.98h3.33v3.33h-3.33zM266.67 59.98H270v3.33h-3.33zM253.34 59.98h3.33v3.33h-3.33zM240.01 59.98h3.33v3.33h-3.33zM226.67 59.98H230v3.33h-3.33zM213.34 59.98h3.33v3.33h-3.33zM200 59.98h3.33v3.33H200zM186.67 59.98H190v3.33h-3.33zM173.34 59.98h3.33v3.33h-3.33zM160 59.98h3.33v3.33H160zM146.67 59.98H150v3.33h-3.33zM133.34 59.98h3.33v3.33h-3.33zM120 59.98h3.33v3.33H120zM106.67 59.98H110v3.33h-3.33zM93.34 59.98h3.33v3.33h-3.33zM80 59.98h3.33v3.33H80zM66.67 59.98H70v3.33h-3.33zM53.33 59.98h3.33v3.33h-3.33zM40 59.98h3.33v3.33H40zM26.67 59.98H30v3.33h-3.33zM13.33 59.98h3.33v3.33h-3.33zM0 59.98h3.33v3.33H0zM746.68 59.98h3.33v3.33h-3.33zM26.67 76.64H30v3.33h-3.33zM40 76.64h3.33v3.33H40zM53.33 76.64h3.33v3.33h-3.33zM66.67 76.64H70v3.33h-3.33zM80 76.64h3.33v3.33H80zM93.34 76.64h3.33v3.33h-3.33zM106.67 76.64H110v3.33h-3.33zM120 76.64h3.33v3.33H120zM133.34 76.64h3.33v3.33h-3.33zM146.67 76.64H150v3.33h-3.33zM160 76.64h3.33v3.33H160zM173.34 76.64h3.33v3.33h-3.33zM186.67 76.64H190v3.33h-3.33zM200 76.64h3.33v3.33H200zM213.34 76.64h3.33v3.33h-3.33zM226.67 76.64H230v3.33h-3.33zM240.01 76.64h3.33v3.33h-3.33zM253.34 76.64h3.33v3.33h-3.33zM266.67 76.64H270v3.33h-3.33zM280.01 76.64h3.33v3.33h-3.33zM293.34 76.64h3.33v3.33h-3.33zM306.67 76.64H310v3.33h-3.33zM320.01 76.64h3.33v3.33h-3.33zM333.34 76.64h3.33v3.33h-3.33zM346.67 76.64H350v3.33h-3.33zM360.01 76.64h3.33v3.33h-3.33zM373.34 76.64h3.33v3.33h-3.33zM386.68 76.64h3.33v3.33h-3.33zM400.01 76.64h3.33v3.33h-3.33zM413.34 76.64h3.33v3.33h-3.33zM426.68 76.64h3.33v3.33h-3.33zM440.01 76.64h3.33v3.33h-3.33zM453.34 76.64h3.33v3.33h-3.33zM466.68 76.64h3.33v3.33h-3.33zM480.01 76.64h3.33v3.33h-3.33zM493.34 76.64h3.33v3.33h-3.33zM506.68 76.64h3.33v3.33h-3.33zM520.01 76.64h3.33v3.33h-3.33zM533.35 76.64h3.33v3.33h-3.33zM546.68 76.64h3.33v3.33h-3.33zM560.01 76.64h3.33v3.33h-3.33zM573.35 76.64h3.33v3.33h-3.33zM586.68 76.64h3.33v3.33h-3.33zM600.01 76.64h3.33v3.33h-3.33zM613.35 76.64h3.33v3.33h-3.33zM626.68 76.64h3.33v3.33h-3.33zM640.01 76.64h3.33v3.33h-3.33zM653.35 76.64h3.33v3.33h-3.33zM666.68 76.64h3.33v3.33h-3.33zM680.02 76.64h3.33v3.33h-3.33zM693.35 76.64h3.33v3.33h-3.33zM706.68 76.64h3.33v3.33h-3.33zM720.02 76.64h3.33v3.33h-3.33zM733.35 76.64h3.33v3.33h-3.33zM746.68 76.64h3.33v3.33h-3.33zM20 79.97h3.33v3.33H20zM33.33 79.97h3.33v3.33h-3.33zM46.67 79.97H50v3.33h-3.33zM60 79.97h3.33v3.33H60zM73.34 79.97h3.33v3.33h-3.33zM86.67 79.97H90v3.33h-3.33zM100 79.97h3.33v3.33H100zM113.34 79.97h3.33v3.33h-3.33zM126.67 79.97H130v3.33h-3.33zM140 79.97h3.33v3.33H140zM153.34 79.97h3.33v3.33h-3.33zM166.67 79.97H170v3.33h-3.33zM180 79.97h3.33v3.33H180zM193.34 79.97h3.33v3.33h-3.33zM206.67 79.97H210v3.33h-3.33zM220.01 79.97h3.33v3.33h-3.33zM233.34 79.97h3.33v3.33h-3.33zM246.67 79.97H250v3.33h-3.33zM260.01 79.97h3.33v3.33h-3.33zM273.34 79.97h3.33v3.33h-3.33zM286.67 79.97H290v3.33h-3.33zM300.01 79.97h3.33v3.33h-3.33zM313.34 79.97h3.33v3.33h-3.33zM326.67 79.97H330v3.33h-3.33zM340.01 79.97h3.33v3.33h-3.33zM353.34 79.97h3.33v3.33h-3.33zM366.68 79.97h3.33v3.33h-3.33zM380.01 79.97h3.33v3.33h-3.33zM393.34 79.97h3.33v3.33h-3.33zM406.68 79.97h3.33v3.33h-3.33zM420.01 79.97h3.33v3.33h-3.33zM433.34 79.97h3.33v3.33h-3.33zM446.68 79.97h3.33v3.33h-3.33zM460.01 79.97h3.33v3.33h-3.33zM473.34 79.97h3.33v3.33h-3.33zM486.68 79.97h3.33v3.33h-3.33zM500.01 79.97h3.33v3.33h-3.33zM513.35 79.97h3.33v3.33h-3.33zM526.68 79.97h3.33v3.33h-3.33zM540.01 79.97h3.33v3.33h-3.33zM553.35 79.97h3.33v3.33h-3.33zM566.68 79.97h3.33v3.33h-3.33zM580.01 79.97h3.33v3.33h-3.33zM593.35 79.97h3.33v3.33h-3.33zM606.68 79.97h3.33v3.33h-3.33zM620.01 79.97h3.33v3.33h-3.33zM633.35 79.97h3.33v3.33h-3.33zM646.68 79.97h3.33v3.33h-3.33zM660.02 79.97h3.33v3.33h-3.33zM673.35 79.97h3.33v3.33h-3.33zM686.68 79.97h3.33v3.33h-3.33zM700.02 79.97h3.33v3.33h-3.33zM713.35 79.97h3.33v3.33h-3.33zM726.68 79.97h3.33v3.33h-3.33zM740.02 79.97h3.33v3.33h-3.33zM10 83.31h3.33v3.33H10zM16.67 83.31H20v3.33h-3.33zM23.33 83.31h3.33v3.33h-3.33zM30 83.31h3.33v3.33H30zM36.67 83.31H40v3.33h-3.33zM43.33 83.31h3.33v3.33h-3.33zM50 83.31h3.33v3.33H50zM56.67 83.31H60v3.33h-3.33zM63.33 83.31h3.33v3.33h-3.33zM70 83.31h3.33v3.33H70zM76.67 83.31H80v3.33h-3.33zM83.34 83.31h3.33v3.33h-3.33zM90 83.31h3.33v3.33H90zM96.67 83.31H100v3.33h-3.33zM103.34 83.31h3.33v3.33h-3.33zM110 83.31h3.33v3.33H110zM116.67 83.31H120v3.33h-3.33zM123.34 83.31h3.33v3.33h-3.33zM130 83.31h3.33v3.33H130zM136.67 83.31H140v3.33h-3.33zM143.34 83.31h3.33v3.33h-3.33zM150 83.31h3.33v3.33H150zM156.67 83.31H160v3.33h-3.33zM163.34 83.31h3.33v3.33h-3.33zM170 83.31h3.33v3.33H170zM176.67 83.31H180v3.33h-3.33zM183.34 83.31h3.33v3.33h-3.33zM190 83.31h3.33v3.33H190zM196.67 83.31H200v3.33h-3.33zM203.34 83.31h3.33v3.33h-3.33zM210 83.31h3.33v3.33H210zM216.67 83.31H220v3.33h-3.33zM223.34 83.31h3.33v3.33h-3.33zM230.01 83.31h3.33v3.33h-3.33zM236.67 83.31H240v3.33h-3.33zM243.34 83.31h3.33v3.33h-3.33zM250.01 83.31h3.33v3.33h-3.33zM256.67 83.31H260v3.33h-3.33zM263.34 83.31h3.33v3.33h-3.33zM270.01 83.31h3.33v3.33h-3.33zM276.67 83.31H280v3.33h-3.33zM283.34 83.31h3.33v3.33h-3.33zM290.01 83.31h3.33v3.33h-3.33zM296.67 83.31H300v3.33h-3.33zM303.34 83.31h3.33v3.33h-3.33zM310.01 83.31h3.33v3.33h-3.33zM316.67 83.31H320v3.33h-3.33zM323.34 83.31h3.33v3.33h-3.33zM330.01 83.31h3.33v3.33h-3.33zM336.67 83.31H340v3.33h-3.33zM343.34 83.31h3.33v3.33h-3.33zM350.01 83.31h3.33v3.33h-3.33zM356.67 83.31H360v3.33h-3.33zM363.34 83.31h3.33v3.33h-3.33zM370.01 83.31h3.33v3.33h-3.33zM376.68 83.31h3.33v3.33h-3.33zM383.34 83.31h3.33v3.33h-3.33zM390.01 83.31h3.33v3.33h-3.33zM396.68 83.31h3.33v3.33h-3.33zM403.34 83.31h3.33v3.33h-3.33zM410.01 83.31h3.33v3.33h-3.33zM416.68 83.31h3.33v3.33h-3.33zM423.34 83.31h3.33v3.33h-3.33zM430.01 83.31h3.33v3.33h-3.33zM436.68 83.31h3.33v3.33h-3.33zM443.34 83.31h3.33v3.33h-3.33zM450.01 83.31h3.33v3.33h-3.33zM456.68 83.31h3.33v3.33h-3.33zM463.34 83.31h3.33v3.33h-3.33zM470.01 83.31h3.33v3.33h-3.33zM476.68 83.31h3.33v3.33h-3.33zM483.34 83.31h3.33v3.33h-3.33zM490.01 83.31h3.33v3.33h-3.33zM496.68 83.31h3.33v3.33h-3.33zM503.34 83.31h3.33v3.33h-3.33zM510.01 83.31h3.33v3.33h-3.33zM516.68 83.31h3.33v3.33h-3.33zM523.35 83.31h3.33v3.33h-3.33zM530.01 83.31h3.33v3.33h-3.33zM536.68 83.31h3.33v3.33h-3.33zM543.35 83.31h3.33v3.33h-3.33zM550.01 83.31h3.33v3.33h-3.33zM556.68 83.31h3.33v3.33h-3.33zM563.35 83.31h3.33v3.33h-3.33zM570.01 83.31h3.33v3.33h-3.33zM576.68 83.31h3.33v3.33h-3.33zM583.35 83.31h3.33v3.33h-3.33zM590.01 83.31h3.33v3.33h-3.33zM596.68 83.31h3.33v3.33h-3.33zM603.35 83.31h3.33v3.33h-3.33zM610.01 83.31h3.33v3.33h-3.33zM616.68 83.31h3.33v3.33h-3.33zM623.35 83.31h3.33v3.33h-3.33zM630.01 83.31h3.33v3.33h-3.33zM636.68 83.31h3.33v3.33h-3.33zM643.35 83.31h3.33v3.33h-3.33zM650.01 83.31h3.33v3.33h-3.33zM656.68 83.31h3.33v3.33h-3.33zM663.35 83.31h3.33v3.33h-3.33zM670.02 83.31h3.33v3.33h-3.33zM676.68 83.31h3.33v3.33h-3.33zM683.35 83.31h3.33v3.33h-3.33zM690.02 83.31h3.33v3.33h-3.33zM696.68 83.31h3.33v3.33h-3.33zM703.35 83.31h3.33v3.33h-3.33zM710.02 83.31h3.33v3.33h-3.33zM716.68 83.31h3.33v3.33h-3.33zM723.35 83.31h3.33v3.33h-3.33zM730.02 83.31h3.33v3.33h-3.33zM736.68 83.31h3.33v3.33h-3.33zM743.35 83.31h3.33v3.33h-3.33zM736.68 89.97h10v3.33h-10zM723.35 89.97h10v3.33h-10zM710.02 89.97h10v3.33h-10zM696.68 89.97h10v3.33h-10zM683.35 89.97h10v3.33h-10zM670.02 89.97h10v3.33h-10zM656.68 89.97h10v3.33h-10zM643.35 89.97h10v3.33h-10zM630.01 89.97h10v3.33h-10zM616.68 89.97h10v3.33h-10zM603.35 89.97h10v3.33h-10zM590.01 89.97h10v3.33h-10zM576.68 89.97h10v3.33h-10zM563.35 89.97h10v3.33h-10zM550.01 89.97h10v3.33h-10zM536.68 89.97h10v3.33h-10zM523.35 89.97h10v3.33h-10zM510.01 89.97h10v3.33h-10zM496.68 89.97h10v3.33h-10zM483.34 89.97h10v3.33h-10zM470.01 89.97h10v3.33h-10zM456.68 89.97h10v3.33h-10zM443.34 89.97h10v3.33h-10zM430.01 89.97h10v3.33h-10zM416.68 89.97h10v3.33h-10zM403.34 89.97h10v3.33h-10zM390.01 89.97h10v3.33h-10zM376.68 89.97h10v3.33h-10zM363.34 89.97h10v3.33h-10zM350.01 89.97h10v3.33h-10zM336.67 89.97h10v3.33h-10zM323.34 89.97h10v3.33h-10zM310.01 89.97h10v3.33h-10zM296.67 89.97h10v3.33h-10zM283.34 89.97h10v3.33h-10zM270.01 89.97h10v3.33h-10zM256.67 89.97h10v3.33h-10zM243.34 89.97h10v3.33h-10zM230.01 89.97h10v3.33h-10zM216.67 89.97h10v3.33h-10zM203.34 89.97h10v3.33h-10zM190 89.97h10v3.33h-10zM176.67 89.97h10v3.33h-10zM163.34 89.97h10v3.33h-10zM150 89.97h10v3.33h-10zM136.67 89.97h10v3.33h-10zM123.34 89.97h10v3.33h-10zM110 89.97h10v3.33h-10zM96.67 89.97h10v3.33h-10zM83.34 89.97h10v3.33h-10zM70 89.97h10v3.33H70zM56.67 89.97h10v3.33h-10zM43.33 89.97h10v3.33h-10zM30 89.97h10v3.33H30zM16.67 89.97h10v3.33h-10zM3.33 89.97h10v3.33h-10zM743.35 93.3h6.67v3.33h-6.67zM730.02 93.3h10v3.33h-10zM716.68 93.3h10v3.33h-10zM703.35 93.3h10v3.33h-10zM690.02 93.3h10v3.33h-10zM676.68 93.3h10v3.33h-10zM663.35 93.3h10v3.33h-10zM650.01 93.3h10v3.33h-10zM636.68 93.3h10v3.33h-10zM623.35 93.3h10v3.33h-10zM610.01 93.3h10v3.33h-10zM596.68 93.3h10v3.33h-10zM583.35 93.3h10v3.33h-10zM570.01 93.3h10v3.33h-10zM556.68 93.3h10v3.33h-10zM543.35 93.3h10v3.33h-10zM530.01 93.3h10v3.33h-10zM516.68 93.3h10v3.33h-10zM503.34 93.3h10v3.33h-10zM490.01 93.3h10v3.33h-10zM476.68 93.3h10v3.33h-10zM463.34 93.3h10v3.33h-10zM450.01 93.3h10v3.33h-10zM436.68 93.3h10v3.33h-10zM423.34 93.3h10v3.33h-10zM410.01 93.3h10v3.33h-10zM396.68 93.3h10v3.33h-10zM383.34 93.3h10v3.33h-10zM370.01 93.3h10v3.33h-10zM356.67 93.3h10v3.33h-10zM343.34 93.3h10v3.33h-10zM330.01 93.3h10v3.33h-10zM316.67 93.3h10v3.33h-10zM303.34 93.3h10v3.33h-10zM290.01 93.3h10v3.33h-10zM276.67 93.3h10v3.33h-10zM263.34 93.3h10v3.33h-10zM250.01 93.3h10v3.33h-10zM236.67 93.3h10v3.33h-10zM223.34 93.3h10v3.33h-10zM210 93.3h10v3.33h-10zM196.67 93.3h10v3.33h-10zM183.34 93.3h10v3.33h-10zM170 93.3h10v3.33h-10zM156.67 93.3h10v3.33h-10zM143.34 93.3h10v3.33h-10zM130 93.3h10v3.33h-10zM116.67 93.3h10v3.33h-10zM103.34 93.3h10v3.33h-10zM90 93.3h10v3.33H90zM76.67 93.3h10v3.33h-10zM63.33 93.3h10v3.33h-10zM50 93.3h10v3.33H50zM36.67 93.3h10v3.33h-10zM23.33 93.3h10v3.33h-10zM10 93.3h10v3.33H10zM0 93.3h6.67v3.33H0z"/><path class="st0" d="M0 139.95h750.02v10H0zM0 163.28h750.02v6.66H0zM0 183.27h750.02v3.33H0z"/><path class="st1" d="M0 323.23h750.02v3.33H0z"/><path class="st3" d="M750.02 240.76H583.35v-4.17h-36.67v-3.33h20v-3.33h23.33v-3.34h26.67v-3.33h-83.33v-3.33h-46.67v-3.33h-26.67v-3.34h-60v-3.33h6.67v-3.33h13.33v-3.33h23.33v-3.33h33.34v-3.34h3.33v-3.33h-110v-3.33h30v-3.33h16.67v-3.34h23.33v-3.33h40v-3.33h16.67v-3.33h13.33v-3.33h13.34v-3.34h6.66v-3.33h40v-3.33h40v3.33h20v-6.66h6.67v-3.34h6.67v-3.33h56.67v3.33h10v3.34h16.66v3.33h23.34zM666.68 89.97H560.01v3.33h-13.33v3.34h-6.67v3.33h-18.7v3.33h-11.3v3.33h-23.33v-3.33h-33.34v-3.33h-20v-3.33h-16.66V93.3h-16.67v-3.33h70v-3.33h6.67v-3.33h10v-3.34h-96.67v-3.33h-20v-3.33h-13.34v-3.33h-10v-3.33h-3.33v-3.34h-10v-3.33h100v-3.33h10v-3.33h33.34v-3.34h26.66v-3.33h10.01v3.33h60v3.34h13.33v3.33h10v3.33h16.67v3.33h13.33v3.34h16.67v3.33h6.66v3.33h6.67v3.33h6.67v3.33h10v3.34h20v3.33h-20v3.33z"/></g></g><g id="OBJECTS"><g id="Summer_3"><g id="Mountain"><path style="fill:#794a91" d="M543.71 306.67v-3.34h-6.67V300h-3.34v-3.33h-6.67v-3.34h-3.34V290h-6.67v-3.33h-3.33v-3.34h-6.67V280h-3.34v-3.33h-6.67v-3.34h-6.67V270H487v-3.33h-3.33v-3.34h-3.34V260H477v-3.33h-3.34v-3.34h-3.34V250h-6.67v-3.33h-10V250h-10.01v3.33h-6.67v3.34h-3.34V260h-3.33v3.33h-3.34v3.34h-3.33V270h-3.34v3.33h-3.34v3.34h-3.33v-3.34h-10.01V270H393.6v-3.33h-3.33v-3.34h-6.67v3.34h-10.01V270h-6.67v3.33h-6.67v3.34h-6.67V280h-6.67v3.33h-3.34v3.34h-3.34V290h-3.33v3.33h-3.34v3.34h-6.67V300h-3.33v3.33h-6.67v3.34h-3.34V310h-6.67v3.33h-3.34v3.34h-6.67V320h-6.67v3.33h-3.34v3.34h260.18v-20z"/><path style="fill:#523275" d="M390.27 323.33V320h-10.01v-3.33h-6.67v-3.34h-6.67V310h-10.01v-3.33h-10v-3.34H336.9V300h-13.34v-3.33h-13.35v-3.34h-13.34V290h-13.34v-3.33h-6.67v-3.34h-6.67V280h-6.67v-3.33h-13.35V280h-6.67v3.33h-6.67v3.34h-6.67V290h-6.67v3.33h-6.67v3.34h-6.68V300h-10v3.33h-10.01v3.34h-16.68V310h-10v3.33h-10.01v3.34h-10.01V320h-10v3.33h-10.01v3.34h-6.67V330h283.53v-6.67z"/><path class="st6" d="M687.14 326.67v-3.34h-3.34V320h-6.67v-3.33h-10v-3.34h-10.01V310h-3.34v-3.33h-6.67v-3.34h-6.67V300h-6.67v-3.33h-13.34v-3.34h-10.01V290h-6.67v-3.33h-13.34v-3.34h-13.35V280h-10v-3.33h-10.01v-3.34h-10.01v-.27h-3.33v-9.73h-6.67v3.34h-26.69V270h-13.34v3.33H487v3.34h-10V280h-10.01v3.33h-13.34v3.34H440.3V290h-6.67v3.33h-10v3.34h-13.35V300h-6.67v3.33h-6.67v3.34h-6.67V310h-3.34v3.33h-10v3.34h-10.01V320h-6.67v3.33h-3.34v3.34h-3.33V330h336.9v-3.33z"/></g><g id="Stars_1_"><path class="st7" d="M627.1 116.67h3.34V120h-3.34zM196.8 83.33h3.34v3.33h-3.34zM306.88 33.33h3.34v3.33h-3.34zM557.05 30h3.34v3.33h-3.34zM727.17 113.33h3.34v3.33h-3.34zM373.59 120h3.34v3.33h-3.34z"/></g><g id="objects"><path class="st8" d="M430.3 236.67h3.34V330h-3.34z"/><path transform="rotate(-180 431.981 311.667)" class="st9" d="M430.33 293.33h3.3V330h-3.3z"/><path transform="rotate(-180 431.981 245)" class="st10" d="M430.33 230h3.3v30h-3.3z"/><path transform="rotate(-180 431.981 225)" class="st10" d="M430.33 186.67h3.3v76.67h-3.3z"/><path class="st8" d="M413.62 183.33h23.35v3.33h-23.35z"/><path class="st10" d="M426.96 183.33h23.35v3.33h-23.35zM430.3 180h3.34v3.33h-3.34z"/><path class="st9" d="M440.3 183.33h10.01v3.33H440.3z"/><path class="st8" d="M416.95 186.67h3.34V190h-3.34zM423.63 186.67h3.34V190h-3.34zM436.97 186.67h3.34V190h-3.34zM443.64 186.67h3.34V190h-3.34zM436.97 203.33h3.34v30h-3.34z"/><path class="st9" d="M433.63 200h3.34v36.67h-3.34z"/><path class="st11" d="M433.63 326.67h6.67V330h-6.67z"/><path class="st12" d="M426.96 323.33h3.34v3.33h-3.34zM440.3 323.33h3.34v3.33h-3.34z"/><path class="st11" d="M426.96 330h3.34v3.33h-3.34z"/><path class="st12" d="M423.63 316.67h3.34v6.67h-3.34z"/><g><path class="st8" d="M243.5 253.33h3.34V330h-3.34z"/><path transform="rotate(-180 245.186 311.667)" class="st9" d="M243.53 293.33h3.3V330h-3.3z"/><path transform="rotate(-180 245.186 256.667)" class="st10" d="M243.53 246.67h3.3v20h-3.3z"/><path transform="rotate(-180 245.186 236.667)" class="st10" d="M243.53 210h3.3v53.33h-3.3z"/><path class="st8" d="M226.82 206.67h23.35V210h-23.35z"/><path class="st10" d="M240.17 206.67h23.35V210h-23.35zM243.5 203.33h3.34v3.33h-3.34z"/><path class="st9" d="M253.51 206.67h10.01V210h-10.01z"/><path class="st8" d="M230.16 210h3.34v3.33h-3.34zM236.83 210h3.34v3.33h-3.34zM250.17 210h3.34v3.33h-3.34zM256.84 210h3.34v3.33h-3.34zM250.17 226.67h3.34V250h-3.34z"/><path class="st9" d="M246.84 223.33h3.34v30h-3.34z"/><path class="st11" d="M246.84 326.67h6.67V330h-6.67z"/><path class="st12" d="M240.17 323.33h3.34v3.33h-3.34zM253.51 323.33h3.34v3.33h-3.34z"/><path class="st11" d="M240.17 330h3.34v3.33h-3.34z"/><path class="st12" d="M236.83 316.67h3.34v6.67h-3.34z"/></g><g><path class="st8" d="M43.36 236.67h3.34V330h-3.34z"/><path transform="rotate(-180 45.048 311.667)" class="st9" d="M43.4 293.33h3.3V330h-3.3z"/><path transform="rotate(-180 45.048 245)" class="st10" d="M43.4 230h3.3v30h-3.3z"/><path transform="rotate(-180 45.048 225)" class="st10" d="M43.4 186.67h3.3v76.67h-3.3z"/><path class="st8" d="M26.69 183.33h23.35v3.33H26.69z"/><path class="st10" d="M40.03 183.33h23.35v3.33H40.03zM43.36 180h3.34v3.33h-3.34z"/><path class="st9" d="M53.37 183.33h10.01v3.33H53.37z"/><path class="st8" d="M30.02 186.67h3.34V190h-3.34zM36.69 186.67h3.34V190h-3.34zM50.03 186.67h3.34V190h-3.34zM56.71 186.67h3.34V190h-3.34zM50.03 203.33h3.34v30h-3.34z"/><path class="st9" d="M46.7 200h3.34v36.67H46.7z"/><path class="st11" d="M46.7 326.67h6.67V330H46.7z"/><path class="st12" d="M40.03 323.33h3.34v3.33h-3.34zM53.37 323.33h3.34v3.33h-3.34z"/><path class="st11" d="M40.03 330h3.34v3.33h-3.34z"/><path class="st12" d="M36.69 316.67h3.34v6.67h-3.34z"/></g></g><g id="grass_2_"><path class="st13" d="M6.67 323.33V320H10v-3.33h6.67v-3.34H20V310h3.33v-3.33h3.34v-3.34H30V300h6.67v-3.33h10V300h6.66v3.33h3.34V300h10v3.33h6.67v3.34h3.33v-3.34h6.67V300H90v-3.33h10V300h3.34v-3.33H110v-3.34h10v3.34h6.67V300H130v3.33h3.34v3.34h3.33V310H140v-3.33h10v-3.34h6.67v3.34h-3.33V310h3.33v3.33H160v3.34h3.34V320h3.33v6.67h-3.33V330H0v-6.67zM463.34 323.33h6.67V320h3.33v-3.33h6.67v-3.34h3.33V310h3.34v-3.33h3.33v-3.34h3.33V300h6.67v-6.67h6.67v3.34h3.33v-3.34h3.34V290h10v3.33h3.33v3.34h3.33v-3.34h6.67V290h6.67v3.33h3.33V290h3.33v-3.33h3.34v-3.34h3.33V280h6.67v-3.33h10V280h6.66v3.33h3.34V280h10v3.33h6.66v3.34h3.34v-3.34h6.66V280h6.67v-3.33h10V280h3.33v-3.33h6.67v-3.34h10v3.34h6.67V280h3.33v3.33h3.34v3.34h3.33V290h3.33v-3.33h10V290h6.67v3.33h3.33v3.34h6.67v-3.34h10v3.34h6.67V300h3.33v3.33h3.33v3.34h3.34V310h3.33v-3.33h10V310h6.67v3.33h3.33v3.34h3.33V320h3.34v10H460.01v-3.33h3.33zM156.67 300H160v3.33h-3.33zM120 290h3.33v3.33H120z"/><path class="st12" d="M146.67 313.33h6.67v3.34h3.33V320H160v3.33h-3.33V330H0v-5h13.33v-5H20v-3.33h6.67v-3.34H30v-10h13.33v3.34h3.34v6.66h16.66v3.34h3.34V320H80v-3.33h3.34v-3.34H90V310h6.67v3.33H100v3.34h10V320h-6.66v3.33h3.33v3.34H120v-3.34h3.34V320H130v-3.33h3.34v-3.34h3.33V310H140v6.67h3.34V320h3.33z"/><path transform="rotate(-180 105.002 303.333)" class="st12" d="M103.34 300h3.33v6.67h-3.33z"/><path transform="rotate(-180 121.67 305)" class="st12" d="M120 303.33h3.33v3.33H120z"/><path transform="rotate(-180 116.67 311.667)" class="st12" d="M113.34 310h6.67v3.33h-6.67z"/><path transform="rotate(-180 20 315)" class="st12" d="M16.67 313.33h6.67v3.33h-6.67z"/><path transform="rotate(-180 75.002 310)" class="st12" d="M73.34 306.67h3.33v6.67h-3.33z"/><path transform="rotate(-180 71.668 316.667)" class="st12" d="M70 313.33h3.33V320H70z"/><path transform="rotate(-180 68.335 318.333)" class="st12" d="M66.67 316.67H70V320h-3.33z"/><path transform="rotate(-180 101.67 310)" class="st12" d="M100 306.67h3.33v6.67H100z"/><path transform="rotate(-180 98.336 305)" class="st12" d="M96.67 303.33H100v3.33h-3.33z"/><path transform="rotate(-180 58.335 328.333)" class="st11" d="M16.67 326.67h83.34V330H16.67z"/><path transform="rotate(-180 81.669 325)" class="st11" d="M66.67 323.33h30v3.33h-30z"/><path transform="rotate(-180 138.337 328.333)" class="st11" d="M126.67 326.67H150V330h-23.33z"/><path transform="rotate(-180 135.003 325)" class="st11" d="M126.67 323.33h16.67v3.33h-16.67z"/><path transform="rotate(-180 136.67 321.667)" class="st11" d="M133.34 320h6.67v3.33h-6.67z"/><path transform="rotate(-180 131.67 318.333)" class="st11" d="M130 316.67h3.33V320H130z"/><path transform="rotate(-180 125.003 321.667)" class="st11" d="M123.34 320h3.33v3.33h-3.33z"/><path transform="rotate(-180 121.67 318.333)" class="st12" d="M116.67 316.67h10V320h-10z"/><path transform="rotate(-180 121.67 325)" class="st11" d="M120 323.33h3.33v3.33H120z"/><path transform="rotate(-180 121.67 328.333)" class="st11" d="M120 326.67h3.33V330H120z"/><path transform="rotate(-180 115.003 328.333)" class="st11" d="M113.34 326.67h3.33V330h-3.33z"/><path transform="rotate(-180 108.336 328.333)" class="st11" d="M106.67 326.67H110V330h-3.33z"/><path transform="rotate(-180 101.67 328.333)" class="st11" d="M100 326.67h3.33V330H100z"/><path transform="rotate(-180 138.337 318.333)" class="st11" d="M136.67 316.67H140V320h-3.33z"/><path transform="rotate(-180 145.003 321.667)" class="st11" d="M143.34 320h3.33v3.33h-3.33z"/><path transform="rotate(-180 151.67 321.667)" class="st11" d="M150 320h3.33v3.33H150z"/><path transform="rotate(-180 88.335 321.667)" class="st11" d="M83.34 320h10v3.33h-10z"/><path transform="rotate(-180 65.002 321.667)" class="st11" d="M60 320h10v3.33H60z"/><path transform="rotate(-180 35 321.667)" class="st11" d="M30 320h10v3.33H30z"/><path transform="rotate(-180 38.334 325)" class="st11" d="M33.33 323.33h10v3.33h-10z"/><path transform="rotate(-180 93.336 318.333)" class="st11" d="M90 316.67h6.67V320H90z"/><path transform="rotate(-180 58.335 318.333)" class="st11" d="M56.67 316.67H60V320h-3.33z"/><path transform="rotate(-180 28.334 325)" class="st11" d="M26.67 323.33H30v3.33h-3.33z"/><path transform="rotate(-180 21.667 325)" class="st11" d="M20 323.33h3.33v3.33H20z"/><path transform="rotate(-180 65.002 318.333)" class="st11" d="M63.33 316.67h3.33V320h-3.33z"/><path transform="rotate(-180 88.335 315)" class="st11" d="M86.67 313.33H90v3.33h-3.33z"/><path class="st12" d="M663.35 290h-6.67v6.67h-6.67V300h-3.33v3.33h-6.67v3.34h-6.66v6.66h-6.67v3.34h-10V320h-6.67v3.33h-10v3.34h-23.33v-3.34h-3.33V330h176.67v-3.33h-13.34v-3.34h-3.33V320h-6.67v-3.33h-30v-3.34h-10V320h-3.33v3.33h-10v3.34h-6.67V320h-6.66v-6.67h-3.34V310h3.34v-3.33h3.33v-3.34h6.67V300h-6.67v-3.33h-3.33v-3.34h3.33z"/><path class="st12" d="M580.01 283.33h3.34V290h6.66v3.33h3.34v3.34h-20V300h3.33v3.33h3.33v3.34h-16.66V310h-10v3.33h-6.67v3.34h-6.67V320h13.34v3.33h10v3.34h10V330H460.01v-3.33h43.33v-3.34h23.34v3.34h6.67V320h-3.34v-3.33h3.34v-3.34h10V310h6.66v-3.33h10v-3.34h-3.33V300h-3.33v-3.33h10V300h3.33v3.33h3.33v-10h3.34V290h6.66zM633.35 306.67h-3.34v-3.34h-3.33V300h-3.33v-3.33h-10V300h3.33v3.33h6.67v3.34h3.33V310h3.33v3.33h3.34zM630.01 280v3.33h-3.33v10h-3.33v3.34h-3.34v-3.34h3.34v-10h3.33V280z"/><path class="st12" d="M573.35 316.67v-3.34h10V310h3.33v-3.33h3.33v-3.34h6.67v3.34h-6.67v6.66h-3.33v3.34h-10V320h-10v-3.33zM493.34 320h10v-3.33h10.01v-3.34h3.33V310h6.67v3.33h-6.67V320h-13.34v3.33h-13.33v3.34h-3.33v-3.34h3.33V320zM720.02 310h3.33v-3.33h10V310h6.67v3.33h3.33v3.34h3.33V320h3.34v6.67h-13.34v-3.34h-3.33v-3.23h-6.67v-3.43h-6.66v-3.34h6.66v3.34h3.34V320h10v-3.33h-6.67v-3.34h-3.33V310zM686.68 296.67h6.67V300h6.67v3.33h3.33v3.34h-6.67V300h-10zM543.35 293.33h3.33v3.34h-3.33V300h-3.34v-6.67z"/><path transform="rotate(-180 536.679 288.333)" class="st13" d="M533.35 286.67h6.67V290h-6.67z"/><path transform="rotate(-180 713.35 295)" class="st13" d="M710.02 293.33h6.67v3.33h-6.67z"/><path transform="rotate(-180 531.679 285)" class="st13" d="M530.01 283.33h3.33v3.33h-3.33z"/><path transform="rotate(-180 511.678 288.333)" class="st13" d="M510.01 286.67h3.33V290h-3.33z"/><path transform="rotate(-180 648.348 271.667)" class="st13" d="M646.68 270h3.33v3.33h-3.33z"/><path transform="rotate(-180 720.016 328.333)" class="st11" d="M693.35 326.67h53.33V330h-53.33z"/><path transform="rotate(-180 685.016 328.333)" class="st11" d="M680.02 326.67h10V330h-10z"/><path transform="rotate(-180 671.682 328.333)" class="st11" d="M666.68 326.67h10V330h-10z"/><path transform="rotate(-180 655.015 328.333)" class="st11" d="M650.01 326.67h10V330h-10z"/><path transform="rotate(-180 628.348 328.333)" class="st11" d="M610.01 326.67h36.67V330h-36.67z"/><path transform="rotate(-180 535.012 328.333)" class="st11" d="M516.68 326.67h36.67V330h-36.67z"/><path transform="rotate(-180 635.015 325)" class="st11" d="M616.68 323.33h36.67v3.33h-36.67z"/><path transform="rotate(-180 705.016 325)" class="st11" d="M690.02 323.33h30v3.33h-30z"/><path transform="rotate(-180 638.348 321.667)" class="st11" d="M623.35 320h30v3.33h-30z"/><path transform="rotate(-180 543.346 325)" class="st11" d="M536.68 323.33h13.33v3.33h-13.33z"/><path transform="rotate(-180 721.683 321.667)" class="st11" d="M716.68 320h10v3.33h-10z"/><path transform="rotate(-180 655.015 301.667)" class="st11" d="M650.01 300h10v3.33h-10z"/><path transform="rotate(-180 711.683 321.667)" class="st11" d="M710.02 320h3.33v3.33h-3.33z"/><path transform="rotate(-180 728.35 325)" class="st11" d="M726.68 323.33h3.33v3.33h-3.33z"/><path transform="rotate(-180 735.017 325)" class="st11" d="M733.35 323.33h3.33v3.33h-3.33z"/><path transform="rotate(-180 745.017 321.667)" class="st11" d="M743.35 320h3.33v3.33h-3.33z"/><path transform="rotate(-180 748.35 325)" class="st11" d="M746.68 320h3.33v10h-3.33z"/><path transform="rotate(-180 743.35 325)" class="st11" d="M740.02 323.33h6.67v3.33h-6.67z"/><path transform="rotate(-180 705.016 321.667)" class="st11" d="M703.35 320h3.33v3.33h-3.33z"/><path transform="rotate(-180 698.35 321.667)" class="st11" d="M696.68 320h3.33v3.33h-3.33z"/><path transform="rotate(-180 691.683 321.667)" class="st11" d="M690.02 320h3.33v3.33h-3.33z"/><path transform="rotate(-180 695.016 315)" class="st11" d="M693.35 313.33h3.33v3.33h-3.33z"/><path transform="rotate(-180 648.348 318.333)" class="st11" d="M646.68 316.67h3.33V320h-3.33z"/><path transform="rotate(-180 661.682 321.667)" class="st11" d="M660.02 320h3.33v3.33h-3.33z"/><path transform="rotate(-180 638.348 318.333)" class="st11" d="M636.68 316.67h3.33V320h-3.33z"/><path transform="rotate(-180 558.346 328.333)" class="st11" d="M556.68 326.67h3.33V330h-3.33z"/><path transform="rotate(-180 565.013 328.333)" class="st11" d="M563.35 326.67h3.33V330h-3.33z"/><path transform="rotate(-180 571.68 328.333)" class="st11" d="M570.01 326.67h3.33V330h-3.33z"/><path transform="rotate(-180 545.013 321.667)" class="st11" d="M543.35 320h3.33v3.33h-3.33z"/><path transform="rotate(-180 535.012 318.333)" class="st11" d="M533.35 316.67h3.33V320h-3.33z"/><path transform="rotate(-180 600.014 328.333)" class="st11" d="M593.35 326.67h13.33V330h-13.33z"/><path transform="rotate(-180 645.015 311.667)" class="st11" d="M643.35 310h3.33v3.33h-3.33z"/><path transform="rotate(-180 641.681 315)" class="st11" d="M640.01 313.33h3.33v3.33h-3.33z"/><path transform="rotate(-180 631.681 318.333)" class="st11" d="M630.01 316.67h3.33V320h-3.33z"/><path transform="rotate(-180 375 415)" class="st14" d="M0 330h750v170H0z"/><path transform="rotate(-180 375 351.667)" class="st6" d="M0 350h750v3.33H0z"/><path transform="rotate(-180 375 368.333)" class="st6" d="M0 366.67h750V370H0z"/><path transform="rotate(-180 375 378.333)" class="st6" d="M0 376.67h750V380H0z"/><path transform="rotate(-180 375 385)" class="st6" d="M0 383.33h750v3.33H0z"/><path transform="rotate(-180 375 393.333)" class="st6" d="M0 390h750v6.67H0z"/><path transform="rotate(-180 375 406.667)" class="st6" d="M0 400h750v13.33H0z"/><path transform="rotate(-180 375 426.667)" class="st6" d="M0 416.67h750v20H0z"/><path transform="rotate(-180 375 470)" class="st6" d="M0 440h750v60H0z"/><g><path class="st13" d="M0 330v170h750v-6.67h-3.33V490h-3.34v-3.33H740v-3.34h-3.33V480h-3.34v-3.33H730v-3.34h-3.33V470h-3.34v-3.33H720v-3.34h-6.67V460H710v-3.33h-6.67v-3.34H700V450h-6.67v-3.33H690v-3.34h-6.67V440H680v-3.33h-6.67v-3.34H670V430h-6.67v-3.33H660v-3.34h-6.67V420H650v-3.33h-6.67v-3.34h-6.66V410H630v-3.33h-6.67v-3.34h-6.66V400H610v-3.33h-6.67v-3.34h-6.66V390h-6.7v-3.33h-6.64v-3.34h-6.66V380H570v-3.33h-6.67v-3.34h-6.66V370H550v-3.33h-6.67v-3.34h-6.66V360H530v-3.33h-10v-3.34h-10V350h-10v-3.33h-10v-3.34h-13.33v-3.26h-13.34v-3.4H450v-3.34h-16.67V330z"/><path class="st12" d="M0 330v36.67h543.33v-3.34h-6.66V360H530v-3.33h-10v-3.34h-10V350h-10v-3.33h-10v-3.34h-13.33v-3.26h-13.34v-3.4H450v-3.34h-16.67V330z"/><path transform="rotate(-180 38.333 380)" class="st12" d="M33.33 376.67h10v6.67h-10z"/><path transform="rotate(-180 101.667 378.333)" class="st12" d="M96.67 376.67h10V380h-10z"/><path transform="rotate(-180 146.667 378.333)" class="st12" d="M143.33 376.67H150V380h-6.67z"/><path transform="rotate(-180 181.667 380)" class="st12" d="M180 376.67h3.33v6.67H180z"/><path transform="rotate(-180 268.333 380)" class="st12" d="M266.67 376.67H270v6.67h-3.33z"/><path transform="rotate(-180 318.333 328.333)" class="st11" d="M316.67 326.67H320V330h-3.33z"/><path transform="rotate(-180 185 328.333)" class="st12" d="M183.33 326.67h3.33V330h-3.33z"/><path transform="rotate(-180 328.333 378.333)" class="st12" d="M326.67 376.67H330V380h-3.33z"/><path transform="rotate(-180 401.667 380)" class="st12" d="M400 376.67h3.33v6.67H400z"/><path transform="rotate(-180 505 378.333)" class="st12" d="M503.33 376.67h3.33V380h-3.33z"/><path transform="rotate(-180 145 381.667)" class="st12" d="M143.33 380h3.33v3.33h-3.33z"/><path transform="rotate(-180 621.667 408.333)" class="st12" d="M620 406.67h3.33V410H620z"/><path transform="rotate(-180 551.667 395)" class="st12" d="M550 393.33h3.33v3.33H550z"/><path transform="rotate(-180 370 361.667)" class="st13" d="M366.67 360h6.67v3.33h-6.67z"/><path transform="rotate(-180 313.333 355)" class="st13" d="M310 353.33h6.67v3.33H310z"/><path transform="rotate(-180 375 358.333)" class="st13" d="M373.33 356.67h3.33V360h-3.33z"/><path transform="rotate(-180 251.667 348.333)" class="st13" d="M250 346.67h3.33V350H250z"/><path transform="rotate(-180 141.667 328.333)" class="st13" d="M140 326.67h3.33V330H140z"/><path class="st12" d="M360 380h6.67v3.33H360zM363.33 376.67h3.33V380h-3.33z"/><path transform="rotate(-180 465 345)" class="st13" d="M463.33 343.33h3.33v3.33h-3.33z"/><path transform="rotate(-180 110 358.333)" class="st13" d="M106.67 356.67h6.67V360h-6.67z"/><path transform="rotate(-180 86.667 328.333)" class="st12" d="M83.33 326.67H90V330h-6.67z"/><path transform="rotate(-180 108.333 355)" class="st13" d="M106.67 353.33H110v3.33h-3.33z"/><path transform="rotate(-180 85 325)" class="st12" d="M83.33 323.33h3.33v3.33h-3.33z"/><path transform="rotate(-180 261.667 326.667)" class="st11" d="M260 323.33h3.33V330H260z"/><path transform="rotate(-180 31.667 326.667)" class="st12" d="M30 323.33h3.33V330H30z"/><path transform="rotate(-180 431.667 356.667)" class="st13" d="M430 353.33h3.33V360H430z"/><path transform="rotate(-180 488.333 373.333)" class="st13" d="M486.67 370H490v6.67h-3.33z"/><path transform="rotate(-180 438.333 375)" class="st13" d="M436.67 373.33H440v3.33h-3.33z"/><path transform="rotate(-180 341.667 375)" class="st13" d="M340 373.33h3.33v3.33H340z"/><path transform="rotate(-180 298.333 375)" class="st13" d="M296.67 373.33H300v3.33h-3.33z"/><path transform="rotate(-180 253.333 375)" class="st13" d="M250 373.33h6.67v3.33H250z"/><path transform="rotate(-180 60 375)" class="st13" d="M56.67 373.33h6.67v3.33h-6.67z"/><path transform="rotate(-180 188.333 358.333)" class="st13" d="M186.67 356.67H190V360h-3.33z"/><path transform="rotate(-180 195 375)" class="st13" d="M193.33 373.33h3.33v3.33h-3.33z"/><path transform="rotate(-180 396.667 328.333)" class="st13" d="M393.33 326.67H400V330h-6.67z"/><path transform="rotate(-180 395 325)" class="st13" d="M393.33 323.33h3.33v3.33h-3.33z"/><path transform="rotate(-180 50 351.667)" class="st13" d="M46.67 350h6.67v3.33h-6.67z"/><path transform="rotate(-180 55 348.333)" class="st13" d="M53.33 346.67h3.33V350h-3.33z"/><path class="st12" d="M0 370v6.67h563.33v-3.34h-6.66V370zM0 380h576.67v3.33H0zM0 386.67h589.97V390H0zM0 396.67h610V400H0zM0 413.33h643.33v3.33H0zM0 436.67h680V440H0z"/><path class="st13" d="M0 350h510v3.33H0z"/></g><path transform="rotate(-180 245 331.667)" class="st11" d="M203.33 330h83.33v3.33h-83.33z"/><path transform="rotate(-180 16.667 331.667)" class="st11" d="M0 330h33.33v3.33H0z"/><path transform="rotate(-180 91.667 331.667)" class="st11" d="M83.33 330H100v3.33H83.33z"/><path transform="rotate(-180 160 331.667)" class="st11" d="M146.67 330h26.67v3.33h-26.67z"/><path transform="rotate(-180 58.333 331.667)" class="st11" d="M53.33 330h10v3.33h-10z"/><path transform="rotate(-180 586.667 331.667)" class="st6" d="M526.67 330h120v3.33h-120z"/><path transform="rotate(-180 713.333 331.667)" class="st6" d="M683.33 330h60v3.33h-60z"/><path transform="rotate(-180 748.333 491.667)" class="st15" d="M746.67 490H750v3.33h-3.33z"/><path transform="rotate(-180 745 488.333)" class="st15" d="M743.33 486.67h3.33V490h-3.33z"/><path transform="rotate(-180 741.667 485)" class="st15" d="M740 483.33h3.33v3.33H740z"/><path transform="rotate(-180 738.333 481.667)" class="st15" d="M736.67 480H740v3.33h-3.33z"/><path transform="rotate(-180 735 478.333)" class="st15" d="M733.33 476.67h3.33V480h-3.33z"/><path transform="rotate(-180 731.667 475)" class="st15" d="M730 473.33h3.33v3.33H730z"/><path transform="rotate(-180 728.333 471.667)" class="st15" d="M726.67 470H730v3.33h-3.33z"/><path transform="rotate(-180 725 468.333)" class="st15" d="M723.33 466.67h3.33V470h-3.33z"/><path transform="rotate(-180 721.667 465)" class="st15" d="M720 463.33h3.33v3.33H720z"/><path transform="rotate(-180 711.667 458.333)" class="st15" d="M710 456.67h3.33V460H710z"/><path transform="rotate(-180 716.667 461.667)" class="st15" d="M713.33 460H720v3.33h-6.67z"/><path transform="rotate(-180 706.667 455)" class="st15" d="M703.33 453.33H710v3.33h-6.67z"/><path transform="rotate(-180 701.667 451.667)" class="st15" d="M700 450h3.33v3.33H700z"/><path transform="rotate(-180 696.667 448.333)" class="st15" d="M693.33 446.67H700V450h-6.67z"/><path transform="rotate(-180 691.667 445)" class="st15" d="M690 443.33h3.33v3.33H690z"/><path transform="rotate(-180 686.667 441.667)" class="st15" d="M683.33 440H690v3.33h-6.67z"/><path transform="rotate(-180 681.667 438.333)" class="st15" d="M680 436.67h3.33V440H680z"/><path transform="rotate(-180 676.667 435)" class="st15" d="M673.33 433.33H680v3.33h-6.67z"/><path transform="rotate(-180 671.667 431.667)" class="st15" d="M670 430h3.33v3.33H670z"/><path transform="rotate(-180 666.667 428.333)" class="st15" d="M663.33 426.67H670V430h-6.67z"/><path transform="rotate(-180 661.667 425)" class="st15" d="M660 423.33h3.33v3.33H660z"/><path transform="rotate(-180 656.667 421.667)" class="st15" d="M653.33 420H660v3.33h-6.67z"/><path transform="rotate(-180 651.667 418.333)" class="st15" d="M650 416.67h3.33V420H650z"/><path transform="rotate(-180 646.667 415)" class="st15" d="M643.33 413.33H650v3.33h-6.67z"/><path transform="rotate(-180 626.667 405)" class="st15" d="M623.33 403.33H630v3.33h-6.67z"/><path transform="rotate(-180 620 401.667)" class="st15" d="M616.67 400h6.67v3.33h-6.67z"/><path transform="rotate(-180 613.333 398.333)" class="st15" d="M610 396.67h6.67V400H610z"/><path transform="rotate(-180 606.667 395)" class="st15" d="M603.33 393.33H610v3.33h-6.67z"/><path transform="rotate(-180 600 391.667)" class="st15" d="M596.67 390h6.67v3.33h-6.67z"/><path transform="rotate(-180 593.333 388.333)" class="st15" d="M590 386.67h6.67V390H590z"/><path transform="rotate(-180 586.667 385)" class="st15" d="M583.33 383.33H590v3.33h-6.67z"/><path transform="rotate(-180 580 381.667)" class="st15" d="M576.67 380h6.67v3.33h-6.67z"/><path transform="rotate(-180 573.333 378.333)" class="st15" d="M570 376.67h6.67V380H570z"/><path transform="rotate(-180 566.667 375)" class="st15" d="M563.33 373.33H570v3.33h-6.67z"/><path transform="rotate(-180 560 371.667)" class="st15" d="M556.67 370h6.67v3.33h-6.67z"/><path transform="rotate(-180 553.333 368.333)" class="st15" d="M550 366.67h6.67V370H550z"/><path transform="rotate(-180 546.667 365)" class="st15" d="M543.33 363.33H550v3.33h-6.67z"/><path transform="rotate(-180 540 361.667)" class="st15" d="M536.67 360h6.67v3.33h-6.67z"/><path transform="rotate(-180 533.333 358.333)" class="st15" d="M530 356.67h6.67V360H530z"/><path transform="rotate(-180 525 355)" class="st15" d="M520 353.33h10v3.33h-10z"/><path transform="rotate(-180 515 351.667)" class="st15" d="M510 350h10v3.33h-10z"/><path transform="rotate(-180 505 348.333)" class="st15" d="M500 346.67h10V350h-10z"/><path transform="rotate(-180 493.333 345)" class="st15" d="M490 343.33h6.67v3.33H490z"/><path transform="rotate(-180 481.667 341.667)" class="st15" d="M476.67 340h10v3.33h-10z"/><path transform="rotate(-180 468.333 338.333)" class="st15" d="M463.33 336.67h10V340h-10z"/><path transform="rotate(-180 455 335)" class="st15" d="M450 333.33h10v3.33h-10z"/><path transform="rotate(-180 438.333 331.667)" class="st15" d="M433.33 330h10v3.33h-10z"/><path transform="rotate(-180 640 411.667)" class="st15" d="M636.67 410h6.67v3.33h-6.67z"/><path transform="rotate(-180 633.333 408.333)" class="st15" d="M630 406.67h6.67V410H630z"/></g><g id="camp_2_"><path class="st16" d="M383.6 340h50.03v3.33H383.6z"/><path class="st17" d="M313.55 340h60.04v3.33h-60.04z"/><path class="st16" d="M383.6 336.67h66.71V340H383.6zM323.56 343.33h130.08v3.33H323.56z"/><path class="st18" d="M310.21 340h3.34v3.33h-3.34zM313.55 336.67h3.34V340h-3.34zM323.56 330v13.33h-6.67v-6.66h3.33V330zM313.55 340h3.34v3.33h-3.34z"/><path class="st19" d="M316.89 330h3.34v6.67h-3.34z"/><path class="st17" d="M320.22 326.67h3.34V330h-3.34z"/><path class="st19" d="M323.56 320h3.34v6.67h-3.34zM326.89 316.67h3.34V320h-3.34z"/><path class="st17" d="M333.56 306.67h3.34V310h-3.34zM330.23 310h3.34v6.67h-3.34z"/><path class="st19" d="M336.9 300h3.34v6.67h-3.34zM340.23 293.33h3.34V300h-3.34z"/><path class="st17" d="M343.57 286.67h3.34v6.67h-3.34z"/><path class="st19" d="M346.91 283.33h3.34v3.33h-3.34zM380.26 336.67h3.34V340h-3.34zM376.93 330h3.34v6.67h-3.34z"/><path class="st18" d="M373.59 326.67h3.34V330h-3.34z"/><path class="st19" d="M370.26 320h3.34v6.67h-3.34zM366.92 316.67h3.34V320h-3.34z"/><path class="st18" d="M360.25 306.67h3.34V310h-3.34zM363.58 310h3.34v6.67h-3.34zM356.91 300h3.34v6.67h-3.34z"/><path class="st19" d="M353.58 293.33h3.34V300h-3.34zM350.24 286.67h3.34v6.67h-3.34z"/><path class="st18" d="M346.91 280h13.34v3.33h-13.34z"/><path class="st20" d="M360.25 283.33h10.01v3.33h-10.01z"/><path class="st18" d="M370.26 286.67h10.01V290h-10.01z"/><path class="st20" d="M380.26 290h10.01v3.33h-10.01z"/><path class="st18" d="M416.95 336.67h3.34V340h-3.34z"/><path class="st20" d="M413.62 330h3.34v6.67h-3.34zM410.28 326.67h3.34V330h-3.34zM406.95 320h3.34v6.67h-3.34z"/><path class="st18" d="M403.61 316.67h3.34V320h-3.34z"/><path class="st20" d="M396.94 306.67h3.34V310h-3.34zM400.28 310h3.34v6.67h-3.34z"/><path class="st18" d="M393.6 300h3.34v6.67h-3.34z"/><path class="st20" d="M390.27 293.33h3.34V300h-3.34zM413.62 340h6.67v3.33h-6.67z"/><path class="st18" d="M373.59 340h40.03v3.33h-40.03zM416.95 336.67V340H383.6v-3.33h-3.34V330h-3.33v-3.33h-3.34V320h-3.33v-3.33h-3.34V310h-3.34v-3.33h-3.33V300h-3.34v-6.67h-3.33v-6.66h-3.34v-3.34h10.01v3.34h10.01V290h10v3.33h10.01V300h3.33v6.67h3.34V310h3.34v6.67h3.33V320h3.34v6.67h3.33V330h3.34v6.67z"/><path class="st17" d="M373.59 326.67V330h-3.33v10h-20.02v-46.67h3.34V300h3.33v6.67h3.34V310h3.33v6.67h3.34V320h3.34v6.67z"/><path class="st18" d="M380.26 336.67V340h-6.67v-10h3.34v6.67z"/><path class="st17" d="M346.91 293.33V340h-20.02v-10h-3.33v-3.33h3.33V320h3.34v-3.33h3.33V310h3.34v-3.33h3.33V300h3.34v-6.67z"/><path class="st20" d="M323.56 330h3.34v10h-3.34zM366.92 296.67h6.67V300h-6.67zM373.59 300h6.67v3.33h-6.67zM380.26 303.33h6.67v3.33h-6.67zM346.91 286.67h3.34v56.67h-3.34zM370.26 330h3.34v13.33h-3.34z"/><path class="st19" d="M383.6 340h3.34v3.33h-3.34z"/></g><g id="camp_1_"><path class="st21" d="M176.79 306.67h3.34V400h-3.34z"/><path class="st16" d="M90.78 386.67h200.14V390H90.78zM100.78 390h200.14v3.33H100.78zM104.12 393.33h203.47v3.33H104.12zM117.46 396.67h186.8V400h-186.8z"/><path class="st21" d="M216.82 370h3.34v3.33h-3.34zM213.48 363.33h3.34V370h-3.34zM210.15 360h3.34v3.33h-3.34zM220.15 373.33h3.34V380h-3.34z"/><path class="st22" d="M226.82 383.33h3.34V390h-3.34zM223.49 380h3.34v3.33h-3.34zM230.16 390h3.34v3.33h-3.34zM233.49 393.33h3.34v3.33h-3.34zM236.83 396.67h3.34V400h-3.34z"/><path class="st21" d="M206.81 353.33h3.34V360h-3.34zM203.47 350h3.34v3.33h-3.34z"/><path class="st22" d="M200.14 343.33h3.34V350h-3.34zM196.8 340h3.34v3.33h-3.34z"/><path class="st21" d="M193.47 333.33h3.34V340h-3.34zM190.13 326.67h3.34v6.67h-3.34z"/><path class="st22" d="M186.8 320h3.34v6.67h-3.34z"/><path class="st21" d="M183.46 313.33h3.34V320h-3.34z"/><path class="st22" d="M180.12 306.67h3.34v6.67h-3.34z"/><g><path class="st22" d="M136.76 370h3.34v3.33h-3.34z"/><path class="st23" d="M140.1 363.33h3.34V370h-3.34zM143.43 360h3.34v3.33h-3.34zM133.43 373.33h3.34V380h-3.34z"/><path class="st22" d="M126.75 383.33h3.34V390h-3.34z"/><path class="st23" d="M130.09 380h3.34v3.33h-3.34z"/><path class="st22" d="M123.42 390h3.34v3.33h-3.34zM120.08 393.33h3.34v3.33h-3.34zM116.75 396.67h3.34V400h-3.34z"/><path class="st23" d="M146.77 353.33h3.34V360h-3.34z"/><path class="st22" d="M150.1 350h3.34v3.33h-3.34z"/><path class="st23" d="M153.44 343.33h3.34V350h-3.34z"/><path class="st22" d="M156.77 340h3.34v3.33h-3.34z"/><path class="st23" d="M160.11 333.33h3.34V340h-3.34z"/><path class="st22" d="M163.45 326.67h3.34v6.67h-3.34z"/><path class="st23" d="M166.78 320h3.34v6.67h-3.34zM170.12 313.33h3.34V320h-3.34z"/><path class="st22" d="M173.45 306.67h3.34v6.67h-3.34z"/></g><g><path class="st23" d="M53.37 370h3.34v3.33h-3.34zM56.71 363.33h3.34V370h-3.34z"/><path class="st24" d="M60.04 360h3.34v3.33h-3.34z"/><path class="st23" d="M50.03 373.33h3.34V380h-3.34z"/><path class="st24" d="M43.36 383.33h3.34V390h-3.34z"/><path class="st23" d="M46.7 380h3.34v3.33H46.7zM40.03 390h3.34v3.33h-3.34zM36.69 393.33h3.34v3.33h-3.34zM33.36 396.67h3.34V400h-3.34zM63.38 353.33h3.34V360h-3.34zM66.71 350h3.34v3.33h-3.34zM70.05 343.33h3.34V350h-3.34zM73.38 340h3.34v3.33h-3.34z"/><path class="st24" d="M76.72 333.33h3.34V340h-3.34z"/><path class="st23" d="M80.06 326.67h3.34v6.67h-3.34zM83.39 320h3.34v6.67h-3.34z"/></g><path class="st23" d="M86.73 316.67h20.01V320H86.73zM106.74 313.33h20.01v3.33h-20.01z"/><path class="st22" d="M126.75 310h20.01v3.33h-20.01z"/><path class="st23" d="M146.77 306.67h20.01V310h-20.01z"/><path class="st24" d="M173.45 306.67v6.66h-3.33V320h-3.34v6.67h-3.33v6.66h-3.34V340h-3.34v3.33h-3.33V350h-3.34v3.33h-3.33V360h-3.34v3.33h-3.33V370h-3.34v3.33h-3.33V380h-3.34v3.33h-3.34V390h-3.33v3.33h-3.34v3.34h-3.33V400H36.69v-3.33h3.34v-3.34h3.33V390h3.34v-6.67h3.33V380h3.34v-6.67h3.34V370h3.33v-6.67h3.34V360h3.33v-6.67h3.34V350h3.33v-6.67h3.34V340h3.34v-6.67h3.33v-6.66h3.34V320h20.01v-3.33h20.01v-3.34h20.02V310h20.01v-3.33z"/><path class="st22" d="M166.78 303.33h13.34v3.33h-13.34zM176.79 313.33V400h-40.03v-16.67h-3.33V380h3.33v-6.67h3.34V370h3.33v-6.67h3.34V360h3.33v-6.67h3.34V350h3.33v-6.67h3.34V340h3.34v-6.67h3.33v-6.66h3.34V320h3.33v-6.67z"/><path class="st21" d="M133.43 383.33V400h-13.35v-3.33h3.34v-3.34h3.33V390h3.34v-6.67z"/><path class="st24" d="M133.43 383.33h3.34V400h-3.34z"/><path class="st22" d="M223.49 380v3.33h-3.34V400h-40.03v-86.67h3.34V320h3.34v6.67h3.33v6.66h3.34V340h3.33v3.33h3.34V350h3.33v3.33h3.34V360h3.34v3.33h3.33V370h3.34v3.33h3.33V380z"/><path class="st21" d="M236.83 396.67V400h-13.34v-16.67h3.33V390h3.34v3.33h3.33v3.34z"/><path class="st24" d="M220.15 383.33h3.34V400h-3.34z"/></g><g id="camp"><path class="st16" d="M306.88 473.33h296.87v3.33H306.88zM401.94 460h243.5v3.33h-243.5zM408.62 463.33h243.5v3.33h-243.5zM405.28 466.67h231.83V470H405.28zM415.29 470h208.48v3.33H415.29z"/><path class="st25" d="M380.26 350h3.34v126.67h-3.34z"/><path class="st26" d="M420.29 416.67h3.34V420h-3.34zM416.95 410h3.34v6.67h-3.34z"/><path class="st27" d="M426.96 426.67h3.34V430h-3.34zM423.63 420h3.34v6.67h-3.34z"/><path class="st26" d="M433.63 436.67h3.34V440h-3.34z"/><path class="st27" d="M430.3 430h3.34v6.67h-3.34zM440.3 446.67h3.34V450h-3.34zM446.97 456.67h3.34V460h-3.34zM453.65 466.67h3.34V470h-3.34zM456.98 470h3.34v3.33h-3.34z"/><path class="st26" d="M436.97 440h3.34v6.67h-3.34z"/><path class="st27" d="M443.64 450h3.34v6.67h-3.34zM450.31 460h3.34v6.67h-3.34zM413.62 406.67h3.34V410h-3.34zM410.28 400h3.34v6.67h-3.34zM406.95 396.67h3.34V400h-3.34z"/><path class="st26" d="M403.61 390h3.34v6.67h-3.34z"/><path class="st27" d="M400.28 386.67h3.34V390h-3.34zM396.94 380h3.34v6.67h-3.34zM393.6 373.33h3.34V380h-3.34z"/><path class="st27" d="M390.27 366.67h3.34v6.67h-3.34z"/><path class="st26" d="M386.93 360h3.34v6.67h-3.34z"/><path class="st27" d="M383.6 353.33h3.34V360h-3.34z"/><path class="st14" d="M340.23 416.67h3.34V420h-3.34zM343.57 410h3.34v6.67h-3.34zM333.56 426.67h3.34V430h-3.34z"/><path class="st28" d="M336.9 420h3.34v6.67h-3.34z"/><path class="st14" d="M326.89 436.67h3.34V440h-3.34z"/><path class="st28" d="M330.23 430h3.34v6.67h-3.34z"/><path class="st14" d="M320.22 446.67h3.34V450h-3.34z"/><path class="st28" d="M313.55 456.67h3.34V460h-3.34zM306.88 466.67h3.34V470h-3.34zM303.54 470h3.34v3.33h-3.34z"/><path class="st14" d="M323.56 440h3.34v6.67h-3.34z"/><path class="st28" d="M316.89 450h3.34v6.67h-3.34z"/><path class="st14" d="M310.21 460h3.34v6.67h-3.34zM346.91 406.67h3.34V410h-3.34zM350.24 400h3.34v6.67h-3.34z"/><path class="st28" d="M353.58 396.67h3.34V400h-3.34zM356.91 390h3.34v6.67h-3.34zM360.25 386.67h3.34V390h-3.34zM363.58 380h3.34v6.67h-3.34z"/><path class="st14" d="M366.92 373.33h3.34V380h-3.34zM370.26 366.67h3.34v6.67h-3.34z"/><path class="st28" d="M373.59 360h3.34v6.67h-3.34zM376.93 353.33h3.34V360h-3.34z"/><path class="st27" d="M550.38 470h3.34v3.33h-3.34z"/><path class="st26" d="M547.04 466.67h3.34V470h-3.34z"/><path class="st27" d="M543.71 463.33h3.34v3.33h-3.34z"/><path class="st26" d="M537.04 453.33h3.34v3.33h-3.34z"/><path class="st27" d="M530.37 443.33h3.34v3.33h-3.34z"/><path class="st26" d="M523.69 433.33h3.34v3.33h-3.34z"/><path class="st27" d="M520.36 426.67h3.34v6.67h-3.34zM527.03 436.67h3.34v6.67h-3.34z"/><path class="st26" d="M533.7 446.67h3.34v6.67h-3.34zM540.37 456.67h3.34v6.67h-3.34zM517.02 423.33h3.34v3.33h-3.34z"/><path class="st27" d="M513.69 416.67h3.34v6.67h-3.34z"/><path class="st26" d="M510.35 413.33h3.34v3.33h-3.34z"/><path class="st26" d="M507.02 406.67h3.34v6.67h-3.34z"/><path class="st27" d="M503.68 403.33h3.34v3.33h-3.34z"/><path class="st27" d="M500.35 396.67h3.34v6.67h-3.34z"/><path class="st26" d="M497.01 390h3.34v6.67h-3.34zM493.67 383.33h3.34V390h-3.34z"/><path class="st26" d="M490.34 376.67h3.34v6.67h-3.34z"/><path class="st27" d="M480.33 373.33h10.01v3.33h-10.01zM470.32 370h10.01v3.33h-10.01z"/><path class="st25" d="M456.98 366.67h13.34V370h-13.34zM443.64 363.33h13.34v3.33h-13.34z"/><path class="st27" d="M430.3 360h13.34v3.33H430.3z"/><path class="st25" d="M413.62 356.67h16.68V360h-16.68z"/><path class="st27" d="M396.94 353.33h16.68v3.33h-16.68z"/><path style="fill:#a51952" d="M550.38 470v3.33h-90.06V470h-3.34v-3.33h-3.33V460h-3.34v-3.33h-3.34V450h-3.33v-3.33h-3.34V440h-3.33v-3.33h-3.34V430h-3.33v-3.33h-3.34V420h-3.33v-3.33h-3.34V410h-3.34v-3.33h-3.33V400h-3.34v-3.33h-3.33V390h-3.34v-3.33h-3.33V380h-3.34v-6.67h-3.34v-6.66h-3.33V360h-3.34v-6.67h10.01v3.34h16.68V360h16.68v3.33h13.34v3.34h13.34V370h13.34v3.33h10.01v3.34h10.01v6.66h3.33V390h3.34v6.67h3.34v6.66h3.33v3.34h3.34v6.66h3.33v3.34h3.34v6.66h3.33v3.34h3.34v6.66h3.33v3.34h3.34v6.66h3.34v3.34h3.33v6.66h3.34v3.34h3.33v6.66h3.34v3.34h3.33V470z"/><path class="st25" d="M383.6 350h13.34v3.33H383.6z"/><path class="st14" d="M440.3 446.67V450h-3.33v23.33H383.6V360h3.33v6.67h3.34v6.66h3.33V380h3.34v6.67h3.34V390h3.33v6.67h3.34V400h3.33v6.67h3.34V410h3.33v6.67h3.34V420h3.34v6.67h3.33V430h3.34v6.67h3.33V440h3.34v6.67z"/><path class="st25" d="M456.98 470v3.33H440.3V450h3.34v6.67h3.33V460h3.34v6.67h3.34V470z"/><path class="st26" d="M436.97 450h3.34v23.33h-3.34z"/><path class="st14" d="M380.26 360v113.33h-53.37V450h-3.33v-3.33h3.33V440h3.34v-3.33h3.33V430h3.34v-3.33h3.33V420h3.34v-3.33h3.34V410h3.33v-3.33h3.34V400h3.33v-3.33h3.34V390h3.33v-3.33h3.34V380h3.34v-6.67h3.33v-6.66h3.34V360z"/><path class="st26" d="M323.56 450v23.33h-16.68V470h3.33v-3.33h3.34V460h3.34v-3.33h3.33V450z"/><path class="st25" d="M323.56 450h3.34v23.33h-3.34z"/></g><g id="tree_5_"><path class="st30" d="M0 156.67h3.34V160H0zM3.34 160h3.34v13.33H3.34z"/><path class="st30" d="M6.67 160h3.34v3.33H6.67zM10.01 153.33h3.34v3.33h-3.34zM6.67 156.67h3.34V160H6.67zM13.34 146.67h3.34V150h-3.34zM16.68 140h3.34v3.33h-3.34zM20.01 133.33h3.34v3.33h-3.34z"/><path class="st31" d="M6.67 163.33h3.34v3.33H6.67zM10.01 156.67h3.34v10h-3.34zM6.67 166.67h3.34v6.67H6.67z"/><path class="st31" d="M3.34 173.33h3.34V180H3.34z"/><path class="st30" d="M0 160h3.34v26.67H0z"/><path class="st31" d="M13.34 150h3.34v10h-3.34zM16.68 143.33h3.34v10h-3.34z"/><path class="st30" d="M20.01 136.67h3.34v10h-3.34z"/><path class="st31" d="M23.35 130h3.34v10h-3.34z"/><path class="st30" d="M26.69 123.33h3.34v10h-3.34z"/><path class="st31" d="M30.02 120h3.34v6.67h-3.34zM33.36 116.67h3.34v6.67h-3.34z"/><path class="st31" d="M36.69 113.33h3.34V120h-3.34zM40.03 110h3.34v6.67h-3.34z"/><path class="st31" d="M43.36 106.67h3.34v6.67h-3.34zM46.7 100h3.34v10H46.7z"/><path class="st31" d="M40.03 103.33h3.34v10h-3.34z"/><path class="st31" d="M43.36 100h3.34v10h-3.34zM36.69 106.67h3.34v10h-3.34z"/><path class="st31" d="M33.36 110h3.34v10h-3.34zM30.02 113.33h3.34v10h-3.34zM53.37 103.33h13.34v3.33H53.37zM63.38 100h13.34v3.33H63.38zM73.38 96.67h13.34V100H73.38zM83.39 93.33h13.34v3.33H83.39zM93.4 90h10.01v3.33H93.4zM100.07 86.67h6.67V90h-6.67zM103.4 83.33h6.67v3.33h-6.67zM110.08 80h6.67v3.33h-6.67zM113.41 76.67h6.67V80h-6.67zM116.75 73.33h6.67v3.33h-6.67zM123.42 70h6.67v3.33h-6.67zM126.75 66.67h6.67V70h-6.67zM133.43 63.33h6.67v3.33h-6.67zM136.76 60h6.67v3.33h-6.67zM140.1 56.67h6.67V60h-6.67zM143.43 53.33h6.67v3.33h-6.67z"/><path class="st32" d="M140.1 50h3.34v3.33h-3.34zM150.1 50h10.01v3.33H150.1zM160.11 53.33h10.01v3.33h-10.01z"/><path class="st6" d="M170.12 50h6.67v3.33h-6.67z"/><path class="st32" d="M176.79 46.67h6.67V50h-6.67z"/><path class="st6" d="M186.8 40h6.67v3.33h-6.67zM196.8 30h3.34v6.67h-3.34z"/><path class="st32" d="M203.47 20h3.34v6.67h-3.34z"/><path class="st6" d="M210.14 10h3.34v6.67h-3.34zM216.82 3.33h10.01v3.33h-10.01z"/><path class="st32" d="M183.46 43.33h3.34v3.33h-3.34zM193.47 36.67h3.34V40h-3.34z"/><path class="st6" d="M200.14 26.67h3.34V30h-3.34z"/><path class="st32" d="M206.81 16.67h3.34V20h-3.34zM213.48 6.67h3.34V10h-3.34z"/><path class="st6" d="M0 0h230.16v3.33H0z"/><path class="st32" d="M136.76 46.67h3.34V50h-3.34z"/><path class="st31" d="M43.36 106.67H56.7V110H43.36zM50.03 96.67h3.34v6.67h-3.34z"/><path class="st30" d="M53.37 93.33h3.34V100h-3.34zM60.04 86.67h3.34v10h-3.34z"/><path class="st31" d="M63.38 83.33h3.34v10h-3.34z"/><path class="st30" d="M66.71 80h3.34v10h-3.34z"/><path class="st31" d="M70.05 80h6.67v3.33h-6.67z"/><path class="st30" d="M73.38 76.67h13.34V80H73.38z"/><path class="st31" d="M80.06 73.33H93.4v3.33H80.06z"/><path class="st30" d="M86.73 70h13.34v3.33H86.73zM93.4 66.67h13.34V70H93.4zM100.07 63.33h13.34v3.33h-13.34zM106.74 60h13.34v3.33h-13.34z"/><path class="st31" d="M116.75 56.67h6.67V60h-6.67z"/><path class="st32" d="M110.08 53.33h6.67v3.33h-6.67zM90.06 53.33h6.67v3.33h-6.67zM66.71 53.33h6.67v3.33h-6.67zM63.38 56.67h3.34V60h-3.34zM50.03 60h13.34v3.33H50.03z"/><path class="st6" d="M40.03 63.33h10.01v3.33H40.03z"/><path class="st32" d="M23.35 66.67h16.68V70H23.35z"/><path class="st31" d="M20.01 70h3.34v23.33h-3.34zM13.34 66.67h3.34V80h-3.34z"/><path class="st6" d="M0 63.33h13.34v3.33H0z"/><path class="st30" d="M16.68 80h3.34v13.33h-3.34zM20.01 93.33h3.34v13.33h-3.34zM23.35 100h3.34v16.67h-3.34z"/><path class="st31" d="M26.69 106.67h3.34v16.67h-3.34zM20.01 113.33h3.34V130h-3.34zM23.35 116.67h3.34v16.67h-3.34z"/><path class="st6" d="M73.38 56.67h16.68V60H73.38z"/><path class="st32" d="M96.73 50h13.34v3.33H96.73z"/><path class="st31" d="M123.42 53.33h6.67v3.33h-6.67z"/><path class="st32" d="M130.09 50h6.67v3.33h-6.67z"/><path class="st30" d="M56.71 93.33h3.34v3.33h-3.34z"/><path class="st33" d="M0 0h3.34v66.67H0z"/><path class="st6" d="M216.82 3.33v3.34h-3.34V10h-3.34v6.67h-3.33V20h-3.34v6.67h-3.33V30h-3.34v6.67h-3.33V40h-6.67v3.33h-3.34v3.34h-6.67V50h-6.67v3.33h-10.01V50H150.1v3.33h-6.67V50h-3.33v-3.33h-3.34V50h-6.67v3.33h-6.67v3.34h-6.67v-3.34h-6.67V50H96.73v3.33h-6.67v3.34H73.38v-3.34h-6.67v3.34h-3.33V60H50.03v3.33h-10v3.34H23.35V70h-3.34v-6.67h-3.33v3.34h-3.34v-3.34h-10v-60z"/><path class="st6" d="M216.82 0v3.33h-3.34v3.34h-3.34v6.66h-3.33v3.34h-3.34v6.66h-3.33v3.34h-3.34v6.66h-3.33v3.34h-6.67V40h-3.34v3.33h-6.67v3.34h-6.67V50h-10.01v-3.33H150.1V50h-6.67v-3.33h-3.33v-3.34h-3.34v3.34h-6.67V50h-6.67v3.33h-6.67V50h-6.67v-3.33H96.73V50h-6.67v3.33H73.38V50h-6.67v3.33h-3.33v3.34H50.03V60h-10v3.33H23.35v3.34h-3.34V60h-3.33v3.33h-3.34V60h-10V0z"/><path class="st30" d="M16.68 63.33h3.34V80h-3.34z"/><path class="st32" d="M153.44 0h46.7v6.67h-46.7z"/><path class="st32" d="M143.43 3.33h46.7V10h-46.7zM150.1 10h33.36v6.67H150.1z"/><path class="st32" d="M163.45 13.33h26.69v3.33h-26.69zM166.78 0h46.7v3.33h-46.7zM176.79 33.33h3.34V40h-3.34zM173.45 23.33h3.34V30h-3.34zM163.45 23.33h3.34V30h-3.34z"/><path class="st32" d="M160.11 23.33h3.34V30h-3.34zM156.77 23.33h3.34V30h-3.34z"/><path class="st32" d="M153.44 23.33h3.34V30h-3.34z"/><path class="st32" d="M146.77 26.67h33.36v6.67h-33.36zM173.45 36.67h3.34v6.67h-3.34z"/><path class="st32" d="M160.11 33.33h13.34V40h-13.34z"/><path class="st32" d="M150.1 33.33h13.34v3.33H150.1zM113.41 46.67h13.34V50h-13.34zM116.75 43.33h13.34v3.33h-13.34zM133.43 40h13.34v3.33h-13.34zM136.76 36.67h6.67V40h-6.67zM133.43 33.33h3.34v3.33h-3.34zM136.76 30h3.34v3.33h-3.34zM100.07 43.33h13.34v3.33h-13.34zM106.74 40h13.34v3.33h-13.34zM100.07 36.67h6.67V40h-6.67zM80.06 43.33h6.67v3.33h-6.67zM70.05 43.33h6.67v3.33h-6.67zM73.38 40h6.67v3.33h-6.67zM83.39 40h6.67v3.33h-6.67zM116.75 36.67h6.67V40h-6.67zM110.08 36.67h6.67V40h-6.67z"/><path class="st32" d="M113.41 43.33h13.34v3.33h-13.34zM113.41 40h13.34v3.33h-13.34zM93.4 40h13.34v3.33H93.4zM70.05 46.67h13.34V50H70.05zM43.36 53.33H56.7v3.33H43.36zM46.7 50h13.34v3.33H46.7zM56.71 46.67h6.67V50h-6.67zM50.03 43.33h6.67v3.33h-6.67zM43.36 46.67h6.67V50h-6.67zM180.12 30h3.34v6.67h-3.34z"/><path class="st33" d="M90.06 0v3.33H66.71v3.34H53.37V3.33H36.69v3.34h-10V10h-3.34v3.33h-3.34v3.34h-6.67v10h-3.33v6.66H6.67v3.34H3.34v5H0V0z"/><path class="st33" d="M56.71 13.33H40.03V20h-6.67v3.33H23.35v3.34h13.34V30H46.7v-3.33h3.33v-3.34h3.34V20h6.67v-3.33h10.01V10h-3.34v3.33h-3.33V10h-6.67zM26.69 46.67V40h-6.68v-3.33h-3.33v6.66h-6.67v3.34H6.67V50h13.34v3.33h3.34v-6.66z"/><path class="st6" d="M0 166.67h23.35V170H0z"/><path class="st32" d="M23.35 170h10.01v3.33H23.35zM33.36 173.33h10.01v3.33H33.36z"/><path class="st6" d="M43.36 176.67h6.67V180h-6.67z"/><path class="st32" d="M53.37 183.33h6.67v3.33h-6.67zM50.03 180h3.34v3.33h-3.34z"/><path class="st6" d="M60.04 180h3.34v3.33h-3.34z"/><path transform="rotate(-180 78.387 218.333)" class="st33" d="M76.72 216.67h3.34V220h-3.34z"/><path transform="rotate(-180 95.066 211.667)" class="st6" d="M93.4 210h3.34v3.33H93.4z"/><path transform="rotate(-180 105.073 188.333)" class="st6" d="M103.4 186.67h3.34V190h-3.34z"/><path transform="rotate(-180 61.71 175)" class="st32" d="M60.04 173.33h3.34v3.33h-3.34z"/><path transform="rotate(-180 65.045 221.667)" class="st33" d="M63.38 220h3.34v3.33h-3.34z"/><path class="st6" d="M73.38 180h6.67v3.33h-6.67z"/><path class="st32" d="M93.4 186.67h6.67V190H93.4z"/><path class="st6" d="M100.07 190h3.34v6.67h-3.34zM96.73 196.67h3.34v6.67h-3.34z"/><path class="st6" d="M93.4 203.33h3.34v3.33H93.4zM86.73 206.67h6.67V210h-6.67z"/><path class="st33" d="M76.72 210h10.01v3.33H76.72zM63.38 213.33h13.34v3.33H63.38zM50.03 216.67h13.34V220H50.03z"/><path transform="rotate(-180 51.702 225)" class="st30" d="M50.03 220h3.34v10h-3.34z"/><path transform="rotate(-180 48.367 235)" class="st30" d="M46.7 230h3.34v10H46.7z"/><path class="st31" d="M43.36 240h3.34v10h-3.34zM40.03 250h3.34v3.33h-3.34zM36.69 253.33h3.34v3.33h-3.34zM26.69 260h3.34v3.33h-3.34zM30.02 256.67h6.67V260h-6.67zM23.35 263.33h3.34V270h-3.34zM20.01 270h3.34v6.67h-3.34z"/><path class="st30" d="M13.34 263.33h3.34V270h-3.34zM16.68 256.67h3.34v6.67h-3.34z"/><path class="st31" d="M16.68 276.67h3.34v6.67h-3.34zM13.34 283.33h3.34v3.33h-3.34z"/><path class="st30" d="M10.01 270h3.34v3.33h-3.34zM20.01 253.33h3.34v3.33h-3.34z"/><path transform="rotate(-180 21.682 245)" class="st30" d="M20.01 243.33h3.34v3.33h-3.34z"/><path transform="rotate(-180 25.017 245)" class="st31" d="M23.35 243.33h3.34v3.33h-3.34z"/><path class="st31" d="M26.69 246.67h3.34V250h-3.34zM30.02 250h3.34v3.33h-3.34zM33.36 246.67h3.34V250h-3.34zM36.69 236.67h3.34v10h-3.34zM33.36 230h3.34v6.67h-3.34z"/><path class="st30" d="M30.02 223.33h3.34V230h-3.34z"/><path class="st30" d="M26.69 216.67h3.34v6.67h-3.34z"/><path transform="rotate(-180 21.682 241.667)" class="st31" d="M20.01 240h3.34v3.33h-3.34z"/><path transform="rotate(-180 15.01 235)" class="st31" d="M13.34 233.33h3.34v3.33h-3.34z"/><path transform="rotate(-180 18.346 240)" class="st30" d="M16.68 236.67h3.34v6.67h-3.34z"/><path class="st31" d="M23.35 246.67h3.34v6.67h-3.34z"/><path class="st30" d="M6.67 273.33h3.34v3.33H6.67zM0 276.67h6.67V280H0z"/><path class="st31" d="M10.01 286.67h3.34V290h-3.34zM6.67 290h3.34v3.33H6.67zM3.34 293.33h3.34v3.33H3.34z"/><path class="st31" d="M43.36 236.67V250h-3.33v3.33h-3.34v3.34h-6.67V260h-3.33v3.33h-3.34V270h-3.34v6.67h-3.33v6.66h-3.34v3.34h-3.33V290H6.67v3.33H3.34V280h3.33v-3.33h3.34v-3.34h3.33V270h3.34v-6.67h3.33v-6.66h3.34v-3.34h3.34V250h3.33v3.33h3.34V250h3.33v-3.33h3.34v-10zM0 280h3.34v20H0z"/><path class="st33" d="M40.03 213.33h10.01v3.33H40.03z"/><path class="st6" d="M23.35 213.33h10.01v3.33H23.35z"/><path class="st33" d="M10.01 210h13.34v3.33H10.01zM0 206.67h10.01V210H0z"/><path class="st6" d="M0 170h3.34v36.67H0z"/><path class="st30" d="M40.03 226.67v10h-3.34V230h-3.33v-6.67h-3.34v-6.66h3.34V220h3.33v6.67z"/><path class="st33" d="M33.36 216.67h6.67V220h-6.67z"/><path class="st32" d="M80.06 183.33H93.4v3.33H80.06z"/><path class="st6" d="M100.07 190v6.67h-3.34v6.66H93.4v3.34h-6.67V210H76.72v3.33H63.38v3.34H50.03v-3.34h-10v3.34h-6.67v-3.34H23.35V210H10.01v-3.33H3.34V170h20.01v3.33h10.01v3.34h10V180h6.67v3.33h3.34v3.34h6.67v-3.34h3.34V180h10v3.33h6.68v3.34H93.4V190z"/><path class="st32" d="M63.38 176.67h10.01V180H63.38zM73.38 186.67h20.01V190H73.38zM66.71 190H93.4v3.33H66.71z"/><path class="st32" d="M60.04 190h26.69v3.33H60.04zM36.69 180h16.68v3.33H36.69zM66.71 193.33h20.01v3.33H66.71zM33.36 183.33h20.01v3.33H33.36zM40.03 186.67h13.34V190H40.03zM16.68 173.33h13.34v3.33H16.68zM10.01 166.67h13.34V170H10.01zM6.67 170h13.34v3.33H6.67zM13.34 176.67h6.67V180h-6.67zM23.35 176.67h6.67V180h-6.67zM20.01 180h6.67v3.33h-6.67zM10.01 183.33h6.67v3.33h-6.67zM30.02 190h6.67v3.33h-6.67zM43.36 190h6.67v3.33h-6.67zM53.37 200h6.67v3.33h-6.67zM50.03 196.67h6.67V200h-6.67zM60.04 203.33h6.67v3.33h-6.67z"/><path class="st32" d="M46.7 200h6.67v3.33H46.7z"/><path class="st33" d="M50.03 213.33h13.34v3.33H50.03zM36.69 210h13.34v3.33H36.69zM23.35 213.33h13.34v3.33H23.35zM20.01 210h13.34v3.33H20.01zM20.01 206.67h13.34V210H20.01zM10.01 200h13.34v3.33H10.01zM6.67 203.33h13.34v3.33H6.67zM3.34 206.67h13.34V210H3.34z"/></g></g></g></svg>