<?xml version="1.0" encoding="UTF-8" standalone="no"?>
<svg
   id="Слой_1"
   data-name="Слой 1"
   viewBox="0 0 476 476"
   version="1.1"
   sodipodi:docname="BS101-biometric-icon-14.svg"
   width="476"
   height="476"
   inkscape:version="1.2.2 (b0a84865, 2022-12-01)"
   xmlns:inkscape="http://www.inkscape.org/namespaces/inkscape"
   xmlns:sodipodi="http://sodipodi.sourceforge.net/DTD/sodipodi-0.dtd"
   xmlns="http://www.w3.org/2000/svg"
   xmlns:svg="http://www.w3.org/2000/svg">
  <sodipodi:namedview
     id="namedview1713"
     pagecolor="#ffffff"
     bordercolor="#000000"
     borderopacity="0.25"
     inkscape:showpageshadow="2"
     inkscape:pageopacity="0.0"
     inkscape:pagecheckerboard="0"
     inkscape:deskcolor="#d1d1d1"
     showgrid="false"
     inkscape:zoom="0.236"
     inkscape:cx="-137.71186"
     inkscape:cy="237.28814"
     inkscape:window-width="1440"
     inkscape:window-height="456"
     inkscape:window-x="0"
     inkscape:window-y="25"
     inkscape:window-maximized="0"
     inkscape:current-layer="Слой_1" />
  <defs
     id="defs1702">
    <style
       id="style1700">.cls-1{fill:#04c3bc;}</style>
  </defs>
  <path
     class="cls-1"
     d="M 408,476 H 68 A 68.09,68.09 0 0 1 0,408 V 68 A 68.09,68.09 0 0 1 68,0 h 340 a 68.09,68.09 0 0 1 68,68 v 340 a 68.09,68.09 0 0 1 -68,68 z M 68,10 A 58.09,58.09 0 0 0 10,68 v 340 a 58.09,58.09 0 0 0 58,58 h 340 a 58.09,58.09 0 0 0 58,-58 V 68 A 58.09,58.09 0 0 0 408,10 Z"
     id="path1704" />
  <path
     class="cls-1"
     d="M 238,223.88 A 65.29,65.29 0 1 1 303.29,158.6 65.36,65.36 0 0 1 238,223.88 Z m 0,-120.57 A 55.29,55.29 0 1 0 293.29,158.6 55.35,55.35 0 0 0 238,103.31 Z"
     id="path1706" />
  <path
     class="cls-1"
     d="m 238,276.68 -45.25,-52.48 45.25,-8.85 45.25,8.85 z m -26.43,-46 26.43,30.69 26.44,-30.66 -26.44,-5.17 z"
     id="path1708" />
  <path
     class="cls-1"
     d="M 345.25,382.69 H 130.75 V 274.39 A 46.34,46.34 0 0 1 168.1,229 l 35.95,-7 33.95,39.37 34,-39.37 35.95,7 a 46.34,46.34 0 0 1 37.35,45.38 z m -204.5,-10 h 194.5 v -98.3 A 36.31,36.31 0 0 0 306,238.83 L 275.77,232.92 238,276.68 200.27,232.92 170,238.83 a 36.31,36.31 0 0 0 -29.28,35.56 z"
     id="path1710" />
</svg>
