<?xml version="1.0" encoding="UTF-8" standalone="no"?>
<svg
   id="Слой_1"
   data-name="Слой 1"
   viewBox="0 0 476 476"
   version="1.1"
   sodipodi:docname="BS101-biometric-icon-05.svg"
   width="476"
   height="476"
   inkscape:version="1.2.2 (b0a84865, 2022-12-01)"
   xmlns:inkscape="http://www.inkscape.org/namespaces/inkscape"
   xmlns:sodipodi="http://sodipodi.sourceforge.net/DTD/sodipodi-0.dtd"
   xmlns="http://www.w3.org/2000/svg"
   xmlns:svg="http://www.w3.org/2000/svg">
  <sodipodi:namedview
     id="namedview449"
     pagecolor="#ffffff"
     bordercolor="#000000"
     borderopacity="0.25"
     inkscape:showpageshadow="2"
     inkscape:pageopacity="0.0"
     inkscape:pagecheckerboard="0"
     inkscape:deskcolor="#d1d1d1"
     showgrid="false"
     inkscape:zoom="0.236"
     inkscape:cx="-137.71186"
     inkscape:cy="237.28814"
     inkscape:window-width="1440"
     inkscape:window-height="456"
     inkscape:window-x="0"
     inkscape:window-y="25"
     inkscape:window-maximized="0"
     inkscape:current-layer="Слой_1" />
  <defs
     id="defs438">
    <style
       id="style436">.cls-1{fill:#04c3bc;}</style>
  </defs>
  <path
     class="cls-1"
     d="M 408,476 H 68 A 68.1,68.1 0 0 1 0,408 V 68 A 68.1,68.1 0 0 1 68,0 h 340 a 68.1,68.1 0 0 1 68,68 v 340 a 68.1,68.1 0 0 1 -68,68 z M 68,10 A 58.09,58.09 0 0 0 10,68 v 340 a 58.09,58.09 0 0 0 58,58 h 340 a 58.09,58.09 0 0 0 58,-58 V 68 A 58.09,58.09 0 0 0 408,10 Z"
     id="path440" />
  <path
     class="cls-1"
     d="m 239.62,353.42 a 173.88,173.88 0 0 1 -84.41,-21.87 l -1.79,-1 c -5.79,-3 -22.62,-9.84 -32,-6.7 a 8.37,8.37 0 0 0 -5.19,4.47 28.45,28.45 0 0 1 -23,16 37,37 0 0 1 -32.72,-13.94 c -7.71,-9.71 -7.49,-34.58 5.14,-54.74 9.41,-15 32.94,-38.54 84.67,-27.05 35.06,7.79 59.22,5.08 73.85,-8.28 17.13,-15.64 22.38,-47.57 16,-97.59 -2.78,-5.11 -15.06,-29.57 -5.62,-46.77 5.45,-9.94 16.68,-15.32 33.39,-16 27.17,-1.1 33.14,-7.44 37.94,-12.54 6.09,-6.47 11.4,-10.55 29,-8.36 24,3 43.37,10.6 57.42,22.57 19.91,17 29.49,42.59 28.46,76.17 -1.16,37.88 -13.23,78.88 -33.13,112.5 -22.77,38.48 -59.53,66 -103.52,77.43 a 176.5,176.5 0 0 1 -44.49,5.7 z M 127.11,313.07 c 13.73,0 28.93,7.59 30.95,8.63 l 0.15,0.08 1.84,1 c 76.76,42.5 175,16.65 218.93,-57.62 19.02,-32.16 30.63,-71.44 31.73,-107.69 1.6,-52.13 -24.35,-81.91 -77.12,-88.5 -13.84,-1.73 -16.33,0.91 -20.45,5.28 -5.73,6.09 -13.57,14.42 -44.82,15.68 -13,0.52 -21.36,4.15 -25,10.79 -6.37,11.57 2.18,31.26 6,37.88 l 0.51,0.87 0.13,1 c 7.06,54.79 1,88.85 -19.1,107.21 -17.22,15.72 -44.29,19.2 -82.77,10.65 -45.74,-10.16 -66,9.8 -74,22.6 -10.62,17 -10.51,37.24 -5.78,43.21 a 27.37,27.37 0 0 0 23.8,10.22 18.45,18.45 0 0 0 15.11,-10.36 18.41,18.41 0 0 1 11,-9.6 28.16,28.16 0 0 1 8.89,-1.33 z"
     id="path442" />
  <path
     class="cls-1"
     d="m 275.94,388.79 c -5,0 -10.19,-0.18 -15.64,-0.58 a 5.0129432,5.0129432 0 0 1 0.72,-10 c 40.26,2.91 72.69,-5.78 93.83,-25.1 15.9,-14.54 20,-30.19 20.07,-30.35 a 5,5 0 0 1 9.7,2.42 c -0.18,0.74 -4.68,18.3 -22.52,34.85 -14.58,13.56 -41.02,28.76 -86.16,28.76 z"
     id="path444" />
  <path
     class="cls-1"
     d="m 269,417.54 c -6.79,0 -13.89,-0.25 -21.32,-0.79 a 5.0129432,5.0129432 0 1 1 0.72,-10 c 55.83,4 100.88,-8.1 130.25,-35.07 22.13,-20.31 27.85,-42.16 27.9,-42.38 a 5,5 0 0 1 9.7,2.42 c -0.24,1 -6.28,24.54 -30.35,46.88 -19.79,18.4 -55.63,38.94 -116.9,38.94 z"
     id="path446" />
</svg>
