<?xml version="1.0" encoding="UTF-8" standalone="no"?>
<svg
   id="Слой_1"
   data-name="Слой 1"
   viewBox="0 0 476 476"
   version="1.1"
   sodipodi:docname="BS101-biometric-icon-01.svg"
   width="476"
   height="476"
   inkscape:version="1.2.2 (b0a84865, 2022-12-01)"
   xmlns:inkscape="http://www.inkscape.org/namespaces/inkscape"
   xmlns:sodipodi="http://sodipodi.sourceforge.net/DTD/sodipodi-0.dtd"
   xmlns="http://www.w3.org/2000/svg"
   xmlns:svg="http://www.w3.org/2000/svg">
  <sodipodi:namedview
     id="namedview143"
     pagecolor="#ffffff"
     bordercolor="#000000"
     borderopacity="0.25"
     inkscape:showpageshadow="2"
     inkscape:pageopacity="0.0"
     inkscape:pagecheckerboard="0"
     inkscape:deskcolor="#d1d1d1"
     showgrid="false"
     showguides="true"
     inkscape:zoom="0.236"
     inkscape:cx="-129.23729"
     inkscape:cy="239.40678"
     inkscape:window-width="1670"
     inkscape:window-height="701"
     inkscape:window-x="0"
     inkscape:window-y="25"
     inkscape:window-maximized="0"
     inkscape:current-layer="Слой_1" />
  <defs
     id="defs134">
    <style
       id="style132">.cls-1{fill:#04c3bc;}</style>
  </defs>
  <path
     class="cls-1"
     d="M 408,476 H 68 A 68.1,68.1 0 0 1 0,408 V 68 A 68.1,68.1 0 0 1 68,0 h 340 a 68.09,68.09 0 0 1 68,68 v 340 a 68.09,68.09 0 0 1 -68,68 z M 68,10 A 58.09,58.09 0 0 0 10,68 v 340 a 58.09,58.09 0 0 0 58,58 h 340 a 58.09,58.09 0 0 0 58,-58 V 68 A 58.09,58.09 0 0 0 408,10 Z"
     id="path136" />
  <path
     class="cls-1"
     d="m 351.12,431 a 29.46,29.46 0 0 1 -21,-8.68 L 318,410.19 H 158 l -12.11,12.12 a 29.65,29.65 0 0 1 -44.95,-38.39 29.65,29.65 0 0 1 44.95,-38.39 L 158,357.65 h 160 l 12.12,-12.12 a 29.65,29.65 0 0 1 45,38.39 29.65,29.65 0 0 1 -24,47.07 z M 155.88,400.2 h 164.24 a 5,5 0 0 1 3.53,1.47 l 13.58,13.58 a 19.643428,19.643428 0 1 0 27.77,-27.79 5,5 0 0 1 0,-7.07 19.65,19.65 0 1 0 -27.78,-27.79 l -13.58,13.58 a 5,5 0 0 1 -3.53,1.47 H 155.88 a 5,5 0 0 1 -3.53,-1.47 L 138.77,352.6 a 19.64,19.64 0 1 0 -27.77,27.78 5,5 0 0 1 0,7.07 19.65,19.65 0 0 0 27.78,27.79 l 13.58,-13.58 a 5,5 0 0 1 3.52,-1.47 z"
     id="path138" />
  <path
     class="cls-1"
     d="m 193.93,326.26 a 172.87,172.87 0 0 1 -44.53,-5.5 137.84,137.84 0 0 1 -43.82,-20.31 c -6.61,-4.6 -10.95,-10.9 -13.25,-19.25 -2.38,-8.63 -3,-18.05 -2,-30.55 1.34,-17.16 5.21,-35.4 12.18,-57.4 a 349.08,349.08 0 0 1 22.64,-55.06 186.45,186.45 0 0 1 16.7,-26.84 c 4.56,-6 9.16,-12.18 13.61,-18.12 7.18,-9.6 14.61,-19.52 22,-29.16 C 184.72,54.61 193.75,50 205,50 a 46.69,46.69 0 0 1 5.45,0.33 33.74,33.74 0 0 1 15.21,6.2 c 7,4.84 16.13,11.39 24.11,19.19 7,6.85 11.34,12.71 14,19 3.38,7.92 2.82,15.67 -1.69,23.7 -5.25,9.33 -13.56,16.54 -25.4,22 a 59,59 0 0 1 -25.2,6 53.5,53.5 0 0 1 -5.79,-0.32 c -1.21,-0.14 -2.54,-0.39 -3.95,-0.65 l -2.37,-0.43 -7.12,-1.21 -2.25,6.85 c -6.42,19 -8.34,38.54 -9.3,53.43 l -1.07,16.68 15.37,-9.83 2.26,-1.45 a 54.73,54.73 0 0 1 22.28,-8.49 67,67 0 0 1 8.59,-0.43 h 4.49 a 174.8,174.8 0 0 1 26.38,2.17 11.8,11.8 0 0 0 1.94,0.16 11.07,11.07 0 0 0 8.05,-3.49 c 12.35,-12.67 27,-19.44 44.67,-20.71 1.77,-0.12 3.55,-0.19 5.28,-0.19 a 61.93,61.93 0 0 1 31.06,8.06 c 25.25,14.43 37,35.5 36.06,64.43 -0.51,14.71 -6.05,28.35 -16.48,40.55 a 68.14,68.14 0 0 1 -75.44,19.19 16.92,16.92 0 0 0 -6,-1.13 17.14,17.14 0 0 0 -5.46,0.92 301.22,301.22 0 0 1 -65.21,14.47 232.46,232.46 0 0 1 -23.54,1.26 z m 11.16,-267.7 c -8,0 -15.66,4 -20.88,10.91 l -11.29,15 c -7.7,10.28 -15.67,20.9 -23.57,31.29 a 177.62,177.62 0 0 0 -16.2,25.73 345,345 0 0 0 -28.1,74.28 c -4.27,16.88 -6.34,30.81 -6.5,43.84 a 65.35,65.35 0 0 0 2.52,20.62 24.31,24.31 0 0 0 9.17,12.84 126.7,126.7 0 0 0 44.36,20 165.78,165.78 0 0 0 39.33,4.47 222.8,222.8 0 0 0 23,-1.25 c 22.47,-2.35 45.27,-7.67 69.71,-16.28 0.87,-0.3 1.64,-0.64 2.33,-0.94 l 0.41,-0.17 0.4,0.23 c 0.63,0.37 1.35,0.79 2.17,1.19 a 58.35,58.35 0 0 0 26,6 59.12,59.12 0 0 0 52.91,-32 59.92,59.92 0 0 0 -24.25,-80 58.5,58.5 0 0 0 -28.51,-7.32 59.5,59.5 0 0 0 -38.1,13.86 72.49,72.49 0 0 0 -11.26,12.38 182.06,182.06 0 0 0 -35.86,-4 h -1.66 -2.4 a 54.92,54.92 0 0 0 -10.2,0.78 c -10.09,1.93 -19.32,7.17 -28.2,16 a 96.49,96.49 0 0 0 -18.79,26.85 l -8.23,-2.9 a 138,138 0 0 1 7,-12.73 12,12 0 0 0 1.79,-6.95 249.43,249.43 0 0 1 3.53,-58.1 136.38,136.38 0 0 1 8.05,-29.09 c 1.82,-4.38 4.68,-8.42 7.79,-12.61 0.37,0.29 0.72,0.59 1.07,0.89 A 27.32,27.32 0 0 0 211,137.8 c 0.66,0 1.34,0 2,-0.06 a 55.67,55.67 0 0 0 25.78,-8.13 45.42,45.42 0 0 0 14.5,-13.17 c 5.26,-7.58 5.33,-15.88 0.21,-22.78 A 108.23,108.23 0 0 0 244,82.2 C 237.22,75.31 229.72,69.75 220.54,63.51 a 27.47,27.47 0 0 0 -15.45,-4.95 z"
     id="path140" />
</svg>
