<?xml version="1.0" encoding="UTF-8" standalone="no"?>
<svg
   id="Слой_1"
   data-name="Слой 1"
   viewBox="0 0 476 476"
   version="1.1"
   sodipodi:docname="BS101-biometric-icon-13.svg"
   width="476"
   height="476"
   inkscape:version="1.2.2 (b0a84865, 2022-12-01)"
   xmlns:inkscape="http://www.inkscape.org/namespaces/inkscape"
   xmlns:sodipodi="http://sodipodi.sourceforge.net/DTD/sodipodi-0.dtd"
   xmlns="http://www.w3.org/2000/svg"
   xmlns:svg="http://www.w3.org/2000/svg">
  <sodipodi:namedview
     id="namedview1581"
     pagecolor="#ffffff"
     bordercolor="#000000"
     borderopacity="0.25"
     inkscape:showpageshadow="2"
     inkscape:pageopacity="0.0"
     inkscape:pagecheckerboard="0"
     inkscape:deskcolor="#d1d1d1"
     showgrid="false"
     inkscape:zoom="0.236"
     inkscape:cx="-137.71186"
     inkscape:cy="237.28814"
     inkscape:window-width="1440"
     inkscape:window-height="456"
     inkscape:window-x="0"
     inkscape:window-y="25"
     inkscape:window-maximized="0"
     inkscape:current-layer="Слой_1" />
  <defs
     id="defs1564">
    <style
       id="style1562">.cls-1{fill:#04c3bc;}</style>
  </defs>
  <path
     class="cls-1"
     d="M 408,476 H 68 A 68.1,68.1 0 0 1 0,408 V 68 A 68.11,68.11 0 0 1 68,0 h 340 a 68.1,68.1 0 0 1 68,68 v 340 a 68.09,68.09 0 0 1 -68,68 z M 68,10 A 58.09,58.09 0 0 0 10,68 v 340 a 58.09,58.09 0 0 0 58,58 h 340 a 58.09,58.09 0 0 0 58,-58 V 68 A 58.09,58.09 0 0 0 408,10 Z"
     id="path1566" />
  <path
     class="cls-1"
     d="m 138.8,221.86 a 75.76,75.76 0 1 1 75.76,-75.76 75.84,75.84 0 0 1 -75.76,75.76 z m 0,-141.52 A 65.76,65.76 0 1 0 204.56,146.1 65.83,65.83 0 0 0 138.8,80.34 Z"
     id="path1568" />
  <path
     class="cls-1"
     d="M 349.36,284.33 A 63.61,63.61 0 1 1 413,220.72 63.69,63.69 0 0 1 349.36,284.33 Z m 0,-117.21 a 53.61,53.61 0 1 0 53.6,53.6 53.67,53.67 0 0 0 -53.6,-53.6 z"
     id="path1570" />
  <path
     class="cls-1"
     d="m 178.45,405.66 a 50.41,50.41 0 1 1 50.4,-50.41 50.47,50.47 0 0 1 -50.4,50.41 z m 0,-90.81 a 40.41,40.41 0 1 0 40.4,40.4 40.44,40.44 0 0 0 -40.4,-40.4 z"
     id="path1572" />
  <path
     class="cls-1"
     d="m 216.17,335 a 5,5 0 0 1 -3,-9 l 91,-68.62 a 5,5 0 1 1 6,8 L 219.18,334 a 5,5 0 0 1 -3.01,1 z"
     id="path1574" />
  <path
     class="cls-1"
     d="m 302.45,190.6 a 5,5 0 0 1 -1.69,-0.3 L 207.59,157 a 5,5 0 0 1 3.37,-9.41 l 93.17,33.31 a 5,5 0 0 1 -1.68,9.71 z"
     id="path1576" />
  <path
     class="cls-1"
     d="m 165.62,316.7 a 5,5 0 0 1 -4.87,-3.92 l -20.19,-91 a 5.0040434,5.0040434 0 0 1 9.77,-2.17 l 20.18,91 a 5,5 0 0 1 -3.8,6 4.51,4.51 0 0 1 -1.09,0.09 z"
     id="path1578" />
</svg>
