<?xml version="1.0" encoding="UTF-8" standalone="no"?>
<svg
   id="Слой_1"
   data-name="Слой 1"
   viewBox="0 0 476 476"
   version="1.1"
   sodipodi:docname="BS101-biometric-icon-10.svg"
   width="476"
   height="476"
   inkscape:version="1.2.2 (b0a84865, 2022-12-01)"
   xmlns:inkscape="http://www.inkscape.org/namespaces/inkscape"
   xmlns:sodipodi="http://sodipodi.sourceforge.net/DTD/sodipodi-0.dtd"
   xmlns="http://www.w3.org/2000/svg"
   xmlns:svg="http://www.w3.org/2000/svg">
  <sodipodi:namedview
     id="namedview1167"
     pagecolor="#ffffff"
     bordercolor="#000000"
     borderopacity="0.25"
     inkscape:showpageshadow="2"
     inkscape:pageopacity="0.0"
     inkscape:pagecheckerboard="0"
     inkscape:deskcolor="#d1d1d1"
     showgrid="false"
     inkscape:zoom="0.236"
     inkscape:cx="-137.71186"
     inkscape:cy="237.28814"
     inkscape:window-width="1440"
     inkscape:window-height="456"
     inkscape:window-x="0"
     inkscape:window-y="25"
     inkscape:window-maximized="0"
     inkscape:current-layer="Слой_1" />
  <defs
     id="defs1148">
    <style
       id="style1146">.cls-1{fill:#04c3bc;}</style>
  </defs>
  <path
     class="cls-1"
     d="M 408,476 H 68 A 68.09,68.09 0 0 1 0,408 V 68 A 68.09,68.09 0 0 1 68,0 h 340 a 68.09,68.09 0 0 1 68,68 v 340 a 68.09,68.09 0 0 1 -68,68 z M 68,10 A 58.09,58.09 0 0 0 10,68 v 340 a 58.09,58.09 0 0 0 58,58 h 340 a 58.09,58.09 0 0 0 58,-58 V 68 A 58.09,58.09 0 0 0 408,10 Z"
     id="path1150" />
  <path
     class="cls-1"
     d="m 94.92,243 a 5,5 0 0 1 -3.19,-1.16 c -0.91,-0.76 -22.35,-19 -23.5,-51.52 -1.07,-30.23 15.52,-62 49.32,-94.48 a 5,5 0 0 1 7.85,6 c -0.51,1 -12.55,24.44 10.83,52 A 109.32,109.32 0 0 1 148,170.19 c -0.11,-1.05 -0.24,-2.14 -0.38,-3.27 -3.95,-30.43 4.42,-48.73 4.77,-49.49 a 5,5 0 0 1 8.63,-0.74 c 0.07,0.09 7.61,10.61 22.56,18.75 9.67,5.27 20.64,18.21 23.34,35.27 2.1,13.28 0,34 -22.1,57.33 a 5.0010499,5.0010499 0 0 1 -7.26,-6.88 c 15.26,-16.12 22,-33 19.48,-48.89 -2.15,-13.62 -11,-24.08 -18.24,-28 a 86.92,86.92 0 0 1 -19.81,-14.74 c -1.8,7.42 -3.57,19.86 -1.46,36.15 4,30.58 -4.45,39 -6.18,40.4 a 5.12,5.12 0 0 1 -6.78,-0.26 4.85,4.85 0 0 1 -0.46,-6.49 c 0.53,-1 6.35,-13.35 -15.45,-39 -14.31,-16.84 -17.29,-32.67 -16.7,-44.28 -23.13,25.69 -34.45,50.46 -33.69,73.77 a 64.53,64.53 0 0 0 19.92,44.4 5,5 0 0 1 -3.22,8.83 z m 49.19,-43.77 z"
     id="path1152" />
  <path
     class="cls-1"
     d="m 289.76,377.93 c -28.18,0 -54.75,-5.92 -74.81,-16.67 C 193.9,350 182.31,334.63 182.31,318 v -5 H 397.2 v 5 c 0,16.59 -11.59,31.94 -32.64,43.22 -20.06,10.78 -46.63,16.71 -74.8,16.71 z M 192.81,323 c 2.2,10.9 11.54,21.2 26.86,29.41 18.64,10 43.53,15.48 70.09,15.48 26.56,0 51.44,-5.5 70.08,-15.48 C 375.16,344.2 384.5,333.9 386.7,323 Z"
     id="path1154" />
  <path
     class="cls-1"
     d="M 397.2,266.5 H 182.31 v -5 c 0,-16.59 11.59,-31.95 32.64,-43.23 20.06,-10.75 46.63,-16.67 74.8,-16.67 28.17,0 54.74,5.92 74.81,16.67 21.05,11.28 32.64,26.64 32.64,43.23 z m -204.39,-10 H 386.7 c -2.2,-10.9 -11.54,-21.2 -26.87,-29.41 -18.63,-10 -43.52,-15.49 -70.08,-15.49 -26.56,0 -51.44,5.5 -70.08,15.49 -15.32,8.21 -24.67,18.51 -26.86,29.41 z"
     id="path1156" />
  <path
     class="cls-1"
     d="m 417.51,301.53 a 4.87,4.87 0 0 1 -2.18,-0.51 l -23.88,-11.65 a 13.26,13.26 0 0 0 -11.75,0 l -15.8,7.71 a 23.2,23.2 0 0 1 -20.52,0 l -15.81,-7.71 a 13.26,13.26 0 0 0 -11.75,0 L 300,297.08 a 23.22,23.22 0 0 1 -20.53,0 l -15.8,-7.71 a 13.26,13.26 0 0 0 -11.75,0 l -15.8,7.71 a 23.22,23.22 0 0 1 -20.53,0 l -15.8,-7.71 a 13.26,13.26 0 0 0 -11.75,0 L 164.19,301 a 5.0067979,5.0067979 0 1 1 -4.39,-9 l 23.87,-11.66 a 23.28,23.28 0 0 1 20.53,0 l 15.8,7.76 a 13.33,13.33 0 0 0 11.75,0 l 15.8,-7.72 a 23.28,23.28 0 0 1 20.53,0 l 15.8,7.72 a 13.33,13.33 0 0 0 11.75,0 l 15.8,-7.72 a 23.28,23.28 0 0 1 20.53,0 l 15.8,7.72 a 13.33,13.33 0 0 0 11.75,0 l 15.81,-7.72 a 23.26,23.26 0 0 1 20.52,0 L 419.71,292 a 5,5 0 0 1 -2.2,9.49 z"
     id="path1158" />
  <ellipse
     class="cls-1"
     cx="289.75"
     cy="226.95001"
     rx="14.58"
     ry="5.0799999"
     id="ellipse1160" />
  <ellipse
     class="cls-1"
     cx="234.98001"
     cy="239.13"
     rx="14.58"
     ry="5.0799999"
     id="ellipse1162" />
  <ellipse
     class="cls-1"
     cx="344.53003"
     cy="239.13"
     rx="14.58"
     ry="5.0799999"
     id="ellipse1164" />
</svg>
