<?xml version="1.0" encoding="UTF-8" standalone="no"?>
<svg
   id="Слой_1"
   data-name="Слой 1"
   viewBox="0 0 476 476"
   version="1.1"
   sodipodi:docname="BS101-biometric-icon-04.svg"
   width="476"
   height="476"
   inkscape:version="1.2.2 (b0a84865, 2022-12-01)"
   xmlns:inkscape="http://www.inkscape.org/namespaces/inkscape"
   xmlns:sodipodi="http://sodipodi.sourceforge.net/DTD/sodipodi-0.dtd"
   xmlns="http://www.w3.org/2000/svg"
   xmlns:svg="http://www.w3.org/2000/svg">
  <sodipodi:namedview
     id="namedview149"
     pagecolor="#ffffff"
     bordercolor="#000000"
     borderopacity="0.25"
     inkscape:showpageshadow="2"
     inkscape:pageopacity="0.0"
     inkscape:pagecheckerboard="0"
     inkscape:deskcolor="#d1d1d1"
     showgrid="false"
     inkscape:zoom="0.236"
     inkscape:cx="-137.71186"
     inkscape:cy="237.28814"
     inkscape:window-width="1440"
     inkscape:window-height="456"
     inkscape:window-x="0"
     inkscape:window-y="25"
     inkscape:window-maximized="0"
     inkscape:current-layer="Слой_1" />
  <defs
     id="defs134">
    <style
       id="style132">.cls-1{fill:#04c3bc;}</style>
  </defs>
  <path
     class="cls-1"
     d="M 408,476 H 68 A 68.11,68.11 0 0 1 0,408 V 68 A 68.1,68.1 0 0 1 68,0 h 340 a 68.09,68.09 0 0 1 68,68 v 340 a 68.1,68.1 0 0 1 -68,68 z M 68,10 A 58.09,58.09 0 0 0 10,68 v 340 a 58.09,58.09 0 0 0 58,58 h 340 a 58.09,58.09 0 0 0 58,-58 V 68 A 58.09,58.09 0 0 0 408,10 Z"
     id="path136" />
  <path
     class="cls-1"
     d="M 238,194.2 A 46.71,46.71 0 1 1 284.71,147.49 46.76,46.76 0 0 1 238,194.2 Z m 0,-83.41 a 36.71,36.71 0 1 0 36.71,36.7 36.75,36.75 0 0 0 -36.71,-36.7 z"
     id="path138" />
  <path
     class="cls-1"
     d="m 337.55,291.11 h -199 l 17.32,-41.82 c 11.13,-26.89 40.86,-45 74,-45 h 16.42 c 33.11,0 62.84,18.06 74,45 z m -184,-10 h 169.03 l -11.59,-28 c -9.61,-23.19 -35.62,-38.77 -64.74,-38.77 h -16.42 c -29.11,0 -55.13,15.58 -64.73,38.77 z"
     id="path140" />
  <polygon
     class="cls-1"
     points="322.96,362.78 415.77,362.78 415.77,372.78 332.96,372.78 332.96,576.9 667.04,576.9 667.04,372.78 584.4,372.78 584.4,362.78 677.04,362.78 677.04,586.9 322.96,586.9 "
     id="polygon142"
     transform="translate(-262,-262)" />
  <path
     class="cls-1"
     d="M 299.24,359.35 H 176.76 a 5,5 0 0 1 0,-10 h 122.48 a 5,5 0 0 1 0,10 z"
     id="path144" />
  <path
     class="cls-1"
     d="M 312,375.22 H 164 a 5,5 0 1 1 0,-10 h 148 a 5,5 0 0 1 0,10 z"
     id="path146" />
</svg>
