<?xml version="1.0" encoding="UTF-8" standalone="no"?>
<svg
   id="Слой_1"
   data-name="Слой 1"
   viewBox="0 0 476 476"
   version="1.1"
   sodipodi:docname="BS101-biometric-icon-06.svg"
   width="476"
   height="476"
   inkscape:version="1.2.2 (b0a84865, 2022-12-01)"
   xmlns:inkscape="http://www.inkscape.org/namespaces/inkscape"
   xmlns:sodipodi="http://sodipodi.sourceforge.net/DTD/sodipodi-0.dtd"
   xmlns="http://www.w3.org/2000/svg"
   xmlns:svg="http://www.w3.org/2000/svg">
  <sodipodi:namedview
     id="namedview613"
     pagecolor="#ffffff"
     bordercolor="#000000"
     borderopacity="0.25"
     inkscape:showpageshadow="2"
     inkscape:pageopacity="0.0"
     inkscape:pagecheckerboard="0"
     inkscape:deskcolor="#d1d1d1"
     showgrid="false"
     inkscape:zoom="0.236"
     inkscape:cx="-137.71186"
     inkscape:cy="237.28814"
     inkscape:window-width="1440"
     inkscape:window-height="456"
     inkscape:window-x="0"
     inkscape:window-y="25"
     inkscape:window-maximized="0"
     inkscape:current-layer="Слой_1" />
  <defs
     id="defs570">
    <style
       id="style568">.cls-1{fill:#04c3bc;}</style>
  </defs>
  <path
     class="cls-1"
     d="M 408,476 H 68 A 68.11,68.11 0 0 1 0,408 V 68 A 68.1,68.1 0 0 1 68,0 h 340 a 68.09,68.09 0 0 1 68,68 v 340 a 68.1,68.1 0 0 1 -68,68 z M 68,10 A 58.09,58.09 0 0 0 10,68 v 340 a 58.09,58.09 0 0 0 58,58 h 340 a 58.09,58.09 0 0 0 58,-58 V 68 A 58.09,58.09 0 0 0 408,10 Z"
     id="path572" />
  <path
     class="cls-1"
     d="M 326,148.19 A 48.33,48.33 0 1 1 374.33,99.86 48.38,48.38 0 0 1 326,148.19 Z m 0,-86.66 A 38.33,38.33 0 1 0 364.33,99.86 38.37,38.37 0 0 0 326,61.53 Z"
     id="path574" />
  <path
     class="cls-1"
     d="m 366.39,268.47 h -80.8 V 144.8 h 80.8 z m -70.8,-10 h 60.8 V 154.8 h -60.8 z"
     id="path576" />
  <path
     class="cls-1"
     d="M 376.16,290.26 A 19.79,19.79 0 0 1 356.39,270.49 V 144.8 h 5 a 34.59,34.59 0 0 1 34.54,34.54 v 91.15 a 19.79,19.79 0 0 1 -19.77,19.77 z m -9.77,-134.95 v 115.18 a 9.77,9.77 0 0 0 19.54,0 v -91.15 a 24.59,24.59 0 0 0 -19.54,-24.03 z"
     id="path578" />
  <path
     class="cls-1"
     d="m 275.82,290.26 a 19.79,19.79 0 0 1 -19.77,-19.77 v -91.15 a 34.58,34.58 0 0 1 34.54,-34.54 h 5 v 125.69 a 19.79,19.79 0 0 1 -19.77,19.77 z m 9.77,-134.95 a 24.59,24.59 0 0 0 -19.54,24 v 91.15 a 9.77,9.77 0 1 0 19.54,0 z"
     id="path580" />
  <path
     class="cls-1"
     d="m 366.39,258.47 v 140.8 a 22.7,22.7 0 0 1 -22.7,22.7 v 0 a 22.7,22.7 0 0 1 -22.7,-22.7 v -91.45 a 5.15,5.15 0 0 1 4.51,-5.19 5,5 0 0 1 5.49,5 v 91.67 a 12.7,12.7 0 0 0 12.7,12.7 v 0 a 12.7,12.7 0 0 0 12.7,-12.7 V 268.47 h -65.8 v -10 z"
     id="path582" />
  <path
     class="cls-1"
     d="m 285.59,258.47 v 140.8 a 22.7,22.7 0 0 0 22.7,22.7 v 0 a 22.7,22.7 0 0 0 22.7,-22.7 v -91.45 a 5.15,5.15 0 0 0 -4.51,-5.19 5,5 0 0 0 -5.49,5 v 91.67 a 12.7,12.7 0 0 1 -12.7,12.7 v 0 a 12.7,12.7 0 0 1 -12.7,-12.7 V 268.47 h 65.8 v -10 z"
     id="path584" />
  <path
     class="cls-1"
     d="M 154.78,422 H 80.07 V 51.53 h 74.71 z M 90.07,412 h 54.71 V 61.53 H 90.07 Z"
     id="path586" />
  <path
     class="cls-1"
     d="m 95,84.06 h -9.94 a 5,5 0 0 1 0,-10 H 95 a 5,5 0 0 1 0,10 z"
     id="path588" />
  <path
     class="cls-1"
     d="M 105,123.48 H 85.07 a 5,5 0 1 1 0,-10 H 105 a 5,5 0 0 1 0,10 z"
     id="path590" />
  <path
     class="cls-1"
     d="M 105,202.33 H 85.07 a 5,5 0 0 1 0,-10 H 105 a 5,5 0 0 1 0,10 z"
     id="path592" />
  <path
     class="cls-1"
     d="M 105,281.17 H 85.07 a 5,5 0 0 1 0,-10 H 105 a 5,5 0 0 1 0,10 z"
     id="path594" />
  <path
     class="cls-1"
     d="M 105,360 H 85.07 a 5,5 0 1 1 0,-10 H 105 a 5,5 0 0 1 0,10 z"
     id="path596" />
  <path
     class="cls-1"
     d="m 95,162.9 h -9.94 a 5,5 0 0 1 0,-10 H 95 a 5,5 0 0 1 0,10 z"
     id="path598" />
  <path
     class="cls-1"
     d="m 95,241.75 h -9.94 a 5,5 0 1 1 0,-10 H 95 a 5,5 0 0 1 0,10 z"
     id="path600" />
  <path
     class="cls-1"
     d="m 95,320.6 h -9.94 a 5,5 0 0 1 0,-10 H 95 a 5,5 0 0 1 0,10 z"
     id="path602" />
  <path
     class="cls-1"
     d="m 95,399.44 h -9.94 a 5,5 0 1 1 0,-10 H 95 a 5,5 0 0 1 0,10 z"
     id="path604" />
  <path
     class="cls-1"
     d="m 206.85,395.77 a 5,5 0 0 1 -5,-5 v -308 a 5,5 0 0 1 10,0 v 308 a 5,5 0 0 1 -5,5 z"
     id="path606" />
  <polygon
     class="cls-1"
     points="488.79,350.57 448.9,350.57 468.85,316.03 "
     id="polygon608"
     transform="translate(-262,-262)" />
  <polygon
     class="cls-1"
     points="488.79,646.93 448.9,646.93 468.85,681.47 "
     id="polygon610"
     transform="translate(-262,-262)" />
</svg>
