<?xml version="1.0" encoding="UTF-8" standalone="no"?>
<svg
   id="Слой_1"
   data-name="Слой 1"
   viewBox="0 0 476 476"
   version="1.1"
   sodipodi:docname="BS101-biometric-icon-02.svg"
   width="476"
   height="476"
   inkscape:version="1.2.2 (b0a84865, 2022-12-01)"
   xmlns:inkscape="http://www.inkscape.org/namespaces/inkscape"
   xmlns:sodipodi="http://sodipodi.sourceforge.net/DTD/sodipodi-0.dtd"
   xmlns="http://www.w3.org/2000/svg"
   xmlns:svg="http://www.w3.org/2000/svg">
  <sodipodi:namedview
     id="namedview456"
     pagecolor="#ffffff"
     bordercolor="#000000"
     borderopacity="0.25"
     inkscape:showpageshadow="2"
     inkscape:pageopacity="0.0"
     inkscape:pagecheckerboard="0"
     inkscape:deskcolor="#d1d1d1"
     showgrid="false"
     inkscape:zoom="0.236"
     inkscape:cx="-137.71186"
     inkscape:cy="237.28814"
     inkscape:window-width="1440"
     inkscape:window-height="456"
     inkscape:window-x="0"
     inkscape:window-y="25"
     inkscape:window-maximized="0"
     inkscape:current-layer="Слой_1" />
  <defs
     id="defs435">
    <style
       id="style433">.cls-1{fill:#04c3bc;}</style>
  </defs>
  <path
     class="cls-1"
     d="M 408,476 H 68 A 68.1,68.1 0 0 1 0,408 V 68 A 68.1,68.1 0 0 1 68,0 h 340 a 68.09,68.09 0 0 1 68,68 v 340 a 68.09,68.09 0 0 1 -68,68 z M 68,10 A 58.09,58.09 0 0 0 10,68 v 340 a 58.09,58.09 0 0 0 58,58 h 340 a 58.09,58.09 0 0 0 58,-58 V 68 A 58.09,58.09 0 0 0 408,10 Z"
     id="path437" />
  <path
     class="cls-1"
     d="M 238,176.51 A 55.34,55.34 0 1 1 293.35,121.17 55.4,55.4 0 0 1 238,176.51 Z M 238,75.83 A 45.34,45.34 0 1 0 283.35,121.17 45.39,45.39 0 0 0 238,75.83 Z"
     id="path439" />
  <path
     class="cls-1"
     d="M 251.61,336.61 H 224.4 a 68.31,68.31 0 0 1 -34.48,-9.3 c -1.33,-0.79 -2.48,-1.51 -3.52,-2.22 a 68.32,68.32 0 0 1 -29.14,-69.65 l 6.38,-33.39 A 111,111 0 0 0 143.2,236 18.83,18.83 0 0 1 117.58,235.24 l -0.28,-0.28 a 18.7,18.7 0 0 1 0.86,-27.26 149.1,149.1 0 0 1 26.59,-18.47 184.26,184.26 0 0 1 59,-20 214.47,214.47 0 0 1 68.5,0 184.52,184.52 0 0 1 59,20 148,148 0 0 1 26.58,18.47 18.69,18.69 0 0 1 0.88,27.25 l -0.36,0.35 A 18.79,18.79 0 0 1 332.8,236 110.73,110.73 0 0 0 312.36,222 l 6.37,33.4 a 68.32,68.32 0 0 1 -29.17,69.68 c -1,0.69 -2.17,1.41 -3.48,2.18 a 68.3,68.3 0 0 1 -34.47,9.35 z m -76.34,-122.19 -8.19,42.9 A 58.33,58.33 0 0 0 192,316.8 c 0.91,0.61 1.85,1.21 3,1.89 a 58.25,58.25 0 0 0 29.41,7.92 h 27.21 A 58.28,58.28 0 0 0 281,318.68 c 1.12,-0.66 2.08,-1.26 2.94,-1.85 a 58.35,58.35 0 0 0 24.95,-59.51 l -8.19,-42.91 v -0.15 l -2.39,-9.8 9.3,4.13 a 126.18,126.18 0 0 1 31.76,19.87 8.81,8.81 0 0 0 12,-0.29 l 0.31,-0.31 a 8.69,8.69 0 0 0 -0.41,-12.64 138.69,138.69 0 0 0 -24.81,-17.22 175,175 0 0 0 -55.84,-18.87 204.69,204.69 0 0 0 -65.26,0 174.51,174.51 0 0 0 -55.81,18.87 139,139 0 0 0 -24.8,17.22 8.57,8.57 0 0 0 -2.93,6.21 8.67,8.67 0 0 0 2.55,6.46 l 0.28,0.28 a 8.81,8.81 0 0 0 12,0.29 126.64,126.64 0 0 1 31.77,-19.87 l 9.37,-4.16 -2.47,9.85 z"
     id="path441" />
  <path
     class="cls-1"
     d="m 158.48,341.41 a 4.93,4.93 0 0 1 -1.83,-0.36 61.51,61.51 0 0 1 -34.56,-79.74 5.0008099,5.0008099 0 0 1 9.3,3.68 51.5,51.5 0 0 0 28.93,66.76 5,5 0 0 1 -1.84,9.66 z"
     id="path443" />
  <path
     class="cls-1"
     d="M 137.66,365.08 A 4.94,4.94 0 0 1 135.82,364.72 79.78,79.78 0 0 1 91,261.3 a 5,5 0 1 1 9.3,3.67 69.7,69.7 0 0 0 39.21,90.45 5,5 0 0 1 -1.84,9.66 z"
     id="path445" />
  <path
     class="cls-1"
     d="m 317.52,341.41 a 5,5 0 0 1 -1.84,-9.66 51.5,51.5 0 0 0 28.93,-66.75 5.0054595,5.0054595 0 0 1 9.31,-3.68 61.52,61.52 0 0 1 -34.57,79.74 4.93,4.93 0 0 1 -1.83,0.35 z"
     id="path447" />
  <path
     class="cls-1"
     d="m 338.34,365.08 a 5,5 0 0 1 -1.84,-9.66 69.78,69.78 0 0 0 39.21,-90.42 5,5 0 1 1 9.3,-3.67 79.79,79.79 0 0 1 -44.83,103.42 4.94,4.94 0 0 1 -1.84,0.33 z"
     id="path449" />
  <path
     class="cls-1"
     d="m 206.88,410.17 a 22.68,22.68 0 0 1 -22.67,-22.66 v -76 l 7.81,5.33 c 0.89,0.6 1.86,1.22 3,1.87 a 58.23,58.23 0 0 0 29.41,7.93 h 5.14 v 60.89 a 22.69,22.69 0 0 1 -22.69,22.64 z m -12.67,-80.55 v 57.89 a 12.67,12.67 0 0 0 25.33,0 v -51.07 a 68.2,68.2 0 0 1 -25.33,-6.82 z"
     id="path451" />
  <path
     class="cls-1"
     d="m 269.13,410.17 a 22.69,22.69 0 0 1 -22.67,-22.66 v -60.89 h 5.15 A 58.38,58.38 0 0 0 281,318.68 c 1.08,-0.64 2.05,-1.25 3,-1.86 l 7.8,-5.29 v 76 a 22.68,22.68 0 0 1 -22.67,22.64 z m -12.67,-73.73 v 51.07 a 12.67,12.67 0 0 0 25.33,0 v -57.89 a 68.36,68.36 0 0 1 -25.33,6.82 z"
     id="path453" />
</svg>
