<?xml version="1.0" encoding="UTF-8" standalone="no"?>
<svg
   id="Слой_1"
   data-name="Слой 1"
   viewBox="0 0 476 476"
   version="1.1"
   sodipodi:docname="BS101-biometric-icon-11.svg"
   width="476"
   height="476"
   inkscape:version="1.2.2 (b0a84865, 2022-12-01)"
   xmlns:inkscape="http://www.inkscape.org/namespaces/inkscape"
   xmlns:sodipodi="http://sodipodi.sourceforge.net/DTD/sodipodi-0.dtd"
   xmlns="http://www.w3.org/2000/svg"
   xmlns:svg="http://www.w3.org/2000/svg">
  <sodipodi:namedview
     id="namedview1301"
     pagecolor="#ffffff"
     bordercolor="#000000"
     borderopacity="0.25"
     inkscape:showpageshadow="2"
     inkscape:pageopacity="0.0"
     inkscape:pagecheckerboard="0"
     inkscape:deskcolor="#d1d1d1"
     showgrid="false"
     inkscape:zoom="0.236"
     inkscape:cx="-137.71186"
     inkscape:cy="237.28814"
     inkscape:window-width="1440"
     inkscape:window-height="456"
     inkscape:window-x="0"
     inkscape:window-y="25"
     inkscape:window-maximized="0"
     inkscape:current-layer="Слой_1" />
  <defs
     id="defs1288">
    <style
       id="style1286">.cls-1{fill:#04c3bc;}</style>
  </defs>
  <path
     class="cls-1"
     d="M 408,476 H 68 A 68.1,68.1 0 0 1 0,408 V 68 A 68.09,68.09 0 0 1 68,0 h 340 a 68.09,68.09 0 0 1 68,68 v 340 a 68.1,68.1 0 0 1 -68,68 z M 68,10 A 58.09,58.09 0 0 0 10,68 v 340 a 58.09,58.09 0 0 0 58,58 h 340 a 58.09,58.09 0 0 0 58,-58 V 68 A 58.09,58.09 0 0 0 408,10 Z"
     id="path1290" />
  <path
     class="cls-1"
     d="m 298.33,274.39 c -0.3,0 -0.6,0 -0.91,0 l -1.51,10.45 -9.7,67.2 v 0.11 a 7.21,7.21 0 0 1 -7.14,6.32 H 197 a 7.22,7.22 0 0 1 -7.15,-6.32 l -9.72,-67.31 -1.51,-10.45 c -0.3,0 -0.6,0 -0.9,0 a 30.06,30.06 0 0 1 -8.83,-1.31 l 1.61,11.16 10,69.09 A 16.67,16.67 0 0 0 197,367.9 h 82.1 a 16.66,16.66 0 0 0 16.51,-14.57 l 10,-69.09 1.61,-11.16 a 30,30 0 0 1 -8.89,1.31 z m -99.59,-52.45 a 93.28,93.28 0 0 1 11.52,-3.18 139,139 0 0 1 55.47,0 98.65,98.65 0 0 1 11.5,3.17 31.24,31.24 0 0 1 6.47,-4.8 28.66,28.66 0 0 1 3.06,-1.47 89.26,89.26 0 0 0 -12.89,-4.59 143.06,143.06 0 0 0 -71.74,0 88.08,88.08 0 0 0 -12.89,4.59 28.66,28.66 0 0 1 3.06,1.47 31.23,31.23 0 0 1 6.44,4.81 z"
     id="path1292" />
  <path
     class="cls-1"
     d="m 202.13,211.1 a 55.35,55.35 0 0 0 -5.14,-3.32 37.48,37.48 0 0 0 -18.81,-4.87 c -1,0 -2.1,0 -3.15,0.11 a 39.89,39.89 0 0 0 -26.78,12.41 3.38,3.38 0 0 1 -2.48,1.1 4.7,4.7 0 0 1 -0.63,0 100.6,100.6 0 0 0 -15.14,-1.3 h -2.53 a 40.67,40.67 0 0 0 -5.17,0.26 33.24,33.24 0 0 0 -13.61,5.18 l -5.14,3.33 0.25,-3.73 c 0.52,-8.15 1.56,-18.82 5,-29.13 l 0.52,-1.54 1.59,0.27 1.28,0.24 c 0.8,0.14 1.62,0.3 2.41,0.38 a 30.05,30.05 0 0 0 3.55,0.2 35.81,35.81 0 0 0 15.27,-3.6 c 7.18,-3.32 12.24,-7.74 15.48,-13.5 A 17.08,17.08 0 0 0 150,157.8 c -1.65,-3.86 -4.26,-7.41 -8.46,-11.52 a 107,107 0 0 0 -13.84,-11 21.73,21.73 0 0 0 -9.78,-3.94 30.35,30.35 0 0 0 -3.38,-0.21 c -7.15,0 -13.09,3 -17.66,9 -4.15,5.39 -8.3,10.94 -12.33,16.32 -2.49,3.32 -5.05,6.75 -7.6,10.11 a 107.43,107.43 0 0 0 -9.58,15.4 198.79,198.79 0 0 0 -12.84,31.22 c -4,12.5 -6.17,22.9 -6.93,32.71 -0.57,7.32 -0.19,12.89 1.23,18 a 21.23,21.23 0 0 0 8.52,12.33 79.55,79.55 0 0 0 25.41,11.78 99.81,99.81 0 0 0 25.6,3.16 130.68,130.68 0 0 0 13.44,-0.72 170.33,170.33 0 0 0 37.07,-8.21 6.39,6.39 0 0 1 4.5,0.08 40.53,40.53 0 0 0 14.35,2.61 c 0.79,0 1.57,0 2.36,-0.07 l -1.51,-10.45 c -0.3,0 -0.6,0 -0.9,0 a 29.74,29.74 0 0 1 -13.28,-3.08 c -0.39,-0.2 -0.73,-0.4 -1,-0.58 l -1.46,-0.83 -1.55,0.65 c -0.33,0.15 -0.7,0.31 -1.11,0.46 a 167.11,167.11 0 0 1 -38.3,9 122.74,122.74 0 0 1 -12.57,0.68 90.38,90.38 0 0 1 -21.4,-2.48 67.86,67.86 0 0 1 -23.79,-10.76 10.77,10.77 0 0 1 -4.07,-5.71 34,34 0 0 1 -1.28,-10.64 102.21,102.21 0 0 1 3.54,-23.84 190,190 0 0 1 15.48,-40.9 95.91,95.91 0 0 1 8.79,-14 c 4.4,-5.79 8.84,-11.71 13.14,-17.43 l 0.06,-0.1 c 2.1,-2.78 4.19,-5.58 6.28,-8.36 a 11.89,11.89 0 0 1 9.41,-5 12.52,12.52 0 0 1 7,2.28 80.62,80.62 0 0 1 12.68,10.08 57.4,57.4 0 0 1 5.07,6.11 c 2.12,2.86 2.07,6.21 -0.17,9.42 A 22.55,22.55 0 0 1 132,176 a 28.23,28.23 0 0 1 -13.1,4.15 h -1 a 12.51,12.51 0 0 1 -8.42,-2.93 l -0.68,-0.56 -2.29,-1.83 -1.75,2.35 a 36.74,36.74 0 0 0 -4.69,7.65 78,78 0 0 0 -4.67,16.85 141.19,141.19 0 0 0 -2,33.12 4,4 0 0 1 -0.59,2.23 78.57,78.57 0 0 0 -4.06,7.38 l -1.36,2.85 10,3.5 1.1,-2.28 a 51.23,51.23 0 0 1 9.95,-14.22 c 4.55,-4.53 9.22,-7.2 14.29,-8.17 a 27.76,27.76 0 0 1 5.17,-0.38 h 2.25 a 98.73,98.73 0 0 1 19.49,2.19 l 1.75,0.36 1.08,-1.42 a 38.89,38.89 0 0 1 5.84,-6.46 30.48,30.48 0 0 1 19.51,-7 30,30 0 0 1 11.49,2.26 28.66,28.66 0 0 1 3.06,1.47 31.23,31.23 0 0 1 6.44,4.78 93.28,93.28 0 0 1 11.52,-3.18 42.28,42.28 0 0 0 -8.2,-7.61 z"
     id="path1294" />
  <path
     class="cls-1"
     d="m 428.37,245.83 c -0.76,-9.81 -3,-20.2 -6.93,-32.71 A 198.79,198.79 0 0 0 408.6,181.9 108.33,108.33 0 0 0 399,166.5 c -2.55,-3.36 -5.12,-6.79 -7.62,-10.13 -4,-5.36 -8.16,-10.91 -12.31,-16.3 -4.57,-5.95 -10.51,-9 -17.67,-9 a 30.32,30.32 0 0 0 -3.37,0.21 21.73,21.73 0 0 0 -9.78,3.94 107,107 0 0 0 -13.84,11 c -4.2,4.11 -6.81,7.67 -8.45,11.52 a 17,17 0 0 0 1.08,15.74 c 3.23,5.77 8.3,10.18 15.47,13.5 a 35.89,35.89 0 0 0 15.28,3.6 30.18,30.18 0 0 0 3.55,-0.2 c 0.79,-0.08 1.64,-0.24 2.4,-0.38 l 1.28,-0.24 1.6,-0.27 0.51,1.54 c 3.49,10.31 4.53,21 5.05,29.13 l 0.24,3.73 -5.13,-3.29 a 33.29,33.29 0 0 0 -13.61,-5.18 40.67,40.67 0 0 0 -5.17,-0.26 H 346 a 100.6,100.6 0 0 0 -15.14,1.25 4.72,4.72 0 0 1 -0.64,0 3.38,3.38 0 0 1 -2.47,-1.1 A 39.89,39.89 0 0 0 301,203 c -1.05,-0.08 -2.11,-0.11 -3.16,-0.11 a 37.47,37.47 0 0 0 -18.8,4.87 57.49,57.49 0 0 0 -5.14,3.32 41.89,41.89 0 0 0 -8.14,7.69 98.65,98.65 0 0 1 11.5,3.17 31.24,31.24 0 0 1 6.47,-4.8 28.66,28.66 0 0 1 3.06,-1.47 30,30 0 0 1 11.49,-2.26 30.48,30.48 0 0 1 19.51,7 38.89,38.89 0 0 1 5.84,6.46 l 1.08,1.42 1.75,-0.36 a 98.72,98.72 0 0 1 19.48,-2.19 h 2.26 a 27.76,27.76 0 0 1 5.17,0.38 c 5.06,1 9.74,3.64 14.28,8.17 a 50.82,50.82 0 0 1 10,14.22 l 1.11,2.28 10,-3.5 -1.35,-2.85 a 77.54,77.54 0 0 0 -4.06,-7.38 4,4 0 0 1 -0.59,-2.23 141.72,141.72 0 0 0 -2,-33.12 78,78 0 0 0 -4.76,-16.87 36.74,36.74 0 0 0 -4.69,-7.65 l -1.75,-2.36 -2.29,1.84 -0.68,0.56 a 12.55,12.55 0 0 1 -8.42,2.93 h -1 A 28.3,28.3 0 0 1 344,176 a 22.62,22.62 0 0 1 -7.22,-6.54 c -2.24,-3.21 -2.29,-6.56 -0.17,-9.42 a 57.4,57.4 0 0 1 5.07,-6.11 80.62,80.62 0 0 1 12.68,-10.08 12.52,12.52 0 0 1 7,-2.28 11.88,11.88 0 0 1 9.4,5 c 2.09,2.79 4.18,5.58 6.3,8.39 4.08,5.44 8.71,11.62 13.18,17.5 a 96.77,96.77 0 0 1 8.79,14 190,190 0 0 1 15.48,40.9 102.21,102.21 0 0 1 3.54,23.84 34,34 0 0 1 -1.28,10.64 10.77,10.77 0 0 1 -4.07,5.71 67.86,67.86 0 0 1 -23.7,10.67 90.5,90.5 0 0 1 -21.32,2.42 122.4,122.4 0 0 1 -12.56,-0.68 166.82,166.82 0 0 1 -38.31,-9 c -0.41,-0.15 -0.77,-0.31 -1.1,-0.46 l -1.55,-0.66 -1.48,0.84 c -0.3,0.18 -0.64,0.38 -1,0.57 a 30.48,30.48 0 0 1 -4.46,1.78 30,30 0 0 1 -8.82,1.31 c -0.3,0 -0.6,0 -0.91,0 l -1.51,10.45 c 0.79,0 1.58,0.07 2.37,0.07 a 40.64,40.64 0 0 0 14.35,-2.61 6.39,6.39 0 0 1 4.5,-0.08 170.33,170.33 0 0 0 37.07,8.21 130.64,130.64 0 0 0 13.43,0.72 v 0 a 99.81,99.81 0 0 0 25.6,-3.16 79.65,79.65 0 0 0 25.38,-11.77 21.23,21.23 0 0 0 8.52,-12.33 c 1.36,-5.12 1.74,-10.69 1.17,-18.01 z"
     id="path1296" />
  <path
     class="cls-1"
     d="m 238,200.11 a 48.51,48.51 0 1 1 48.5,-48.5 48.55,48.55 0 0 1 -48.5,48.5 z m 0,-87 A 38.51,38.51 0 1 0 276.5,151.62 38.55,38.55 0 0 0 238,113.1 Z"
     id="path1298" />
</svg>
