<?xml version="1.0" encoding="UTF-8" standalone="no"?>
<svg
   id="Слой_1"
   data-name="Слой 1"
   viewBox="0 0 476 476"
   version="1.1"
   sodipodi:docname="BS101-biometric-icon-08.svg"
   width="476"
   height="476"
   inkscape:version="1.2.2 (b0a84865, 2022-12-01)"
   xmlns:inkscape="http://www.inkscape.org/namespaces/inkscape"
   xmlns:sodipodi="http://sodipodi.sourceforge.net/DTD/sodipodi-0.dtd"
   xmlns="http://www.w3.org/2000/svg"
   xmlns:svg="http://www.w3.org/2000/svg">
  <sodipodi:namedview
     id="namedview897"
     pagecolor="#ffffff"
     bordercolor="#000000"
     borderopacity="0.25"
     inkscape:showpageshadow="2"
     inkscape:pageopacity="0.0"
     inkscape:pagecheckerboard="0"
     inkscape:deskcolor="#d1d1d1"
     showgrid="false"
     inkscape:zoom="0.236"
     inkscape:cx="-137.71186"
     inkscape:cy="237.28814"
     inkscape:window-width="1440"
     inkscape:window-height="456"
     inkscape:window-x="0"
     inkscape:window-y="25"
     inkscape:window-maximized="0"
     inkscape:current-layer="Слой_1" />
  <defs
     id="defs872">
    <style
       id="style870">.cls-1{fill:#04c3bc;}</style>
  </defs>
  <path
     class="cls-1"
     d="M 408,476 H 68 A 68.1,68.1 0 0 1 0,408 V 68 A 68.11,68.11 0 0 1 68,0 h 340 a 68.1,68.1 0 0 1 68,68 v 340 a 68.09,68.09 0 0 1 -68,68 z M 68,10 A 58.09,58.09 0 0 0 10,68 v 340 a 58.09,58.09 0 0 0 58,58 h 340 a 58.09,58.09 0 0 0 58,-58 V 68 A 58.09,58.09 0 0 0 408,10 Z"
     id="path874" />
  <path
     class="cls-1"
     d="M 399.89,243 H 76.11 a 22.46,22.46 0 0 1 -22.38,-24.77 185.33,185.33 0 0 1 368.54,0 A 22.47,22.47 0 0 1 399.89,243 Z M 238,62.69 a 174.86,174.86 0 0 0 -174.33,156.59 12.21,12.21 0 0 0 3.13,9.57 12.52,12.52 0 0 0 9.31,4.15 h 323.78 a 12.59,12.59 0 0 0 9.33,-4.16 12.21,12.21 0 0 0 3.11,-9.56 A 174.85,174.85 0 0 0 238,62.69 Z"
     id="path876" />
  <path
     class="cls-1"
     d="m 255.42,230.79 a 17.23,17.23 0 0 1 -1.57,7.21 h -31.7 a 17.23,17.23 0 0 1 -1.57,-7.21 17.42,17.42 0 1 1 34.84,0 z"
     id="path878" />
  <path
     class="cls-1"
     d="m 325.75,84 -22.24,22.7 a 1.63,1.63 0 0 1 -2.79,-1.34 l 3.88,-31.54 z"
     id="path880" />
  <path
     class="cls-1"
     d="m 384.38,137.48 -29.88,10.81 a 1.64,1.64 0 0 1 -1.94,-2.43 l 17.19,-26.73 z"
     id="path882" />
  <path
     class="cls-1"
     d="m 414,211.07 -31.61,-3.23 a 1.64,1.64 0 0 1 -0.69,-3 l 27.08,-16.62 z"
     id="path884" />
  <path
     class="cls-1"
     d="m 67.2,188.19 27.08,16.62 a 1.64,1.64 0 0 1 -0.69,3 L 62,211.07 Z"
     id="path886" />
  <path
     class="cls-1"
     d="m 106.25,119.13 17.19,26.73 a 1.64,1.64 0 0 1 -1.94,2.43 L 91.62,137.48 Z"
     id="path888" />
  <path
     class="cls-1"
     d="m 171.4,73.86 3.88,31.54 a 1.63,1.63 0 0 1 -2.79,1.34 L 150.25,84 Z"
     id="path890" />
  <path
     class="cls-1"
     d="m 249.73,61.34 -10.18,30.1 a 1.64,1.64 0 0 1 -3.1,0 l -10.18,-30.1 z"
     id="path892" />
  <path
     class="cls-1"
     d="m 238,231 a 221.65,221.65 0 0 1 9.55,-27.77 q 5.55,-13.5 12.09,-26.5 6.54,-13 14,-25.54 a 220.22,220.22 0 0 1 16.58,-24.19 219.62,219.62 0 0 1 -9.54,27.78 q -5.55,13.5 -12.1,26.49 -6.55,12.99 -14,25.53 A 221.64,221.64 0 0 1 238,231 Z"
     id="path894" />
</svg>
