<?xml version="1.0" encoding="UTF-8" standalone="no"?>
<svg
   id="Слой_1"
   data-name="Слой 1"
   viewBox="0 0 476 476"
   version="1.1"
   sodipodi:docname="BS101-biometric-icon-07.svg"
   width="476"
   height="476"
   inkscape:version="1.2.2 (b0a84865, 2022-12-01)"
   xmlns:inkscape="http://www.inkscape.org/namespaces/inkscape"
   xmlns:sodipodi="http://sodipodi.sourceforge.net/DTD/sodipodi-0.dtd"
   xmlns="http://www.w3.org/2000/svg"
   xmlns:svg="http://www.w3.org/2000/svg">
  <sodipodi:namedview
     id="namedview751"
     pagecolor="#ffffff"
     bordercolor="#000000"
     borderopacity="0.25"
     inkscape:showpageshadow="2"
     inkscape:pageopacity="0.0"
     inkscape:pagecheckerboard="0"
     inkscape:deskcolor="#d1d1d1"
     showgrid="false"
     inkscape:zoom="0.236"
     inkscape:cx="-137.71186"
     inkscape:cy="237.28814"
     inkscape:window-width="1440"
     inkscape:window-height="456"
     inkscape:window-x="0"
     inkscape:window-y="25"
     inkscape:window-maximized="0"
     inkscape:current-layer="Слой_1" />
  <defs
     id="defs734">
    <style
       id="style732">.cls-1{fill:#04c3bc;}</style>
  </defs>
  <path
     class="cls-1"
     d="M 408,476 H 68 A 68.09,68.09 0 0 1 0,408 V 68 A 68.09,68.09 0 0 1 68,0 h 340 a 68.09,68.09 0 0 1 68,68 v 340 a 68.09,68.09 0 0 1 -68,68 z M 68,10 A 58.09,58.09 0 0 0 10,68 v 340 a 58.09,58.09 0 0 0 58,58 h 340 a 58.09,58.09 0 0 0 58,-58 V 68 A 58.09,58.09 0 0 0 408,10 Z"
     id="path736" />
  <rect
     class="cls-1"
     x="56.899994"
     y="164.06"
     width="362.20999"
     height="10"
     id="rect738" />
  <ellipse
     class="cls-1"
     cx="99.869995"
     cy="240.62"
     rx="33.790001"
     ry="14.49"
     id="ellipse740" />
  <ellipse
     class="cls-1"
     cx="168.94"
     cy="292.45001"
     rx="33.790001"
     ry="14.49"
     id="ellipse742" />
  <ellipse
     class="cls-1"
     cx="307.06"
     cy="292.45001"
     rx="33.790001"
     ry="14.49"
     id="ellipse744" />
  <ellipse
     class="cls-1"
     cx="376.13"
     cy="240.62"
     rx="33.790001"
     ry="14.49"
     id="ellipse746" />
  <ellipse
     class="cls-1"
     cx="238"
     cy="240.62"
     rx="33.790001"
     ry="14.49"
     id="ellipse748" />
</svg>
